<?xml version="1.0" standalone="no"?>
<!DOCTYPE svg PUBLIC "-//W3C//DTD SVG 1.1//EN" "http://www.w3.org/Graphics/SVG/1.1/DTD/svg11.dtd" >
<svg>
<metadata>
Created by FontForge 20090622 at Thu Apr 14 14:46:17 2016
 By deploy user
Copyright (C) 2006, 2007 Hoefler &#38; Frere-Jones. http://www.typography.com
</metadata>
<defs>
<font id="GothamRounded-BookItalic" horiz-adv-x="659" >
  <font-face 
    font-family="Gotham Rounded Book"
    font-weight="325"
    font-style="italic"
    font-stretch="normal"
    units-per-em="1000"
    panose-1="0 0 0 0 0 0 0 0 0 0"
    ascent="800"
    descent="-200"
    x-height="517"
    cap-height="705"
    bbox="-137 -243 1184 1035"
    underline-thickness="50"
    underline-position="-50"
    slope="-15"
    unicode-range="U+0020-U+FB04"
  />
<missing-glyph horiz-adv-x="500" 
d="M0 -200v1000h500v-1000h-500zM71 750l179 -390l179 390h-358zM50 -76l172 376l-172 376v-752zM450 676l-172 -376l172 -376v752zM250 240l-179 -390h358z" />
    <glyph glyph-name="f_f" unicode="ff" horiz-adv-x="750" 
d="M244 449l-112 -416q-10 -38 -43 -38q-18 0 -27 13.5t-4 34.5l109 406h-35q-13 1 -22.5 10.5t-9.5 23.5t10 24t24 10h51l17 62q40 153 177 153q39 0 73 -12q28 -9 28 -34q0 -18 -12.5 -28t-29.5 -4q-28 11 -59 11q-78 0 -104 -98l-13 -50h129q14 0 24 -10t10 -24t-10 -24
t-24 -10h-147zM619 449l-112 -416q-9 -38 -43 -38q-18 0 -27 13.5t-4 34.5l109 406h-35q-13 1 -22.5 10.5t-9.5 23.5t10 24t24 10h51l17 62q40 153 177 153q39 0 73 -12q28 -9 28 -34q0 -18 -12.5 -28t-29.5 -4q-28 11 -59 11q-78 0 -104 -98l-13 -50h129q14 0 24 -10
t10 -24t-10 -24t-24 -10h-147z" />
    <glyph glyph-name="fi" unicode="fi" horiz-adv-x="639" 
d="M661 661q-9 -36 -51 -36q-20 0 -31.5 11t-7.5 28l5 21q10 35 51 35q20 0 31.5 -11t7.5 -28zM603 474l-118 -441q-11 -38 -43 -38q-19 0 -27.5 13t-3.5 35l118 441q11 38 43 38q19 0 28 -13.5t3 -34.5zM244 449l-112 -416q-10 -38 -43 -38q-18 0 -27 13.5t-4 34.5l109 406
h-35q-13 1 -22.5 10.5t-9.5 23.5t10 24t24 10h51l17 62q40 153 177 153q39 0 73 -12q28 -9 28 -34q0 -18 -12.5 -28t-29.5 -4q-28 11 -59 11q-78 0 -104 -98l-13 -50h129q14 0 24 -10t10 -24t-10 -24t-24 -10h-147z" />
    <glyph glyph-name="fl" unicode="fl" horiz-adv-x="639" 
d="M660 687l-175 -654q-11 -38 -43 -38q-19 0 -27.5 13t-3.5 35l175 654q11 38 43 38q19 0 28 -13.5t3 -34.5zM244 449l-112 -416q-10 -38 -43 -38q-18 0 -27 13.5t-4 34.5l109 406h-35q-13 1 -22.5 10.5t-9.5 23.5t10 24t24 10h51l17 62q40 153 177 153q39 0 73 -12
q28 -9 28 -34q0 -18 -12.5 -28t-29.5 -4q-28 11 -59 11q-78 0 -104 -98l-13 -50h129q14 0 24 -10t10 -24t-10 -24t-24 -10h-147z" />
    <glyph glyph-name="f_f_i" unicode="ffi" horiz-adv-x="1015" 
d="M1036 661q-9 -36 -51 -36q-20 0 -31.5 11t-7.5 28l5 21q10 35 51 35q20 0 31.5 -11t7.5 -28zM978 474l-118 -441q-11 -38 -43 -38q-19 0 -27.5 13t-3.5 35l118 441q11 38 43 38q19 0 28 -13.5t3 -34.5zM244 449l-112 -416q-10 -38 -43 -38q-18 0 -27 13.5t-4 34.5
l109 406h-35q-13 1 -22.5 10.5t-9.5 23.5t10 24t24 10h51l17 62q40 153 177 153q39 0 73 -12q28 -9 28 -34q0 -18 -12.5 -28t-29.5 -4q-28 11 -59 11q-78 0 -104 -98l-13 -50h129q14 0 24 -10t10 -24t-10 -24t-24 -10h-147zM619 449l-112 -416q-9 -38 -43 -38
q-18 0 -27 13.5t-4 34.5l109 406h-35q-13 1 -22.5 10.5t-9.5 23.5t10 24t24 10h51l17 62q40 153 177 153q39 0 73 -12q28 -9 28 -34q0 -18 -12.5 -28t-29.5 -4q-28 11 -59 11q-78 0 -104 -98l-13 -50h129q14 0 24 -10t10 -24t-10 -24t-24 -10h-147z" />
    <glyph glyph-name="f_f_l" unicode="ffl" horiz-adv-x="1015" 
d="M1035 687l-175 -654q-11 -38 -43 -38q-19 0 -27.5 13t-3.5 35l175 654q11 38 43 38q19 0 28 -13.5t3 -34.5zM244 449l-112 -416q-10 -38 -43 -38q-18 0 -27 13.5t-4 34.5l109 406h-35q-13 1 -22.5 10.5t-9.5 23.5t10 24t24 10h51l17 62q40 153 177 153q39 0 73 -12
q28 -9 28 -34q0 -18 -12.5 -28t-29.5 -4q-28 11 -59 11q-78 0 -104 -98l-13 -50h129q14 0 24 -10t10 -24t-10 -24t-24 -10h-147zM619 449l-112 -416q-9 -38 -43 -38q-18 0 -27 13.5t-4 34.5l109 406h-35q-13 1 -22.5 10.5t-9.5 23.5t10 24t24 10h51l17 62q40 153 177 153
q39 0 73 -12q28 -9 28 -34q0 -18 -12.5 -28t-29.5 -4q-28 11 -59 11q-78 0 -104 -98l-13 -50h129q14 0 24 -10t10 -24t-10 -24t-24 -10h-147z" />
    <glyph glyph-name=".notdef" horiz-adv-x="500" 
d="M0 -200v1000h500v-1000h-500zM71 750l179 -390l179 390h-358zM50 -76l172 376l-172 376v-752zM450 676l-172 -376l172 -376v752zM250 240l-179 -390h358z" />
    <glyph glyph-name=".null" horiz-adv-x="0" 
 />
    <glyph glyph-name="nonmarkingreturn" horiz-adv-x="333" 
 />
    <glyph glyph-name="space" unicode=" " horiz-adv-x="300" 
 />
    <glyph glyph-name="exclam" unicode="!" horiz-adv-x="271" 
d="M290 669l-144 -455q-7 -20 -24 -20q-25 0 -20 28l100 451q5 30 35 30h30q15 0 21.5 -9.5t1.5 -24.5zM90 110q21 0 33.5 -14t6.5 -34l-7 -25q-5 -19 -19 -30.5t-34 -11.5q-21 0 -33 14t-7 34l7 25q11 42 53 42z" />
    <glyph glyph-name="quotedbl" unicode="&#x22;" horiz-adv-x="442" 
d="M151 444q-10 -20 -27 -20q-24 0 -16 27l73 218q12 34 45 34h17q19 0 24.5 -13.5t-4.5 -31.5zM348 444q-10 -20 -27 -20q-24 0 -16 27l73 218q10 34 45 34h16q20 0 25 -13.5t-5 -31.5z" />
    <glyph glyph-name="numbersign" unicode="#" horiz-adv-x="682" 
d="M235 246h187l75 212h-188zM381 666l-48 -139h187l52 148q12 30 40 30q17 0 25 -11.5t3 -27.5l-49 -139h73q14 0 24 -10t10 -24t-10 -24.5t-24 -10.5h-97l-74 -212h84q14 0 24.5 -10t10.5 -24t-10.5 -24.5t-24.5 -10.5h-108l-53 -152q-10 -30 -39 -30q-17 0 -25.5 11.5
t-2.5 27.5l49 143h-187l-53 -152q-11 -30 -39 -30q-17 0 -25.5 11.5t-3.5 27.5l50 143h-72q-14 0 -24.5 10t-10.5 24t10.5 24.5t24.5 10.5h96l74 212h-84q-14 0 -24.5 10t-10.5 24t10.5 24.5t24.5 10.5h108l52 148q12 30 39 30q17 0 25.5 -11.5t2.5 -27.5z" />
    <glyph glyph-name="dollar" unicode="$" horiz-adv-x="623" 
d="M192 -64l20 70q-115 21 -190 92q-16 14 -16 34q0 16 11 26.5t27 10.5q14 0 28 -12q65 -66 164 -82l68 252q-93 36 -134 74.5t-41 102.5q0 84 70 140t174 56q6 0 17.5 -0.5t16.5 -0.5l9 33q10 31 36 31q15 0 22.5 -11t3.5 -28l-9 -34q81 -18 143 -69q18 -13 18 -32
q0 -16 -11 -27t-27 -11q-13 0 -29 11q-49 44 -118 59l-65 -238q88 -32 128.5 -73.5t40.5 -105.5q0 -89 -73.5 -146.5t-188.5 -57.5h-14l-20 -72q-8 -31 -35 -31q-15 0 -22.5 10.5t-3.5 28.5zM292 70q78 -2 127 33t49 93q0 36 -25 62t-85 50zM326 403l62 226
q-76 7 -127 -27.5t-51 -89.5q0 -37 26.5 -61t89.5 -48z" />
    <glyph glyph-name="percent" unicode="%" horiz-adv-x="837" 
d="M232 346q-62 0 -101.5 42t-39.5 104q0 85 55.5 150.5t135.5 65.5q63 0 102.5 -42t39.5 -104q0 -85 -56 -150.5t-136 -65.5zM603 -7q-62 0 -101.5 41.5t-39.5 104.5q0 84 56 150t136 66q62 0 101.5 -42t39.5 -104q0 -85 -56 -150.5t-136 -65.5zM237 401q51 0 88 49t37 107
q0 44 -22.5 70t-61.5 26q-51 0 -88 -49t-37 -107q0 -44 22 -70t62 -26zM608 48q51 0 88 49t37 107q0 44 -22.5 70t-61.5 26q-51 0 -88 -49t-37 -108q0 -43 22.5 -69t61.5 -26zM777 653l-622 -641q-17 -17 -31 -17q-11 0 -19 7.5t-8 19.5q0 11 13 26l622 640q15 17 30 17
q27 0 27 -26q0 -14 -12 -26z" />
    <glyph glyph-name="ampersand" unicode="&#x26;" horiz-adv-x="692" 
d="M332 418q177 49 177 139q0 40 -27.5 65t-73.5 25q-49 0 -83 -34t-34 -82q0 -51 41 -113zM244 58q101 0 197 88l-145 205q-95 -25 -142 -71.5t-47 -104.5q0 -54 37 -85.5t100 -31.5zM542 9l-61 87q-115 -106 -246 -106q-90 0 -148 48t-58 131q0 80 58.5 140t173.5 92
q-44 74 -44 130q0 76 56 128.5t138 52.5q78 0 125 -42t47 -109q0 -131 -216 -193l125 -175q50 57 92 125q14 23 32 23q13 0 22 -8t9 -21t-8 -24q-54 -86 -107 -144l65 -92q12 -17 12 -28q0 -15 -9.5 -24.5t-25.5 -9.5q-18 0 -32 19z" />
    <glyph glyph-name="quotesingle" unicode="'" horiz-adv-x="245" 
d="M151 444q-10 -20 -27 -20q-24 0 -16 27l73 218q12 34 45 34h17q19 0 24.5 -13.5t-4.5 -31.5z" />
    <glyph glyph-name="parenleft" unicode="(" horiz-adv-x="434" 
d="M296 -78q11 -14 11 -27t-9.5 -22t-23.5 -9q-15 0 -28 11q-158 151 -158 341q0 153 95.5 282t275.5 209q14 6 22 6q13 0 22 -8.5t9 -22.5q0 -21 -21 -32q-157 -72 -240.5 -185.5t-83.5 -246.5q0 -92 34 -160.5t95 -135.5z" />
    <glyph glyph-name="parenright" unicode=")" horiz-adv-x="434" 
d="M154 655q-11 14 -11 26q0 14 9.5 23t23.5 9q15 0 28 -11q158 -151 158 -341q0 -153 -95.5 -282.5t-275.5 -209.5q-17 -5 -22 -5q-13 0 -22 9t-9 22q0 21 21 32q157 72 240 185.5t83 246.5q0 92 -34 160.5t-94 135.5z" />
    <glyph glyph-name="asterisk" unicode="*" horiz-adv-x="430" 
d="M294 519l-18 -99q-3 -23 -25 -23q-14 0 -20.5 10t-1.5 23l35 97l-95 -34q-9 -4 -18 -4t-16 6.5t-7 16.5q-2 22 24 27l105 18l-81 67q-13 11 -13 23q0 10 7 17.5t17 7.5q14 0 23 -11l68 -81l18 97q5 26 26 26q14 0 20 -10t1 -25l-35 -96l95 34q8 4 19 4q9 0 15 -7t6 -17
q0 -23 -23 -26l-105 -18l80 -67q14 -11 14 -23q0 -10 -7.5 -17.5t-17.5 -7.5q-13 0 -22 12z" />
    <glyph glyph-name="plus" unicode="+" horiz-adv-x="625" 
d="M366 316l-47 -172q-10 -38 -42 -38q-19 0 -27.5 13.5t-2.5 33.5l44 163h-166q-15 0 -25.5 10.5t-10.5 25.5t10.5 25.5t25.5 10.5h185l46 173q11 37 43 37q18 0 26.5 -13t3.5 -33l-44 -164h166q15 0 26 -10.5t11 -24.5q0 -15 -11 -26t-26 -11h-185z" />
    <glyph glyph-name="comma" unicode="," horiz-adv-x="255" 
d="M80 110q23 0 34.5 -16.5t4.5 -42.5l-8 -30q-15 -62 -55 -100q-33 -30 -80 -40q-11 -2 -17.5 3t-6.5 14q0 13 17 19q70 24 80 83q-14 3 -22.5 14t-4.5 29l7 26q5 18 18.5 29.5t32.5 11.5z" />
    <glyph glyph-name="hyphen" unicode="-" horiz-adv-x="410" 
d="M320 260h-208q-16 0 -28 12t-12 29q0 16 12 28t28 12h208q16 0 28 -12t12 -28q0 -17 -12 -29t-28 -12z" />
    <glyph glyph-name="period" unicode="." horiz-adv-x="255" 
d="M82 110q21 0 33.5 -14t6.5 -34l-7 -25q-5 -19 -19 -30.5t-34 -11.5q-21 0 -33 14t-7 34l7 25q11 42 53 42z" />
    <glyph glyph-name="slash" unicode="/" horiz-adv-x="508" 
d="M-85 -75l654 857q16 21 36 21q28 0 28 -28q0 -11 -13 -30l-654 -857q-16 -21 -36 -21q-28 0 -28 28q0 11 13 30z" />
    <glyph glyph-name="zero" unicode="0" horiz-adv-x="715" 
d="M322 -12q-115 0 -180 74.5t-65 195.5q0 83 27 164.5t74 145.5t116 104t147 40q115 0 180 -75t65 -195q0 -83 -27 -164.5t-74 -145.5t-116 -104t-147 -40zM327 60q74 0 139 57t101.5 145t36.5 180q0 88 -44.5 143t-124.5 55q-74 0 -138.5 -57t-101 -145t-36.5 -180
q0 -88 44 -143t124 -55z" />
    <glyph glyph-name="one" unicode="1" horiz-adv-x="361" 
d="M351 665l-170 -632q-9 -38 -43 -38q-19 0 -29 13.5t-4 35.5l155 577l-103 -32q-8 -3 -16 -3q-13 0 -22 9.5t-9 24.5q0 27 28 35l138 44q27 9 45 9h1q18 0 26 -12t3 -31z" />
    <glyph glyph-name="two" unicode="2" horiz-adv-x="595" 
d="M453 0h-429q-40 0 -40 34q0 22 19 35l392 297q61 46 89 84t28 81q0 48 -35.5 77.5t-97.5 29.5q-89 0 -172 -77q-16 -14 -30 -14q-15 0 -25.5 10t-10.5 25q0 18 15 31q106 97 226 97q94 0 153 -48.5t59 -125.5q0 -60 -36 -110.5t-114 -108.5l-323 -245h332
q16 0 26.5 -10.5t10.5 -25.5t-10.5 -25.5t-26.5 -10.5z" />
    <glyph glyph-name="three" unicode="3" horiz-adv-x="605" 
d="M22 94q-12 15 -12 30q0 16 11.5 27t26.5 11t29 -16q60 -86 175 -86q83 0 138 44t55 111q0 59 -48 89t-133 30h-11q-33 0 -33 29q0 15 16 28l269 238h-303q-15 0 -25.5 10t-10.5 25t10.5 25.5t25.5 10.5h392q36 0 36 -30q0 -20 -24 -39l-271 -238q84 -7 138 -51.5
t54 -120.5q0 -100 -81.5 -166.5t-197.5 -66.5q-155 0 -226 106z" />
    <glyph glyph-name="four" unicode="4" horiz-adv-x="649" 
d="M129 232h288l96 357zM475 166l-35 -133q-11 -38 -43 -38q-18 0 -27.5 13.5t-3.5 35.5l33 122h-338q-41 0 -41 32q0 21 21 42l481 445q28 25 55 25q19 0 28 -12.5t4 -31.5l-116 -434h70q14 0 24 -9.5t10 -23.5t-10 -23.5t-24 -9.5h-88z" />
    <glyph glyph-name="five" unicode="5" horiz-adv-x="603" 
d="M35 81q-16 18 -16 36q0 15 10.5 25.5t26.5 10.5q18 0 31 -15q65 -79 170 -79q89 0 146 51t57 121q0 62 -43 98t-113 36q-54 0 -128 -29q-22 -7 -41 7q-22 16 -12 45l91 279q12 33 41 33h318q15 0 25.5 -10.5t10.5 -26.5q0 -15 -10.5 -25.5t-25.5 -10.5h-297l-74 -220
q56 27 120 27q100 0 160.5 -53.5t60.5 -143.5q0 -103 -81.5 -176t-210.5 -73q-128 0 -216 93z" />
    <glyph glyph-name="six" unicode="6" horiz-adv-x="641" 
d="M630 645q18 -13 18 -33q0 -16 -11 -27t-26 -11q-14 0 -27 11q-62 55 -142 55q-95 0 -169 -74q-42 -42 -71.5 -103.5t-36.5 -124.5q32 44 84.5 73t117.5 29q100 0 160.5 -57.5t60.5 -143.5q0 -102 -78.5 -176.5t-193.5 -74.5q-108 0 -170 64q-69 69 -69 194
q0 109 37.5 205t101.5 160q101 101 232 101q108 0 182 -67zM318 57q81 0 135 52t54 124q0 57 -40.5 98t-114.5 41q-84 0 -138.5 -50.5t-54.5 -117.5q0 -64 41 -103q43 -44 118 -44z" />
    <glyph glyph-name="seven" unicode="7" horiz-adv-x="586" 
d="M611 630l-443 -608q-20 -27 -44 -27q-15 0 -24 8.5t-9 22.5q0 16 13 35l418 567h-339q-15 0 -25.5 10t-10.5 26q0 15 10.5 25.5t25.5 10.5h412q34 0 34 -29q0 -19 -18 -41z" />
    <glyph glyph-name="eight" unicode="8" horiz-adv-x="647" 
d="M296 -10q-112 0 -185 53.5t-73 133.5t56.5 130t147.5 66q-45 18 -73 56.5t-28 88.5q0 80 71.5 136t181.5 56q104 0 170 -51t66 -130q0 -69 -48.5 -117t-124.5 -64q50 -18 84.5 -59t34.5 -96q0 -86 -79 -144.5t-201 -58.5zM376 390q81 0 128.5 39t47.5 92t-44 87t-116 34
q-76 0 -124.5 -37.5t-48.5 -93.5q0 -52 44 -86.5t113 -34.5zM301 58q87 0 140.5 38.5t54.5 100.5q0 53 -50.5 90.5t-131.5 37.5q-88 0 -142 -41t-54 -99q-1 -56 49.5 -91.5t133.5 -35.5z" />
    <glyph glyph-name="nine" unicode="9" horiz-adv-x="641" 
d="M243 -13q-108 0 -188 72q-19 16 -19 35q0 16 10.5 26.5t25.5 10.5q14 0 28 -10q64 -62 147 -62q94 0 169 75q42 41 71 101t36 122q-31 -44 -83 -75t-120 -31q-100 0 -160.5 58.5t-60.5 146.5q1 105 79.5 180t194.5 75q105 0 170 -63q69 -71 69 -199q0 -107 -38 -202
t-102 -159q-103 -101 -229 -101zM338 320q82 0 136.5 53t54.5 123q0 62 -40 102q-45 45 -118 45q-82 0 -136 -53.5t-54 -127.5q-1 -59 40 -100.5t117 -41.5z" />
    <glyph glyph-name="colon" unicode=":" horiz-adv-x="262" 
d="M85 110q21 0 33.5 -14t6.5 -34l-7 -25q-5 -19 -19 -30.5t-34 -11.5q-21 0 -33 14t-7 34l7 25q11 42 53 42zM196 522q21 0 33.5 -14t6.5 -34l-7 -25q-5 -19 -19 -30.5t-34 -11.5q-21 0 -33 14t-7 34l7 25q11 42 53 42z" />
    <glyph glyph-name="semicolon" unicode=";" horiz-adv-x="262" 
d="M196 522q21 0 33.5 -14t6.5 -34l-7 -25q-5 -19 -19 -30.5t-34 -11.5q-21 0 -33 14t-7 34l7 25q11 42 53 42zM84 110q23 0 34.5 -16.5t4.5 -42.5l-8 -30q-15 -62 -55 -100q-33 -30 -80 -40q-11 -2 -17.5 3t-6.5 14q0 13 17 19q70 24 80 83q-14 3 -22.5 14t-4.5 29l7 26
q5 18 18.5 29.5t32.5 11.5z" />
    <glyph glyph-name="less" unicode="&#x3c;" horiz-adv-x="625" 
d="M122 395l443 198q12 6 27 6q13 0 21.5 -8.5t8.5 -21.5q0 -25 -25 -35l-425 -187l311 -179q22 -12 22 -33q0 -15 -10 -25.5t-25 -10.5q-10 0 -24 7l-330 193q-32 18 -32 44v3q0 34 38 49z" />
    <glyph glyph-name="equal" unicode="=" horiz-adv-x="625" 
d="M110 198q-16 0 -27 10.5t-11 26.5q0 15 11 26t27 11h393q15 0 26 -11t11 -26q0 -16 -11 -26.5t-26 -10.5h-393zM173 432q-16 0 -27 10.5t-11 26.5q0 15 11 26t27 11h393q15 0 26 -11t11 -26q0 -16 -11 -26.5t-26 -10.5h-393z" />
    <glyph glyph-name="greater" unicode="&#x3e;" horiz-adv-x="625" 
d="M552 309l-443 -198q-12 -6 -27 -6q-13 0 -21.5 8.5t-8.5 21.5q0 25 25 35l425 187l-311 179q-22 12 -22 33q0 15 10 25.5t25 10.5q10 0 24 -7l330 -193q32 -19 32 -44v-3q0 -34 -38 -49z" />
    <glyph glyph-name="question" unicode="?" horiz-adv-x="537" 
d="M164 573q-18 -12 -30 -12q-14 0 -23.5 9.5t-9.5 22.5q0 17 15 30q96 86 219 86q94 0 150.5 -50.5t56.5 -126.5q0 -93 -72 -150t-190 -74l-32 -91q-10 -24 -30 -24h-2q-12 0 -18.5 8.5t-4.5 21.5l20 113q4 27 35 31q96 11 154 52t58 107q0 52 -37 81.5t-96 29.5
q-84 0 -163 -64zM186 110q21 0 33.5 -14t6.5 -34l-7 -25q-5 -19 -19 -30.5t-34 -11.5q-21 0 -33 14t-7 34l7 25q11 42 53 42z" />
    <glyph glyph-name="at" unicode="@" horiz-adv-x="980" 
d="M449 131q70 0 129 59.5t59 134.5q0 52 -32 84.5t-85 32.5q-71 0 -122.5 -59t-51.5 -141q0 -52 28.5 -81.5t74.5 -29.5zM692 -116q-98 -43 -210 -43q-189 0 -304 107.5t-115 283.5q0 127 65.5 237.5t178.5 177t246 66.5q181 0 288 -100.5t107 -250.5q0 -136 -66.5 -213.5
t-148.5 -77.5q-52 0 -84 25t-41 69q-79 -96 -179 -96q-68 0 -113.5 45t-45.5 122q0 110 76 189t170 79q107 0 147 -98l19 61q10 31 37 31q16 0 25.5 -12.5t3.5 -31.5l-69 -221q-17 -53 1 -87.5t65 -34.5q59 0 112.5 67t53.5 184q0 135 -97.5 226t-260.5 91q-122 0 -227 -62
t-165.5 -165t-60.5 -220q0 -160 105 -258.5t277 -98.5q106 0 194 39q6 3 12 3q16 0 16 -17q0 -10 -12 -16z" />
    <glyph glyph-name="A" unicode="A" horiz-adv-x="747" 
d="M228 257h322l-65 358zM551 670l116 -615q3 -18 3 -22q0 -15 -11 -26.5t-29 -11.5q-33 0 -40 35l-27 155h-385l-118 -163q-21 -27 -41 -27q-14 0 -23.5 9t-9.5 24q0 14 9 25l450 621q25 34 58 34h2q37 0 46 -38z" />
    <glyph glyph-name="B" unicode="B" horiz-adv-x="717" 
d="M212 388h199q94 0 149.5 38t55.5 101q0 49 -37 75.5t-106 26.5h-196zM127 71h234q95 0 150 37.5t55 102.5q0 52 -44 79.5t-117 27.5h-212zM352 0h-277q-19 0 -29 13t-4 33l165 614q5 18 17 29t28 11h228q102 0 159.5 -44t57.5 -119q0 -72 -48.5 -120t-126.5 -64
q124 -38 124 -145q0 -92 -79 -150t-215 -58z" />
    <glyph glyph-name="C" unicode="C" horiz-adv-x="735" 
d="M635 84q-106 -97 -252 -97q-127 0 -212.5 79t-85.5 211q0 112 56 212t153.5 161.5t210.5 61.5q158 0 239 -114q14 -18 14 -34q-1 -16 -12 -27.5t-28 -10.5q-21 0 -30 14q-33 47 -76.5 73t-113.5 26q-134 0 -232 -109t-98 -250q0 -100 61 -159.5t158 -59.5
q61 0 106.5 19.5t91.5 59.5q15 11 28 11q16 0 26.5 -11t10.5 -26t-15 -30z" />
    <glyph glyph-name="D" unicode="D" horiz-adv-x="773" 
d="M129 73h148q179 0 289 110q88 88 88 218q0 98 -59 155q-71 71 -213 71h-104zM252 700h135q178 0 273 -93q76 -76 76 -201q0 -161 -110 -273q-133 -133 -359 -133h-192q-19 0 -29 13t-4 33l165 614q5 18 17 29t28 11z" />
    <glyph glyph-name="E" unicode="E" horiz-adv-x="653" 
d="M513 0h-438q-19 0 -29 13t-4 33l165 614q5 18 17 29t28 11h425q15 0 25.5 -10.5t10.5 -25.5t-10.5 -25.5t-25.5 -10.5h-400l-64 -239h335q15 0 25.5 -11t10.5 -25q0 -15 -10.5 -25.5t-25.5 -10.5h-354l-66 -245h385q15 0 25.5 -10.5t10.5 -25.5t-10.5 -25.5t-25.5 -10.5z
" />
    <glyph glyph-name="F" unicode="F" horiz-adv-x="658" 
d="M252 700h427q15 0 26 -10.5t11 -25.5t-11 -26t-26 -11h-402l-67 -250h337q15 0 26 -10.5t11 -25.5t-11 -25.5t-26 -10.5h-356l-72 -270q-5 -18 -18 -29t-28 -11q-18 0 -28 13t-4 33l166 619q5 18 17 29t28 11z" />
    <glyph glyph-name="G" unicode="G" horiz-adv-x="784" 
d="M721 327l-68 -236q-7 -30 -35 -46q-101 -58 -222 -58q-132 0 -221 80.5t-89 217.5q0 108 55.5 206t155.5 159.5t219 61.5q156 0 240 -97q15 -15 15 -33q0 -16 -10.5 -27.5t-27.5 -11.5q-15 0 -28 13q-69 84 -196 84q-94 0 -173 -51t-123 -132t-44 -169q0 -106 64 -167
t168 -61q102 0 181 49l55 194h-175q-15 0 -25.5 10.5t-10.5 24.5q0 15 10.5 25.5t25.5 10.5h225q19 0 29 -13.5t5 -33.5z" />
    <glyph glyph-name="H" unicode="H" horiz-adv-x="756" 
d="M764 656l-168 -623q-10 -38 -43 -38q-19 0 -29 13.5t-4 35.5l73 271h-399l-76 -282q-11 -38 -44 -38q-19 0 -29 13.5t-4 35.5l168 623q9 38 43 38q19 0 29 -13.5t4 -35.5l-71 -267h399l74 278q11 38 44 38q19 0 29 -13.5t4 -35.5z" />
    <glyph glyph-name="I" unicode="I" horiz-adv-x="291" 
d="M292 656l-167 -623q-11 -38 -44 -38q-19 0 -29 13.5t-4 35.5l168 623q10 38 43 38q19 0 29 -13.5t4 -35.5z" />
    <glyph glyph-name="J" unicode="J" horiz-adv-x="548" 
d="M572 656l-109 -409q-35 -128 -96 -189q-68 -68 -173 -68q-130 0 -190 116q-10 13 -10 29t11 26.5t26 10.5q21 0 33 -20q39 -89 131 -89q69 0 119 48q45 46 73 151l109 405q10 38 44 38q19 0 28.5 -13.5t3.5 -35.5z" />
    <glyph glyph-name="K" unicode="K" horiz-adv-x="715" 
d="M157 179l-39 -146q-11 -38 -44 -38q-19 0 -29 13.5t-4 35.5l168 623q9 38 43 38q19 0 29 -13.5t4 -35.5l-99 -372l496 406q17 15 33 15t26 -10.5t10 -25.5q0 -18 -16 -31l-308 -249l172 -329q8 -18 8 -28q0 -15 -12 -26t-27 -11q-29 0 -41 28l-166 321z" />
    <glyph glyph-name="L" unicode="L" horiz-adv-x="607" 
d="M481 0h-406q-19 0 -29 13t-4 33l167 621q9 38 43 38q19 0 29 -13.5t4 -35.5l-156 -583h352q15 0 25.5 -11t10.5 -26t-10.5 -25.5t-25.5 -10.5z" />
    <glyph glyph-name="M" unicode="M" horiz-adv-x="869" 
d="M838 703h4q21 0 30.5 -13.5t2.5 -36.5l-166 -620q-4 -18 -16.5 -28t-28.5 -10q-19 0 -28.5 13.5t-3.5 35.5l137 512l-306 -322q-21 -23 -41 -23q-22 0 -33 26l-132 319l-140 -522q-10 -39 -44 -39q-19 0 -28.5 13.5t-3.5 35.5l166 617q11 42 45 42h3q28 0 41 -31
l147 -366l341 369q25 28 54 28z" />
    <glyph glyph-name="N" unicode="N" horiz-adv-x="786" 
d="M576 132l144 535q10 38 43 38q19 0 28.5 -13.5t2.5 -35.5l-167 -624q-10 -35 -40 -35h-2q-28 0 -43 31l-279 553l-147 -548q-11 -38 -43 -38q-19 0 -28.5 13.5t-3.5 35.5l167 620q10 39 46 39h4q31 0 49 -35z" />
    <glyph glyph-name="O" unicode="O" horiz-adv-x="842" 
d="M395 -13q-134 0 -220.5 87t-86.5 217q0 108 53 204.5t148 156.5t207 60q134 0 220.5 -87t86.5 -216q0 -108 -53 -205t-148 -157t-207 -60zM400 60q89 0 163.5 50t115.5 129.5t41 166.5q0 101 -63 167t-166 66q-89 0 -163.5 -50t-115.5 -129.5t-41 -166.5q0 -101 63 -167
t166 -66z" />
    <glyph glyph-name="P" unicode="P" horiz-adv-x="667" 
d="M176 249l-58 -216q-11 -38 -44 -38q-19 0 -29 13.5t-4 35.5l166 616q5 18 17 29t28 11h185q134 0 200 -65q50 -52 50 -130q0 -120 -94 -188t-251 -68h-166zM195 319h151q124 0 191.5 47.5t67.5 133.5q0 51 -32 83q-44 44 -139 44h-157z" />
    <glyph glyph-name="Q" unicode="Q" horiz-adv-x="842" 
d="M532 262l85 -105q103 105 103 249q0 101 -63 167t-166 66q-89 0 -163.5 -50t-115.5 -129.5t-41 -166.5q0 -101 63 -167t166 -66q89 0 162 51l-83 95q-16 20 -16 34q0 17 10.5 28t26.5 11q20 0 32 -17zM654 -4l-47 57q-98 -66 -212 -66q-134 0 -220.5 87t-86.5 217
q0 108 53 204.5t148 156.5t207 60q134 0 220.5 -87t86.5 -216q0 -88 -37 -170t-102 -143l45 -49q16 -18 16 -33t-10.5 -25.5t-27.5 -10.5q-20 0 -33 18z" />
    <glyph glyph-name="R" unicode="R" horiz-adv-x="717" 
d="M182 272l-64 -239q-11 -38 -44 -38q-19 0 -29 13.5t-4 35.5l166 616q5 18 17 29t28 11h218q131 0 197 -64q46 -48 46 -121q0 -88 -62 -152q-64 -64 -192 -83l120 -219q10 -17 10 -29q0 -16 -12 -26.5t-28 -10.5q-28 0 -42 26l-135 251h-190zM201 343h190q135 0 199 64
q42 44 42 102q0 47 -29 76q-42 42 -137 42h-188z" />
    <glyph glyph-name="S" unicode="S" horiz-adv-x="637" 
d="M303 61q76 0 126.5 37t50.5 94q0 40 -31.5 68.5t-112.5 59.5q-103 41 -147.5 81.5t-44.5 105.5q0 87 72.5 145t185.5 58q129 0 221 -80q18 -14 18 -33q0 -16 -11.5 -27t-27.5 -11q-15 0 -28 10q-73 70 -179 70q-76 0 -122 -36.5t-46 -86.5q0 -41 34 -68t121 -61
q94 -36 137.5 -78t43.5 -107q0 -92 -76 -152t-189 -60q-165 0 -262 104q-15 15 -15 33q0 17 10.5 28.5t26.5 11.5q18 0 30 -14q84 -92 215 -92z" />
    <glyph glyph-name="T" unicode="T" horiz-adv-x="616" 
d="M443 627l-159 -594q-11 -38 -44 -38q-19 0 -29 13.5t-4 35.5l157 583h-193q-15 0 -26 10.5t-11 25.5t11 26t26 11h485q15 0 26 -11t11 -26t-11 -25.5t-26 -10.5h-213z" />
    <glyph glyph-name="U" unicode="U" horiz-adv-x="758" 
d="M775 656l-100 -373q-36 -133 -110 -207q-87 -87 -218 -87q-122 0 -188.5 61.5t-66.5 162.5q0 55 15 109l92 345q9 38 43 38q19 0 29 -13.5t4 -35.5l-94 -355q-10 -42 -10 -79q0 -72 46.5 -116t136.5 -44q91 0 156 64q61 63 89 171l100 370q9 38 43 38q19 0 29 -13.5
t4 -35.5z" />
    <glyph glyph-name="V" unicode="V" horiz-adv-x="717" 
d="M772 647l-432 -619q-24 -36 -55 -36h-4q-32 0 -39 37l-99 618q-3 9 -3 21q0 16 11.5 26.5t29.5 10.5q37 0 42 -38l84 -569l397 579q17 28 43 28q15 0 25 -8t10 -22q0 -15 -10 -28z" />
    <glyph glyph-name="W" unicode="W" horiz-adv-x="1083" 
d="M1136 648l-391 -621q-21 -36 -51 -36h-4q-34 0 -36 38l-37 531l-323 -533q-22 -36 -51 -36h-4q-33 0 -36 38l-57 617q0 2 -0.5 10t-0.5 10q0 16 12 27.5t29 11.5q38 0 41 -37l44 -551l332 559q17 29 44 29h3q33 0 35 -32l35 -556l344 559q18 29 45 29q15 0 25 -9t10 -23
q0 -11 -8 -25z" />
    <glyph glyph-name="X" unicode="X" horiz-adv-x="694" 
d="M422 351l156 -288q10 -17 10 -31q0 -15 -11 -26t-27 -11q-26 0 -39 27l-146 278l-283 -282q-23 -23 -41 -23q-14 0 -24 9.5t-10 24.5q0 19 15 32l304 301l-150 275q-10 17 -10 31q0 15 11 26t27 11q26 0 39 -27l142 -266l269 270q21 23 41 23q14 0 24 -9.5t10 -24.5
q0 -17 -15 -31z" />
    <glyph glyph-name="Y" unicode="Y" horiz-adv-x="663" 
d="M367 267l-62 -234q-11 -38 -44 -38q-19 0 -29 13.5t-4 35.5l63 236l-155 358q-7 16 -7 29q0 16 11.5 27t29.5 11q27 0 40 -33l136 -326l321 337q22 22 43 22q15 0 24.5 -9t9.5 -24q0 -18 -16 -34z" />
    <glyph glyph-name="Z" unicode="Z" horiz-adv-x="669" 
d="M13 70l579 559h-386q-14 0 -24.5 10.5t-10.5 24.5q0 15 10.5 25.5t24.5 10.5h478q32 0 32 -29v-1q0 -19 -21 -40l-579 -559h404q15 0 25.5 -10.5t10.5 -24.5q0 -15 -10.5 -25.5t-25.5 -10.5h-496q-32 0 -32 29v1q0 19 21 40z" />
    <glyph glyph-name="bracketleft" unicode="[" horiz-adv-x="439" 
d="M484 640h-196l-190 -710h180q12 0 21 -9t9 -21t-9 -21t-21 -9h-223q-19 0 -29 12.5t-6 30.5l201 747q10 40 50 40h213q12 0 21 -9t9 -21t-9 -21t-21 -9z" />
    <glyph glyph-name="backslash" unicode="\" horiz-adv-x="508" 
d="M211 771l201 -851q3 -21 3 -22q0 -13 -9 -22t-22 -9q-27 0 -33 32l-201 851q-3 21 -3 22q0 13 9 22t22 9q27 0 33 -32z" />
    <glyph glyph-name="bracketright" unicode="]" horiz-adv-x="439" 
d="M182 -130h-213q-13 0 -21.5 9t-8.5 21t8.5 21t21.5 9h196l190 710h-180q-12 0 -21 9t-9 21t9 21t21 9h223q19 0 29 -12.5t5 -30.5l-200 -747q-10 -40 -50 -40z" />
    <glyph glyph-name="asciicircum" unicode="^" horiz-adv-x="500" 
d="M151 526l156 155q27 25 48 25h5q26 0 39 -26l75 -157q5 -13 5 -19q0 -15 -21 -15q-17 0 -25.5 5t-17.5 21l-65 132l-138 -133q-26 -25 -52 -25q-20 0 -20 16q0 11 11 21z" />
    <glyph glyph-name="underscore" unicode="_" horiz-adv-x="600" 
d="M-105 -160q-13 0 -22.5 9.5t-9.5 22.5t9.5 22t22.5 9h604q13 0 22.5 -9t9.5 -22q0 -14 -9.5 -23t-22.5 -9h-604z" />
    <glyph glyph-name="grave" unicode="`" horiz-adv-x="500" 
d="M351 609l-57 74q-9 13 -9 20q0 11 17 21t35 10q26 0 34 -24l35 -89q0 -1 1.5 -6t1.5 -8q0 -16 -22 -16t-36 18z" />
    <glyph glyph-name="a" unicode="a" horiz-adv-x="576" 
d="M207 49q67 0 126 43.5t77 110.5l10 36q-80 23 -168 23q-69 0 -112 -34t-43 -87q0 -41 30 -66.5t80 -25.5zM395 -5q-19 0 -26.5 11t-5.5 28l13 47q-80 -92 -193 -92q-69 0 -116.5 38.5t-47.5 104.5q0 86 64 136.5t166 50.5q84 0 184 -28l3 12q7 26 7 48q0 105 -140 105
q-57 0 -119 -18q-7 -3 -16 -3q-13 0 -22 9t-9 23q0 25 26 33q73 24 152 24q97 0 150 -42.5t53 -117.5q0 -33 -11 -71l-69 -260q-10 -38 -43 -38z" />
    <glyph glyph-name="b" unicode="b" 
d="M319 -12q-139 0 -194 128l-22 -83q-10 -38 -43 -38q-18 0 -27 13.5t-4 34.5l175 654q11 38 43 38q19 0 27.5 -13t3.5 -35l-70 -259q88 100 196 100q89 0 147 -60.5t58 -158.5q0 -135 -87 -228t-203 -93zM312 56q91 0 153.5 73t62.5 173q0 72 -40 115t-106 43
q-87 0 -158.5 -74.5t-71.5 -168.5q0 -68 45 -114.5t115 -46.5z" />
    <glyph glyph-name="c" unicode="c" horiz-adv-x="562" 
d="M463 59q-84 -71 -186 -71q-95 0 -162 61.5t-67 164.5q0 127 90.5 220.5t213.5 93.5q122 0 186 -91q13 -15 13 -31q0 -14 -10.5 -24.5t-25.5 -10.5q-19 0 -31 15q-50 74 -137 74q-88 0 -154 -73.5t-66 -170.5q0 -73 45 -116.5t109 -43.5q71 0 136 54q12 9 26 9t23 -9.5
t9 -23.5q0 -15 -12 -27z" />
    <glyph glyph-name="d" unicode="d" 
d="M277 56q87 0 158.5 75t71.5 169q0 68 -45 114t-115 46q-91 0 -153.5 -73t-62.5 -173q0 -71 40.5 -114.5t105.5 -43.5zM469 -5q-17 0 -26 10.5t-7 27.5l14 55q-87 -100 -195 -100q-89 0 -147 61t-58 158q0 135 87 228t203 93q141 0 194 -128l79 297q11 38 43 38
q19 0 27.5 -13t3.5 -35l-174 -654q-11 -38 -44 -38z" />
    <glyph glyph-name="e" unicode="e" horiz-adv-x="589" 
d="M136 290h333q5 15 5 40q0 57 -33 95t-96 38q-74 0 -130.5 -49.5t-78.5 -123.5zM281 55q80 0 140 48q14 8 26 8q13 0 22 -8.5t9 -22.5q0 -16 -15 -28q-80 -64 -186 -64q-103 0 -166 61t-63 159q0 123 87.5 221.5t213.5 98.5q94 0 147 -56.5t53 -141.5q0 -28 -7 -63
q-8 -35 -42 -35h-374q0 -4 -0.5 -12.5t-0.5 -12.5q1 -69 43.5 -110.5t112.5 -41.5z" />
    <glyph glyph-name="f" unicode="f" horiz-adv-x="375" 
d="M244 449l-112 -416q-10 -38 -43 -38q-18 0 -27 13.5t-4 34.5l109 406h-35q-13 1 -22.5 10.5t-9.5 23.5t10 24t24 10h51l17 62q40 153 177 153q39 0 73 -12q28 -9 28 -34q0 -18 -12.5 -28t-29.5 -4q-28 11 -59 11q-78 0 -104 -98l-13 -50h129q14 0 24 -10t10 -24t-10 -24
t-24 -10h-147z" />
    <glyph glyph-name="g" unicode="g" 
d="M287 106q87 0 154 64t67 144q0 60 -43.5 103t-115.5 43q-85 0 -149 -62t-64 -153q0 -66 44 -102.5t107 -36.5zM535 404l21 80q10 38 43 38q18 0 27 -13.5t4 -34.5l-106 -400q-30 -109 -84 -163q-73 -73 -200 -73t-228 72q-19 13 -19 33q0 14 9.5 24t24.5 10q13 0 26 -8
q86 -65 186 -65q94 0 145 53q41 40 65 124l14 52q-91 -93 -198 -93q-86 0 -148 53t-62 142q0 125 88.5 209t201.5 84q132 0 190 -124z" />
    <glyph glyph-name="h" unicode="h" horiz-adv-x="613" 
d="M542 288l-68 -255q-10 -38 -42 -38q-19 0 -28 13.5t-3 34.5l66 250q8 27 8 58q0 51 -31 79.5t-85 28.5q-60 0 -113.5 -47t-73.5 -120l-69 -259q-9 -38 -43 -38q-18 0 -27 13.5t-4 34.5l175 654q11 38 43 38q19 0 27.5 -13t3.5 -35l-68 -254q84 95 180 95q75 0 120 -43.5
t45 -116.5q0 -30 -13 -80z" />
    <glyph glyph-name="i" unicode="i" horiz-adv-x="264" 
d="M286 661q-9 -36 -51 -36q-20 0 -31.5 11t-7.5 28l5 21q10 35 51 35q20 0 31.5 -11t7.5 -28zM228 474l-118 -441q-11 -38 -43 -38q-19 0 -27.5 13t-3.5 35l118 441q11 38 43 38q19 0 28 -13.5t3 -34.5z" />
    <glyph glyph-name="j" unicode="j" horiz-adv-x="263" 
d="M228 474l-136 -508q-36 -129 -142 -129q-68 0 -68 36q0 16 10.5 25.5t26.5 7.5q18 -3 29 -3q50 0 69 69l137 512q11 38 43 38q19 0 28 -13.5t3 -34.5zM286 661q-9 -36 -51 -36q-20 0 -31.5 11t-7.5 28l5 21q10 35 51 35q20 0 31.5 -11t7.5 -28z" />
    <glyph glyph-name="k" unicode="k" horiz-adv-x="568" 
d="M278 687l-122 -457l348 278q16 14 31 14q14 0 23 -9t9 -23q0 -17 -16 -28l-217 -171l118 -232q9 -18 9 -28q0 -16 -11.5 -26t-27.5 -10q-26 0 -40 28l-113 220l-139 -110l-27 -100q-9 -38 -43 -38q-18 0 -27 13.5t-4 34.5l176 654q9 38 42 38q19 0 28 -13.5t3 -34.5z" />
    <glyph glyph-name="l" unicode="l" horiz-adv-x="264" 
d="M285 687l-175 -654q-11 -38 -43 -38q-19 0 -27.5 13t-3.5 35l175 654q11 38 43 38q19 0 28 -13.5t3 -34.5z" />
    <glyph glyph-name="m" unicode="m" horiz-adv-x="950" 
d="M385 43l66 250q8 27 8 58q0 50 -29 79t-79 29q-57 0 -108.5 -47.5t-70.5 -119.5l-69 -259q-9 -38 -43 -38q-18 0 -27 13.5t-4 34.5l118 441q9 38 43 38q17 0 26 -11t7 -27l-13 -51q41 46 80.5 70.5t91.5 24.5q61 0 98 -33.5t49 -83.5q76 117 208 117q70 0 114 -44
t44 -116q0 -17 -14 -80l-68 -255q-9 -38 -43 -38q-18 0 -27 13.5t-4 34.5l67 250q7 30 7 58q0 50 -28.5 79t-78.5 29q-57 0 -108.5 -47.5t-70.5 -119.5l-69 -259q-10 -38 -42 -38q-19 0 -28 13.5t-3 34.5z" />
    <glyph glyph-name="n" unicode="n" horiz-adv-x="613" 
d="M190 522q17 0 26 -11t7 -27l-13 -51q84 95 180 95q75 0 120 -43.5t45 -116.5q0 -30 -13 -80l-68 -255q-10 -38 -42 -38q-19 0 -28 13.5t-3 34.5l66 250q8 27 8 58q0 51 -31 79.5t-85 28.5q-60 0 -113.5 -47t-73.5 -120l-69 -259q-9 -38 -43 -38q-18 0 -27 13.5t-4 34.5
l118 441q9 38 43 38z" />
    <glyph glyph-name="o" unicode="o" horiz-adv-x="638" 
d="M284 -12q-105 0 -170 65t-65 167q0 122 90.5 215t213.5 93q106 0 171 -65t65 -166q0 -124 -91.5 -216.5t-213.5 -92.5zM289 57q87 0 154 72.5t67 164.5q0 78 -44.5 122t-117.5 44q-88 0 -154.5 -73.5t-66.5 -164.5q0 -77 44.5 -121t117.5 -44z" />
    <glyph glyph-name="p" unicode="p" 
d="M382 460q-87 0 -158.5 -74.5t-71.5 -168.5q0 -68 45 -114.5t115 -46.5q91 0 153.5 73t62.5 173q0 72 -40 115t-106 43zM190 522q17 0 26 -10.5t7 -27.5l-15 -56q88 100 196 100q89 0 147 -60.5t58 -158.5q0 -135 -87 -228t-203 -93q-139 0 -194 128l-65 -243
q-10 -38 -43 -38q-18 0 -27 13.5t-4 34.5l161 601q9 38 43 38z" />
    <glyph glyph-name="q" unicode="q" 
d="M340 528q74 0 122.5 -35.5t71.5 -91.5l22 83q10 38 43 38q18 0 27 -13.5t4 -34.5l-160 -601q-11 -38 -43 -38q-19 0 -27.5 13t-3.5 35l55 206q-90 -101 -196 -101q-89 0 -147 61t-58 158q0 135 87 228t203 93zM347 460q-91 0 -153.5 -73t-62.5 -173q0 -71 40.5 -114.5
t105.5 -43.5q87 0 158.5 75t71.5 169q0 68 -45 114t-115 46z" />
    <glyph glyph-name="r" unicode="r" horiz-adv-x="402" 
d="M221 477l-24 -92q41 64 96 101.5t107 37.5q17 0 27 -9.5t10 -26.5q0 -36 -44 -43q-83 -12 -149.5 -74t-94.5 -167l-46 -171q-11 -38 -43 -38q-19 0 -27.5 13t-3.5 35l118 441q9 38 42 38q19 0 28 -12.5t4 -32.5z" />
    <glyph glyph-name="s" unicode="s" horiz-adv-x="496" 
d="M224 53q46 0 80 24t34 62q0 26 -21.5 46.5t-76.5 41.5q-76 30 -111 60.5t-35 81.5q0 68 54 113.5t142 45.5q45 0 91 -16t76 -37q19 -11 19 -32q0 -14 -10 -24t-24 -10q-10 0 -22 8q-70 47 -137 47q-52 0 -82 -24t-30 -58q0 -26 21.5 -45.5t81.5 -42.5q74 -30 107.5 -62
t33.5 -80q0 -71 -57 -117t-141 -46q-113 0 -201 70q-16 13 -16 31q0 14 10 24.5t23 10.5q12 0 27 -11q75 -61 164 -61z" />
    <glyph glyph-name="t" unicode="t" horiz-adv-x="401" 
d="M183 517l33 123q10 38 43 38q18 0 27 -13.5t4 -34.5l-31 -113h124q14 0 23.5 -10t9.5 -24t-9.5 -24t-23.5 -10h-142l-80 -298q-4 -24 -4 -38q0 -53 71 -53q20 0 33 4q16 4 26.5 -4t10.5 -24q0 -22 -25 -34q-31 -11 -70 -11q-58 0 -92.5 26.5t-34.5 75.5q0 26 7 54l81 302
h-35q-13 1 -22.5 10.5t-9.5 23.5t10 24t24 10h52z" />
    <glyph glyph-name="u" unicode="u" horiz-adv-x="613" 
d="M422 -5q-16 0 -25 11t-7 27l13 51q-84 -95 -181 -95q-75 0 -119.5 43.5t-44.5 116.5q0 30 13 80l67 255q11 38 43 38q19 0 27.5 -13t3.5 -35l-67 -250q-7 -30 -7 -58q0 -51 30.5 -79.5t84.5 -28.5q61 0 114.5 47.5t72.5 120.5l69 258q11 38 43 38q19 0 28 -13.5t3 -34.5
l-117 -441q-10 -38 -44 -38z" />
    <glyph glyph-name="v" unicode="v" horiz-adv-x="566" 
d="M568 464l-310 -440q-22 -32 -50 -32h-2q-34 0 -39 34l-74 435q-3 9 -3 23q0 16 11.5 27t28.5 11t27 -10t12 -27l58 -397l274 406q17 28 42 28q15 0 24 -9t9 -22q0 -16 -8 -27z" />
    <glyph glyph-name="w" unicode="w" horiz-adv-x="848" 
d="M135 31l-38 432q0 2 -0.5 9.5t-0.5 10.5q0 16 11.5 27.5t28.5 11.5q36 0 38 -37l27 -380l234 387q19 30 45 30h3q32 0 34 -33l27 -384l239 391q15 26 38 26q32 0 32 -30q0 -13 -8 -25l-276 -443q-21 -32 -48 -32h-2q-35 0 -38 39l-28 373l-232 -380q-19 -32 -48 -32h-2
q-34 0 -36 39z" />
    <glyph glyph-name="x" unicode="x" horiz-adv-x="564" 
d="M201 494l93 -177l190 183q22 22 40 22q14 0 23 -9t9 -22q0 -19 -18 -35l-210 -194l111 -200q10 -20 10 -32q0 -15 -10.5 -25t-26.5 -10q-25 0 -38 28l-99 190l-203 -196q-24 -22 -41 -22q-13 0 -22 9t-9 22q0 18 18 35l224 207l-106 187q-10 18 -10 32q0 15 10.5 25
t26.5 10q23 0 38 -28z" />
    <glyph glyph-name="y" unicode="y" horiz-adv-x="574" 
d="M-17 -79q35 -16 65 -16q65 0 133 96l-87 460q-3 11 -3 23q0 16 11 27t27 11t26.5 -10t12.5 -27l71 -400l267 409q16 28 41 28q16 0 25 -9t9 -23q0 -13 -9 -28l-322 -479q-54 -79 -103.5 -112.5t-107.5 -33.5q-46 0 -86 20q-23 11 -23 34q0 15 9.5 25t23.5 10q8 0 20 -5z
" />
    <glyph glyph-name="z" unicode="z" horiz-adv-x="549" 
d="M152 517h367q34 0 34 -28v-1q0 -19 -17 -33l-428 -390h300q13 0 23 -9.5t10 -22.5t-9.5 -23t-23.5 -10h-383q-34 0 -34 28v1q0 18 17 33l427 390h-283q-14 0 -23.5 9.5t-9.5 22.5q0 14 9.5 23.5t23.5 9.5z" />
    <glyph glyph-name="braceleft" unicode="{" horiz-adv-x="483" 
d="M95 317h10q74 0 107.5 38.5t51.5 136.5q19 106 75.5 159t174.5 63q34 2 34 -27q0 -26 -27 -29q-90 -9 -130.5 -51t-55.5 -128q-18 -103 -52.5 -144.5t-103.5 -52.5q73 -18 73 -84q0 -30 -11 -63q-21 -63 -21 -103q0 -85 90 -116q21 -9 21 -27q0 -14 -10.5 -22t-26.5 -4
q-149 38 -149 159q0 37 23 111q10 31 10 59q0 32 -18.5 48t-62.5 17h-1q-35 4 -35 30q0 13 9.5 21.5t24.5 8.5z" />
    <glyph glyph-name="bar" unicode="|" horiz-adv-x="303" 
d="M139 -100v870q0 14 9.5 23.5t22.5 9.5t22.5 -9.5t9.5 -23.5v-870q0 -14 -9.5 -23.5t-22.5 -9.5t-22.5 9.5t-9.5 23.5z" />
    <glyph glyph-name="braceright" unicode="}" horiz-adv-x="483" 
d="M403 257h-10q-74 0 -108 -38t-52 -137q-18 -106 -74.5 -159t-174.5 -63q-34 -2 -34 27q0 26 27 29q90 9 130.5 51t55.5 128q18 103 52.5 144.5t103.5 52.5q-74 18 -74 84q0 27 12 63q21 70 21 103q0 85 -90 116q-22 9 -22 27q0 14 10.5 22t27.5 4q148 -38 148 -159
q0 -35 -22 -111q-11 -35 -11 -59q0 -31 19 -47t63 -18h1q35 -4 35 -30q0 -13 -9.5 -21.5t-24.5 -8.5z" />
    <glyph glyph-name="asciitilde" unicode="~" horiz-adv-x="474" 
d="M110 237q-10 0 -18 6.5t-8 17.5q0 12 7 23q46 82 105 82q34 0 70 -33q19 -18 28 -23.5t21 -5.5q24 0 53 43q12 18 26 18q11 0 19 -6.5t8 -17.5t-7 -24q-48 -81 -105 -81q-21 0 -35 7.5t-35 25.5q-32 29 -49 29q-24 0 -53 -44q-11 -17 -27 -17z" />
    <glyph glyph-name="uni00A0" unicode="&#xa0;" horiz-adv-x="300" 
 />
    <glyph glyph-name="exclamdown" unicode="&#xa1;" horiz-adv-x="271" 
d="M30 31l144 455q7 20 24 20q25 0 20 -28l-100 -451q-5 -30 -35 -30h-30q-15 0 -21.5 9.5t-1.5 24.5zM230 590q-21 0 -33.5 14t-6.5 34l7 25q5 19 19 30.5t34 11.5q21 0 33 -14t7 -34l-7 -25q-11 -42 -53 -42z" />
    <glyph glyph-name="cent" unicode="&#xa2;" horiz-adv-x="566" 
d="M501 152q-82 -68 -193 -68q-16 0 -46 4l-27 -68q-13 -31 -36 -31q-16 0 -23.5 12.5t-1.5 28.5l29 75q-60 27 -95 80.5t-35 123.5q0 130 90 223t218 93q18 0 27 -1l21 56q13 31 36 31q16 0 24 -12t1 -29l-23 -58q71 -20 111 -80q12 -16 12 -29q0 -15 -10.5 -25.5
t-25.5 -10.5q-19 0 -30 14q-18 26 -36.5 41t-49.5 24l-154 -391q8 -2 26 -2q78 0 148 53q13 8 26 8q14 0 23 -10t9 -24q0 -17 -15 -28zM151 310q0 -47 21.5 -83.5t59.5 -55.5l151 385h-10q-92 -2 -157 -75t-65 -171z" />
    <glyph glyph-name="sterling" unicode="&#xa3;" horiz-adv-x="629" 
d="M453 635q-63 0 -107 -44q-41 -41 -62 -120l-29 -107h240q14 0 24.5 -10.5t10.5 -24.5t-10.5 -24t-24.5 -10h-259l-60 -225h314q15 0 25.5 -10.5t10.5 -24.5q0 -15 -10.5 -25t-25.5 -10h-466q-11 0 -18.5 7t-7.5 18q0 20 22 26l77 17l61 227h-44q-14 0 -24.5 10t-10.5 24
t10.5 24.5t24.5 10.5h62l33 121q27 103 80 154q67 69 169 69q106 0 169 -77q16 -18 16 -33q0 -17 -11 -28.5t-28 -11.5q-18 0 -29 14q-49 63 -122 63z" />
    <glyph glyph-name="yen" unicode="&#xa5;" horiz-adv-x="703" 
d="M372 356l314 327q22 22 39 22q15 0 24 -9t9 -24t-15 -34l-306 -310h139q13 0 22 -9t9 -22t-9 -22t-22 -9h-188l-23 -88h171q13 0 22 -9t9 -22t-9 -22t-22 -9h-188l-22 -83q-10 -38 -42 -38q-19 0 -29 13t-4 35l20 73h-168q-13 0 -22.5 9t-9.5 22t9.5 22t22.5 9h184l23 88
h-168q-12 0 -21.5 9t-9.5 22t9.5 22t21.5 9h159l-136 311q-7 16 -7 28q0 16 11 27t28 11q29 0 40 -30z" />
    <glyph glyph-name="section" unicode="&#xa7;" horiz-adv-x="632" 
d="M394 257q52 0 88 23t36 55q0 27 -27.5 47t-92.5 41q-64 21 -113 21q-52 0 -88 -23t-36 -55q0 -27 27.5 -47t92.5 -41q60 -21 113 -21zM294 54q46 0 77 18.5t31 48.5q0 27 -29 46.5t-100 43.5q-98 33 -143 64.5t-45 80.5q0 55 50 90t131 39q-66 36 -66 93q0 60 55.5 96.5
t138.5 36.5q112 0 199 -64q17 -12 17 -31q0 -15 -10 -25.5t-25 -10.5q-12 0 -23 9q-77 58 -166 58q-47 0 -78 -18.5t-31 -48.5q0 -27 29.5 -47t99.5 -43q98 -33 143 -64.5t45 -80.5q0 -55 -50 -90t-131 -39q66 -35 66 -93q0 -59 -55.5 -96t-136.5 -37q-121 0 -208 68
q-15 13 -15 30q0 15 10 25.5t24 10.5q12 0 25 -9q76 -61 171 -61z" />
    <glyph glyph-name="dieresis" unicode="&#xa8;" horiz-adv-x="500" 
d="M266 697q20 0 32 -13t7 -31l-7 -25q-10 -39 -52 -39q-20 0 -31.5 12.5t-7.5 31.5l7 25q10 39 52 39zM443 697q20 0 32 -13t7 -31l-7 -25q-10 -39 -52 -39q-20 0 -31.5 12.5t-7.5 31.5l7 25q10 39 52 39z" />
    <glyph glyph-name="copyright" unicode="&#xa9;" horiz-adv-x="830" 
d="M438 -12q-151 0 -256 106t-105 255t106 256t257 107t256 -106t105 -255t-106 -256t-257 -107zM438 19q140 0 235 97t95 235t-94.5 234t-233.5 96q-140 0 -235 -97t-95 -235t94.5 -234t233.5 -96zM443 163q-79 0 -132.5 56t-53.5 135v2q0 79 54 135t133 56q75 0 130 -47
q11 -9 11 -23q0 -11 -8 -19t-19 -8q-7 0 -19 8q-46 39 -95 39q-56 0 -93.5 -41t-37.5 -99v-2q0 -58 38.5 -99.5t92.5 -41.5t100 40q7 7 18 7t18 -7t7 -17t-9 -21q-58 -53 -135 -53z" />
    <glyph glyph-name="ordfeminine" unicode="&#xaa;" horiz-adv-x="390" 
d="M207 446q35 0 67.5 24.5t41.5 58.5l4 13q-40 11 -81 11q-36 0 -58.5 -18t-22.5 -46q0 -19 13.5 -31t35.5 -12zM262 658q-33 0 -59 -9q-12 -3 -16 -3q-20 0 -20 22q0 16 19 22q38 14 86 14q54 0 83.5 -23.5t29.5 -65.5q0 -14 -6 -40l-38 -140q-7 -26 -29 -26
q-12 0 -17.5 8t-3.5 19l6 23q-47 -52 -107 -52q-37 0 -61 21t-24 55q0 49 36.5 78t93.5 29q37 0 93 -15l2 6q4 14 4 24q0 53 -72 53zM79 289q-10 0 -17 6.5t-7 16.5t7 17t17 7h217q9 0 16 -7t7 -17t-7 -16.5t-16 -6.5h-217z" />
    <glyph glyph-name="guillemotleft" unicode="&#xab;" horiz-adv-x="550" 
d="M59 272l185 179q20 20 36 20q14 0 22 -8.5t8 -22.5q0 -16 -12 -26l-169 -167l71 -152q6 -13 6 -23q0 -13 -10 -22.5t-24 -9.5q-22 0 -33 22l-82 166q-8 16 -8 23q0 11 10 21zM281 272l185 179q20 20 35 20q31 0 31 -31q0 -14 -12 -26l-169 -167l71 -152q6 -13 6 -23
q0 -13 -10 -22.5t-24 -9.5q-22 0 -33 22l-83 166q-8 16 -8 23q0 10 11 21z" />
    <glyph glyph-name="registered" unicode="&#xae;" horiz-adv-x="403" 
d="M277 360q-73 0 -123.5 51t-50.5 123v1q0 72 51 123.5t123 51.5q73 0 123.5 -51t50.5 -123v-1q0 -72 -51 -123.5t-123 -51.5zM277 379q65 0 109.5 46t44.5 110v1q0 64 -44.5 109.5t-109.5 45.5t-109.5 -46t-44.5 -110v-1q0 -64 44.5 -109.5t109.5 -45.5zM209 464v146
q0 7 5 12t12 5h63q30 0 49 -14.5t19 -41.5q0 -40 -39 -55l34 -40q5 -6 5 -13t-4.5 -12t-11.5 -5q-9 0 -16 9l-46 56h-36v-47q0 -7 -5 -12.5t-12 -5.5q-17 0 -17 18zM243 539h43q36 0 36 29t-36 29h-43v-58z" />
    <glyph glyph-name="macron" unicode="&#xaf;" horiz-adv-x="500" 
d="M487 615h-265q-13 0 -22.5 9.5t-9.5 22.5t9.5 22.5t22.5 9.5h265q13 0 22.5 -9.5t9.5 -22.5t-9.5 -22.5t-22.5 -9.5z" />
    <glyph glyph-name="degree" unicode="&#xb0;" horiz-adv-x="387" 
d="M223 398q-60 0 -97.5 38t-37.5 96q0 70 51 122t122 52q60 0 97.5 -37.5t37.5 -95.5q0 -70 -51 -122.5t-122 -52.5zM228 450q45 0 78 36t33 82q0 39 -23 62.5t-60 23.5q-45 0 -78 -36t-33 -82q0 -39 23 -62.5t60 -23.5z" />
    <glyph glyph-name="plusminus" unicode="&#xb1;" horiz-adv-x="625" 
d="M378 364l-43 -162q-11 -37 -42 -37q-18 0 -26.5 13t-2.5 33l41 153h-159q-14 0 -24.5 10.5t-10.5 24.5t10.5 24.5t24.5 10.5h178l43 162q10 37 41 37q18 0 26.5 -13t3.5 -32l-41 -154h158q15 0 25 -10t10 -24q0 -15 -10 -25.5t-25 -10.5h-177zM458 0h-409
q-14 0 -24.5 10.5t-10.5 24.5t10.5 24t24.5 10h409q14 0 24.5 -10t10.5 -24t-10.5 -24.5t-24.5 -10.5z" />
    <glyph glyph-name="acute" unicode="&#xb4;" horiz-adv-x="500" 
d="M427 682l-97 -72q-23 -19 -51 -19q-22 0 -22 15q0 7 7 16l85 92q21 21 37 21q18 0 36.5 -10.5t18.5 -20.5q0 -11 -14 -22z" />
    <glyph glyph-name="paragraph" unicode="&#xb6;" horiz-adv-x="517" 
d="M525 657l-168 -624q-9 -38 -44 -38q-19 0 -29 13.5t-4 35.5l54 205q-107 5 -171.5 51.5t-64.5 139.5q0 120 88 190t245 70h61q19 0 28 -12t5 -31z" />
    <glyph glyph-name="periodcentered" unicode="&#xb7;" horiz-adv-x="255" 
d="M147 358q21 0 33.5 -14t6.5 -34l-7 -25q-5 -19 -19 -30.5t-34 -11.5q-21 0 -33 14t-7 34l7 25q11 42 53 42z" />
    <glyph glyph-name="cedilla" unicode="&#xb8;" horiz-adv-x="500" 
d="M249 10l-104 -142q-11 -17 -29 -17q-15 0 -26.5 9.5t-11.5 20.5q0 13 11 25l99 104h61z" />
    <glyph glyph-name="ordmasculine" unicode="&#xba;" horiz-adv-x="393" 
d="M245 405q-59 0 -96 36.5t-37 94.5q0 68 49.5 118.5t118.5 50.5q59 0 96 -37t37 -94q0 -68 -49.5 -118.5t-118.5 -50.5zM248 451q46 0 79 37t33 84q0 39 -23 63t-60 24q-46 0 -79 -36.5t-33 -84.5q0 -39 23 -63t60 -24zM81 289q-10 0 -17 6.5t-7 16.5t7 17t17 7h236
q10 0 17 -7t7 -17t-7 -16.5t-17 -6.5h-236z" />
    <glyph glyph-name="guillemotright" unicode="&#xbb;" horiz-adv-x="550" 
d="M489 242l-185 -180q-20 -20 -36 -20q-13 0 -21.5 8.5t-8.5 22.5q0 17 12 27l169 166l-71 152q-6 13 -6 23q0 14 10 23.5t24 9.5q22 0 33 -23l82 -165q8 -13 8 -23q0 -12 -10 -21zM267 242l-185 -180q-20 -20 -35 -20q-14 0 -22.5 8.5t-8.5 22.5q0 15 12 27l169 166
l-71 152q-6 13 -6 23q0 14 10 23.5t24 9.5q22 0 33 -23l83 -165q8 -16 8 -23q0 -12 -11 -21z" />
    <glyph glyph-name="questiondown" unicode="&#xbf;" horiz-adv-x="537" 
d="M422 127q18 12 30 12q14 0 23.5 -9.5t9.5 -22.5q0 -17 -15 -30q-96 -86 -219 -86q-94 0 -150.5 50.5t-56.5 126.5q0 93 72 150t190 74l32 91q10 24 30 24h2q12 0 18.5 -8.5t4.5 -21.5l-20 -113q-4 -27 -35 -31q-96 -11 -154 -52t-58 -107q0 -52 37 -81.5t96 -29.5
q84 0 163 64zM400 590q-21 0 -33.5 14t-6.5 34l7 25q5 19 19 30.5t34 11.5q21 0 33 -14t7 -34l-7 -25q-11 -42 -53 -42z" />
    <glyph glyph-name="Agrave" unicode="&#xc0;" horiz-adv-x="747" 
d="M228 257h322l-65 358zM551 670l116 -615q3 -18 3 -22q0 -15 -11 -26.5t-29 -11.5q-33 0 -40 35l-27 155h-385l-118 -163q-21 -27 -41 -27q-14 0 -23.5 9t-9.5 24q0 14 9 25l450 621q25 34 58 34h2q37 0 46 -38zM477 786l-57 74q-9 13 -9 20q0 11 17 21t35 10q26 0 34 -24
l35 -89q0 -1 1.5 -6t1.5 -8q0 -16 -22 -16t-36 18z" />
    <glyph glyph-name="Aacute" unicode="&#xc1;" horiz-adv-x="747" 
d="M228 257h322l-65 358zM551 670l116 -615q3 -18 3 -22q0 -15 -11 -26.5t-29 -11.5q-33 0 -40 35l-27 155h-385l-118 -163q-21 -27 -41 -27q-14 0 -23.5 9t-9.5 24q0 14 9 25l450 621q25 34 58 34h2q37 0 46 -38zM674 859l-97 -72q-23 -19 -51 -19q-22 0 -22 15q0 7 7 16
l85 92q21 21 37 21q18 0 36.5 -10.5t18.5 -20.5q0 -11 -14 -22z" />
    <glyph glyph-name="Acircumflex" unicode="&#xc2;" horiz-adv-x="747" 
d="M228 257h322l-65 358zM551 670l116 -615q3 -18 3 -22q0 -15 -11 -26.5t-29 -11.5q-33 0 -40 35l-27 155h-385l-118 -163q-21 -27 -41 -27q-14 0 -23.5 9t-9.5 24q0 14 9 25l450 621q25 34 58 34h2q37 0 46 -38zM600 884l45 -84q7 -12 7 -18q0 -14 -19 -14q-31 0 -47 19
l-42 52l-75 -52q-28 -19 -50 -19q-19 0 -19 14q0 8 11 19l90 84q24 22 45 22h17q23 0 37 -23z" />
    <glyph glyph-name="Atilde" unicode="&#xc3;" horiz-adv-x="747" 
d="M228 257h322l-65 358zM551 670l116 -615q3 -18 3 -22q0 -15 -11 -26.5t-29 -11.5q-33 0 -40 35l-27 155h-385l-118 -163q-21 -27 -41 -27q-14 0 -23.5 9t-9.5 24q0 14 9 25l450 621q25 34 58 34h2q37 0 46 -38zM397 768q-11 0 -18.5 6.5t-7.5 16.5q0 11 7 24
q46 81 104 81q22 0 36 -7.5t35 -25.5q30 -26 42 -28q3 -1 7 -1q24 0 53 44q11 17 26 17q11 0 19 -6.5t8 -17.5q0 -12 -7 -23q-47 -82 -105 -82q-32 0 -70 33q-32 29 -50 29q-25 0 -52 -43q-11 -17 -27 -17z" />
    <glyph glyph-name="Adieresis" unicode="&#xc4;" horiz-adv-x="747" 
d="M228 257h322l-65 358zM551 670l116 -615q3 -18 3 -22q0 -15 -11 -26.5t-29 -11.5q-33 0 -40 35l-27 155h-385l-118 -163q-21 -27 -41 -27q-14 0 -23.5 9t-9.5 24q0 14 9 25l450 621q25 34 58 34h2q37 0 46 -38zM459 874q20 0 32 -13t7 -31l-7 -25q-10 -39 -52 -39
q-20 0 -31.5 12.5t-7.5 31.5l7 25q10 39 52 39zM636 874q20 0 32 -13t7 -31l-7 -25q-10 -39 -52 -39q-20 0 -31.5 12.5t-7.5 31.5l7 25q10 39 52 39z" />
    <glyph glyph-name="Aring" unicode="&#xc5;" horiz-adv-x="747" 
d="M19 -5q-14 0 -23.5 9t-9.5 24q0 14 9 25l458 631q-41 24 -41 71q0 46 33.5 78.5t80.5 32.5q44 0 72 -25t28 -63q0 -35 -21.5 -63.5t-55.5 -39.5l118 -620q3 -18 3 -22q0 -15 -11 -26.5t-29 -11.5q-33 0 -40 35l-27 155h-385l-118 -163q-21 -27 -41 -27zM228 257h322
l-65 358zM513 705q29 0 49 21t20 51q0 22 -15 36t-42 14q-29 0 -49 -21t-20 -51q0 -22 15 -36t42 -14z" />
    <glyph glyph-name="AE" unicode="&#xc6;" horiz-adv-x="1065" 
d="M268 257h243l100 373h-25zM587 700h490q15 0 25.5 -10.5t10.5 -25.5t-10.5 -25.5t-25.5 -10.5h-387l-64 -239h322q15 0 25.5 -11t10.5 -25q0 -15 -10.5 -25.5t-25.5 -10.5h-341l-66 -245h373q14 0 25 -10.5t11 -25.5t-11 -25.5t-25 -10.5h-427q-18 0 -28 13t-4 33l38 139
h-284l-139 -163q-24 -27 -44 -27q-14 0 -22.5 8.5t-8.5 22.5q0 15 13 31l523 610q29 33 56 33z" />
    <glyph glyph-name="Ccedilla" unicode="&#xc7;" horiz-adv-x="735" 
d="M635 84q-106 -97 -252 -97h-7l-87 -119q-11 -17 -29 -17q-15 0 -26.5 9.5t-11.5 20.5q0 13 11 25l83 88q-102 19 -166.5 94.5t-64.5 188.5q0 112 56 212t153.5 161.5t210.5 61.5q158 0 239 -114q14 -18 14 -34q-1 -16 -12 -27.5t-28 -10.5q-21 0 -30 14q-33 47 -76.5 73
t-113.5 26q-134 0 -232 -109t-98 -250q0 -100 61 -159.5t158 -59.5q61 0 106.5 19.5t91.5 59.5q15 11 28 11q16 0 26.5 -11t10.5 -26t-15 -30z" />
    <glyph glyph-name="Egrave" unicode="&#xc8;" horiz-adv-x="653" 
d="M513 0h-438q-19 0 -29 13t-4 33l165 614q5 18 17 29t28 11h425q15 0 25.5 -10.5t10.5 -25.5t-10.5 -25.5t-25.5 -10.5h-400l-64 -239h335q15 0 25.5 -11t10.5 -25q0 -15 -10.5 -25.5t-25.5 -10.5h-354l-66 -245h385q15 0 25.5 -10.5t10.5 -25.5t-10.5 -25.5t-25.5 -10.5z
M432 776l-57 74q-9 13 -9 20q0 11 17 21t35 10q26 0 34 -24l35 -89q0 -1 1.5 -6t1.5 -8q0 -16 -22 -16t-36 18z" />
    <glyph glyph-name="Eacute" unicode="&#xc9;" horiz-adv-x="653" 
d="M629 849l-97 -72q-23 -19 -51 -19q-22 0 -22 15q0 7 7 16l85 92q21 21 37 21q18 0 36.5 -10.5t18.5 -20.5q0 -11 -14 -22zM513 0h-438q-19 0 -29 13t-4 33l165 614q5 18 17 29t28 11h425q15 0 25.5 -10.5t10.5 -25.5t-10.5 -25.5t-25.5 -10.5h-400l-64 -239h335
q15 0 25.5 -11t10.5 -25q0 -15 -10.5 -25.5t-25.5 -10.5h-354l-66 -245h385q15 0 25.5 -10.5t10.5 -25.5t-10.5 -25.5t-25.5 -10.5z" />
    <glyph glyph-name="Ecircumflex" unicode="&#xca;" horiz-adv-x="653" 
d="M555 874l45 -84q7 -12 7 -18q0 -14 -19 -14q-31 0 -47 19l-42 52l-75 -52q-28 -19 -50 -19q-19 0 -19 14q0 8 11 19l90 84q24 22 45 22h17q23 0 37 -23zM513 0h-438q-19 0 -29 13t-4 33l165 614q5 18 17 29t28 11h425q15 0 25.5 -10.5t10.5 -25.5t-10.5 -25.5
t-25.5 -10.5h-400l-64 -239h335q15 0 25.5 -11t10.5 -25q0 -15 -10.5 -25.5t-25.5 -10.5h-354l-66 -245h385q15 0 25.5 -10.5t10.5 -25.5t-10.5 -25.5t-25.5 -10.5z" />
    <glyph glyph-name="Edieresis" unicode="&#xcb;" horiz-adv-x="653" 
d="M414 864q20 0 32 -13t7 -31l-7 -25q-10 -39 -52 -39q-20 0 -31.5 12.5t-7.5 31.5l7 25q10 39 52 39zM591 864q20 0 32 -13t7 -31l-7 -25q-10 -39 -52 -39q-20 0 -31.5 12.5t-7.5 31.5l7 25q10 39 52 39zM513 0h-438q-19 0 -29 13t-4 33l165 614q5 18 17 29t28 11h425
q15 0 25.5 -10.5t10.5 -25.5t-10.5 -25.5t-25.5 -10.5h-400l-64 -239h335q15 0 25.5 -11t10.5 -25q0 -15 -10.5 -25.5t-25.5 -10.5h-354l-66 -245h385q15 0 25.5 -10.5t10.5 -25.5t-10.5 -25.5t-25.5 -10.5z" />
    <glyph glyph-name="Igrave" unicode="&#xcc;" horiz-adv-x="291" 
d="M292 656l-167 -623q-11 -38 -44 -38q-19 0 -29 13.5t-4 35.5l168 623q10 38 43 38q19 0 29 -13.5t4 -35.5zM234 776l-57 74q-9 13 -9 20q0 11 17 21t35 10q26 0 34 -24l35 -89q0 -1 1.5 -6t1.5 -8q0 -16 -22 -16t-36 18z" />
    <glyph glyph-name="Iacute" unicode="&#xcd;" horiz-adv-x="291" 
d="M292 656l-167 -623q-11 -38 -44 -38q-19 0 -29 13.5t-4 35.5l168 623q10 38 43 38q19 0 29 -13.5t4 -35.5zM430 849l-97 -72q-23 -19 -51 -19q-22 0 -22 15q0 7 7 16l85 92q21 21 37 21q18 0 36.5 -10.5t18.5 -20.5q0 -11 -14 -22z" />
    <glyph glyph-name="Icircumflex" unicode="&#xce;" horiz-adv-x="291" 
d="M292 656l-167 -623q-11 -38 -44 -38q-19 0 -29 13.5t-4 35.5l168 623q10 38 43 38q19 0 29 -13.5t4 -35.5zM357 874l45 -84q7 -12 7 -18q0 -14 -19 -14q-31 0 -47 19l-42 52l-75 -52q-28 -19 -50 -19q-19 0 -19 14q0 8 11 19l90 84q24 22 45 22h17q23 0 37 -23z" />
    <glyph glyph-name="Idieresis" unicode="&#xcf;" horiz-adv-x="291" 
d="M292 656l-167 -623q-11 -38 -44 -38q-19 0 -29 13.5t-4 35.5l168 623q10 38 43 38q19 0 29 -13.5t4 -35.5zM216 864q20 0 32 -13t7 -31l-7 -25q-10 -39 -52 -39q-20 0 -31.5 12.5t-7.5 31.5l7 25q10 39 52 39zM393 864q20 0 32 -13t7 -31l-7 -25q-10 -39 -52 -39
q-20 0 -31.5 12.5t-7.5 31.5l7 25q10 39 52 39z" />
    <glyph glyph-name="Eth" unicode="&#xd0;" horiz-adv-x="800" 
d="M279 700h136q179 0 272 -93q77 -77 77 -201q0 -162 -111 -273q-133 -133 -359 -133h-192q-18 0 -28 13t-5 33l72 270h-35q-15 0 -25.5 10.5t-10.5 25.5t10.5 25.5t25.5 10.5h55l73 272q4 18 16.5 29t28.5 11zM156 73h148q178 0 290 110q87 87 87 218q0 97 -58 155
q-73 71 -214 71h-104l-64 -239h166q14 0 25 -10.5t11 -25.5t-11 -25.5t-25 -10.5h-186z" />
    <glyph glyph-name="Ntilde" unicode="&#xd1;" horiz-adv-x="786" 
d="M576 132l144 535q10 38 43 38q19 0 28.5 -13.5t2.5 -35.5l-167 -624q-10 -35 -40 -35h-2q-28 0 -43 31l-279 553l-147 -548q-11 -38 -43 -38q-19 0 -28.5 13.5t-3.5 35.5l167 620q10 39 46 39h4q31 0 49 -35zM401 758q-11 0 -18.5 6.5t-7.5 16.5q0 11 7 24q46 81 104 81
q22 0 36 -7.5t35 -25.5q30 -26 42 -28q3 -1 7 -1q24 0 53 44q11 17 26 17q11 0 19 -6.5t8 -17.5q0 -12 -7 -23q-47 -82 -105 -82q-32 0 -70 33q-32 29 -50 29q-25 0 -52 -43q-11 -17 -27 -17z" />
    <glyph glyph-name="Ograve" unicode="&#xd2;" horiz-adv-x="842" 
d="M395 -13q-134 0 -220.5 87t-86.5 217q0 108 53 204.5t148 156.5t207 60q134 0 220.5 -87t86.5 -216q0 -108 -53 -205t-148 -157t-207 -60zM400 60q89 0 163.5 50t115.5 129.5t41 166.5q0 101 -63 167t-166 66q-89 0 -163.5 -50t-115.5 -129.5t-41 -166.5q0 -101 63 -167
t166 -66zM499 786l-57 74q-9 13 -9 20q0 11 17 21t35 10q26 0 34 -24l35 -89q0 -1 1.5 -6t1.5 -8q0 -16 -22 -16t-36 18z" />
    <glyph glyph-name="Oacute" unicode="&#xd3;" horiz-adv-x="842" 
d="M696 859l-97 -72q-23 -19 -51 -19q-22 0 -22 15q0 7 7 16l85 92q21 21 37 21q18 0 36.5 -10.5t18.5 -20.5q0 -11 -14 -22zM395 -13q-134 0 -220.5 87t-86.5 217q0 108 53 204.5t148 156.5t207 60q134 0 220.5 -87t86.5 -216q0 -108 -53 -205t-148 -157t-207 -60zM400 60
q89 0 163.5 50t115.5 129.5t41 166.5q0 101 -63 167t-166 66q-89 0 -163.5 -50t-115.5 -129.5t-41 -166.5q0 -101 63 -167t166 -66z" />
    <glyph glyph-name="Ocircumflex" unicode="&#xd4;" horiz-adv-x="842" 
d="M621 884l45 -84q7 -12 7 -18q0 -14 -19 -14q-31 0 -47 19l-42 52l-75 -52q-28 -19 -50 -19q-19 0 -19 14q0 8 11 19l90 84q24 22 45 22h17q23 0 37 -23zM395 -13q-134 0 -220.5 87t-86.5 217q0 108 53 204.5t148 156.5t207 60q134 0 220.5 -87t86.5 -216q0 -108 -53 -205
t-148 -157t-207 -60zM400 60q89 0 163.5 50t115.5 129.5t41 166.5q0 101 -63 167t-166 66q-89 0 -163.5 -50t-115.5 -129.5t-41 -166.5q0 -101 63 -167t166 -66z" />
    <glyph glyph-name="Otilde" unicode="&#xd5;" horiz-adv-x="842" 
d="M395 -13q-134 0 -220.5 87t-86.5 217q0 108 53 204.5t148 156.5t207 60q134 0 220.5 -87t86.5 -216q0 -108 -53 -205t-148 -157t-207 -60zM400 60q89 0 163.5 50t115.5 129.5t41 166.5q0 101 -63 167t-166 66q-89 0 -163.5 -50t-115.5 -129.5t-41 -166.5q0 -101 63 -167
t166 -66zM419 768q-11 0 -18.5 6.5t-7.5 16.5q0 11 7 24q46 81 104 81q22 0 36 -7.5t35 -25.5q30 -26 42 -28q3 -1 7 -1q24 0 53 44q11 17 26 17q11 0 19 -6.5t8 -17.5q0 -12 -7 -23q-47 -82 -105 -82q-32 0 -70 33q-32 29 -50 29q-25 0 -52 -43q-11 -17 -27 -17z" />
    <glyph glyph-name="Odieresis" unicode="&#xd6;" horiz-adv-x="842" 
d="M480 874q20 0 32 -13t7 -31l-7 -25q-10 -39 -52 -39q-20 0 -31.5 12.5t-7.5 31.5l7 25q10 39 52 39zM657 874q20 0 32 -13t7 -31l-7 -25q-10 -39 -52 -39q-20 0 -31.5 12.5t-7.5 31.5l7 25q10 39 52 39zM395 -13q-134 0 -220.5 87t-86.5 217q0 108 53 204.5t148 156.5
t207 60q134 0 220.5 -87t86.5 -216q0 -108 -53 -205t-148 -157t-207 -60zM400 60q89 0 163.5 50t115.5 129.5t41 166.5q0 101 -63 167t-166 66q-89 0 -163.5 -50t-115.5 -129.5t-41 -166.5q0 -101 63 -167t166 -66z" />
    <glyph glyph-name="multiply" unicode="&#xd7;" horiz-adv-x="625" 
d="M388 347l109 -146q9 -13 9 -26q0 -15 -11 -26t-27 -11q-20 0 -31 17l-107 149l-197 -157q-11 -9 -23 -9q-13 0 -23 10.5t-10 24.5q0 17 15 29l198 155l-109 147q-9 12 -9 25q0 15 11 26.5t27 11.5q19 0 31 -17l107 -149l197 157q10 8 23 8t23 -10.5t10 -24.5
q0 -17 -15 -29z" />
    <glyph glyph-name="Oslash" unicode="&#xd8;" horiz-adv-x="842" 
d="M169 293q0 -63 26 -115l468 392q-66 71 -172 71q-88 0 -163.5 -50.5t-117 -130.5t-41.5 -167zM400 58q88 0 163.5 50.5t117 130.5t41.5 167q0 64 -28 117l-467 -392q62 -73 173 -73zM168 82l-90 -76q-21 -16 -35 -16q-12 0 -19 7.5t-7 18.5q0 13 16 29l99 83
q-44 74 -44 163q0 108 53 204.5t148 156.5t207 60q138 0 225 -92l88 74q21 16 34 16q12 0 19.5 -7t7.5 -18q0 -15 -17 -30l-96 -81q46 -75 46 -165q0 -108 -53 -205t-148 -157t-207 -60q-139 0 -227 95z" />
    <glyph glyph-name="Ugrave" unicode="&#xd9;" horiz-adv-x="758" 
d="M775 656l-100 -373q-36 -133 -110 -207q-87 -87 -218 -87q-122 0 -188.5 61.5t-66.5 162.5q0 55 15 109l92 345q9 38 43 38q19 0 29 -13.5t4 -35.5l-94 -355q-10 -42 -10 -79q0 -72 46.5 -116t136.5 -44q91 0 156 64q61 63 89 171l100 370q9 38 43 38q19 0 29 -13.5
t4 -35.5zM457 776l-57 74q-9 13 -9 20q0 11 17 21t35 10q26 0 34 -24l35 -89q0 -1 1.5 -6t1.5 -8q0 -16 -22 -16t-36 18z" />
    <glyph glyph-name="Uacute" unicode="&#xda;" horiz-adv-x="758" 
d="M654 849l-97 -72q-23 -19 -51 -19q-22 0 -22 15q0 7 7 16l85 92q21 21 37 21q18 0 36.5 -10.5t18.5 -20.5q0 -11 -14 -22zM775 656l-100 -373q-36 -133 -110 -207q-87 -87 -218 -87q-122 0 -188.5 61.5t-66.5 162.5q0 55 15 109l92 345q9 38 43 38q19 0 29 -13.5t4 -35.5
l-94 -355q-10 -42 -10 -79q0 -72 46.5 -116t136.5 -44q91 0 156 64q61 63 89 171l100 370q9 38 43 38q19 0 29 -13.5t4 -35.5z" />
    <glyph glyph-name="Ucircumflex" unicode="&#xdb;" horiz-adv-x="758" 
d="M580 874l45 -84q7 -12 7 -18q0 -14 -19 -14q-31 0 -47 19l-42 52l-75 -52q-28 -19 -50 -19q-19 0 -19 14q0 8 11 19l90 84q24 22 45 22h17q23 0 37 -23zM775 656l-100 -373q-36 -133 -110 -207q-87 -87 -218 -87q-122 0 -188.5 61.5t-66.5 162.5q0 55 15 109l92 345
q9 38 43 38q19 0 29 -13.5t4 -35.5l-94 -355q-10 -42 -10 -79q0 -72 46.5 -116t136.5 -44q91 0 156 64q61 63 89 171l100 370q9 38 43 38q19 0 29 -13.5t4 -35.5z" />
    <glyph glyph-name="Udieresis" unicode="&#xdc;" horiz-adv-x="758" 
d="M439 864q20 0 32 -13t7 -31l-7 -25q-10 -39 -52 -39q-20 0 -31.5 12.5t-7.5 31.5l7 25q10 39 52 39zM616 864q20 0 32 -13t7 -31l-7 -25q-10 -39 -52 -39q-20 0 -31.5 12.5t-7.5 31.5l7 25q10 39 52 39zM775 656l-100 -373q-36 -133 -110 -207q-87 -87 -218 -87
q-122 0 -188.5 61.5t-66.5 162.5q0 55 15 109l92 345q9 38 43 38q19 0 29 -13.5t4 -35.5l-94 -355q-10 -42 -10 -79q0 -72 46.5 -116t136.5 -44q91 0 156 64q61 63 89 171l100 370q9 38 43 38q19 0 29 -13.5t4 -35.5z" />
    <glyph glyph-name="Yacute" unicode="&#xdd;" horiz-adv-x="663" 
d="M367 267l-62 -234q-11 -38 -44 -38q-19 0 -29 13.5t-4 35.5l63 236l-155 358q-7 16 -7 29q0 16 11.5 27t29.5 11q27 0 40 -33l136 -326l321 337q22 22 43 22q15 0 24.5 -9t9.5 -24q0 -18 -16 -34zM601 849l-97 -72q-23 -19 -51 -19q-22 0 -22 15q0 7 7 16l85 92
q21 21 37 21q18 0 36.5 -10.5t18.5 -20.5q0 -11 -14 -22z" />
    <glyph glyph-name="Thorn" unicode="&#xde;" horiz-adv-x="674" 
d="M163 199h151q123 0 191 47.5t68 132.5q0 52 -33 84q-44 44 -138 44h-157zM404 580q135 0 201 -65q49 -51 49 -131q0 -121 -93.5 -188.5t-250.5 -67.5h-166l-26 -95q-11 -38 -44 -38q-19 0 -29 13.5t-4 35.5l168 623q9 38 43 38q19 0 28.5 -13.5t3.5 -35.5l-19 -76h139z
" />
    <glyph glyph-name="germandbls" unicode="&#xdf;" horiz-adv-x="623" 
d="M343 396q184 48 184 167q0 47 -33.5 76.5t-89.5 29.5q-64 0 -110.5 -47.5t-68.5 -133.5l-122 -455q-9 -38 -43 -38q-18 0 -27 13.5t-4 34.5l123 458q28 109 87 166q68 70 170 70q86 0 140.5 -48t54.5 -121q0 -149 -196 -205q144 -42 144 -157q0 -91 -83.5 -149.5
t-208.5 -58.5q-34 0 -34 32q0 29 30 32q111 6 164.5 45.5t53.5 99.5q0 85 -128 118q-31 10 -31 35q0 28 28 36z" />
    <glyph glyph-name="agrave" unicode="&#xe0;" horiz-adv-x="576" 
d="M207 49q67 0 126 43.5t77 110.5l10 36q-80 23 -168 23q-69 0 -112 -34t-43 -87q0 -41 30 -66.5t80 -25.5zM395 -5q-19 0 -26.5 11t-5.5 28l13 47q-80 -92 -193 -92q-69 0 -116.5 38.5t-47.5 104.5q0 86 64 136.5t166 50.5q84 0 184 -28l3 12q7 26 7 48q0 105 -140 105
q-57 0 -119 -18q-7 -3 -16 -3q-13 0 -22 9t-9 23q0 25 26 33q73 24 152 24q97 0 150 -42.5t53 -117.5q0 -33 -11 -71l-69 -260q-10 -38 -43 -38zM314 609l-57 74q-9 13 -9 20q0 11 17 21t35 10q26 0 34 -24l35 -89q0 -1 1.5 -6t1.5 -8q0 -16 -22 -16t-36 18z" />
    <glyph glyph-name="aacute" unicode="&#xe1;" horiz-adv-x="576" 
d="M207 49q67 0 126 43.5t77 110.5l10 36q-80 23 -168 23q-69 0 -112 -34t-43 -87q0 -41 30 -66.5t80 -25.5zM395 -5q-19 0 -26.5 11t-5.5 28l13 47q-80 -92 -193 -92q-69 0 -116.5 38.5t-47.5 104.5q0 86 64 136.5t166 50.5q84 0 184 -28l3 12q7 26 7 48q0 105 -140 105
q-57 0 -119 -18q-7 -3 -16 -3q-13 0 -22 9t-9 23q0 25 26 33q73 24 152 24q97 0 150 -42.5t53 -117.5q0 -33 -11 -71l-69 -260q-10 -38 -43 -38zM510 682l-97 -72q-23 -19 -51 -19q-22 0 -22 15q0 7 7 16l85 92q21 21 37 21q18 0 36.5 -10.5t18.5 -20.5q0 -11 -14 -22z" />
    <glyph glyph-name="acircumflex" unicode="&#xe2;" horiz-adv-x="576" 
d="M207 49q67 0 126 43.5t77 110.5l10 36q-80 23 -168 23q-69 0 -112 -34t-43 -87q0 -41 30 -66.5t80 -25.5zM395 -5q-19 0 -26.5 11t-5.5 28l13 47q-80 -92 -193 -92q-69 0 -116.5 38.5t-47.5 104.5q0 86 64 136.5t166 50.5q84 0 184 -28l3 12q7 26 7 48q0 105 -140 105
q-57 0 -119 -18q-7 -3 -16 -3q-13 0 -22 9t-9 23q0 25 26 33q73 24 152 24q97 0 150 -42.5t53 -117.5q0 -33 -11 -71l-69 -260q-10 -38 -43 -38zM436 707l45 -84q7 -12 7 -18q0 -14 -19 -14q-31 0 -47 19l-42 52l-75 -52q-28 -19 -50 -19q-19 0 -19 14q0 8 11 19l90 84
q24 22 45 22h17q23 0 37 -23z" />
    <glyph glyph-name="atilde" unicode="&#xe3;" horiz-adv-x="576" 
d="M207 49q67 0 126 43.5t77 110.5l10 36q-80 23 -168 23q-69 0 -112 -34t-43 -87q0 -41 30 -66.5t80 -25.5zM395 -5q-19 0 -26.5 11t-5.5 28l13 47q-80 -92 -193 -92q-69 0 -116.5 38.5t-47.5 104.5q0 86 64 136.5t166 50.5q84 0 184 -28l3 12q7 26 7 48q0 105 -140 105
q-57 0 -119 -18q-7 -3 -16 -3q-13 0 -22 9t-9 23q0 25 26 33q73 24 152 24q97 0 150 -42.5t53 -117.5q0 -33 -11 -71l-69 -260q-10 -38 -43 -38zM233 591q-11 0 -18.5 6.5t-7.5 16.5q0 11 7 24q46 81 104 81q22 0 36 -7.5t35 -25.5q30 -26 42 -28q3 -1 7 -1q24 0 53 44
q11 17 26 17q11 0 19 -6.5t8 -17.5q0 -12 -7 -23q-47 -82 -105 -82q-32 0 -70 33q-32 29 -50 29q-25 0 -52 -43q-11 -17 -27 -17z" />
    <glyph glyph-name="adieresis" unicode="&#xe4;" horiz-adv-x="576" 
d="M207 49q67 0 126 43.5t77 110.5l10 36q-80 23 -168 23q-69 0 -112 -34t-43 -87q0 -41 30 -66.5t80 -25.5zM395 -5q-19 0 -26.5 11t-5.5 28l13 47q-80 -92 -193 -92q-69 0 -116.5 38.5t-47.5 104.5q0 86 64 136.5t166 50.5q84 0 184 -28l3 12q7 26 7 48q0 105 -140 105
q-57 0 -119 -18q-7 -3 -16 -3q-13 0 -22 9t-9 23q0 25 26 33q73 24 152 24q97 0 150 -42.5t53 -117.5q0 -33 -11 -71l-69 -260q-10 -38 -43 -38zM294 697q20 0 32 -13t7 -31l-7 -25q-10 -39 -52 -39q-20 0 -31.5 12.5t-7.5 31.5l7 25q10 39 52 39zM471 697q20 0 32 -13
t7 -31l-7 -25q-10 -39 -52 -39q-20 0 -31.5 12.5t-7.5 31.5l7 25q10 39 52 39z" />
    <glyph glyph-name="aring" unicode="&#xe5;" horiz-adv-x="576" 
d="M207 49q67 0 126 43.5t77 110.5l10 36q-80 23 -168 23q-69 0 -112 -34t-43 -87q0 -41 30 -66.5t80 -25.5zM395 -5q-19 0 -26.5 11t-5.5 28l13 47q-80 -92 -193 -92q-69 0 -116.5 38.5t-47.5 104.5q0 86 64 136.5t166 50.5q84 0 184 -28l3 12q7 26 7 48q0 105 -140 105
q-57 0 -119 -18q-7 -3 -16 -3q-13 0 -22 9t-9 23q0 25 26 33q73 24 152 24q97 0 150 -42.5t53 -117.5q0 -33 -11 -71l-69 -260q-10 -38 -43 -38zM378 594q-44 0 -70.5 25t-26.5 63q0 45 34.5 78t80.5 33q44 0 71 -25t27 -63q0 -45 -34.5 -78t-81.5 -33zM380 633
q29 0 49.5 21t20.5 50q0 23 -14 37t-41 14q-29 0 -50 -21.5t-21 -50.5q0 -22 14.5 -36t41.5 -14z" />
    <glyph glyph-name="ae" unicode="&#xe6;" horiz-adv-x="958" 
d="M255 262q-69 0 -113.5 -33t-44.5 -85q0 -43 30.5 -69t85.5 -26q112 0 216 110q-5 25 -5 48q0 11 2 31q-72 24 -171 24zM919 330q0 -37 -7 -63q-8 -35 -41 -35h-374q-2 -16 -2 -25q1 -69 43.5 -110.5t112.5 -41.5q80 0 140 48q16 8 27 8q13 0 21.5 -9t8.5 -22
q0 -16 -15 -28q-78 -64 -185 -64q-73 0 -125.5 31.5t-77.5 87.5q-113 -118 -251 -118q-78 0 -126.5 38.5t-48.5 107.5q0 85 65.5 134.5t167.5 49.5q91 0 181 -28l3 12q7 26 7 48q0 105 -140 105q-60 0 -119 -18q-7 -3 -16 -3q-13 0 -22 9t-9 23q0 25 26 33q75 24 152 24
q76 0 125 -28.5t64 -80.5q41 52 97 82.5t119 30.5q94 0 146.5 -56.5t52.5 -141.5zM507 290h333q4 18 4 40q0 57 -33 95t-96 38q-74 0 -130 -49.5t-78 -123.5z" />
    <glyph glyph-name="ccedilla" unicode="&#xe7;" horiz-adv-x="562" 
d="M463 59q-84 -71 -186 -71h-1l-88 -120q-11 -17 -29 -17q-15 0 -26.5 9.5t-11.5 20.5q0 13 11 25l85 89q-74 18 -121.5 76t-47.5 143q0 127 90.5 220.5t213.5 93.5q122 0 186 -91q13 -15 13 -31q0 -14 -10.5 -24.5t-25.5 -10.5q-19 0 -31 15q-50 74 -137 74
q-88 0 -154 -73.5t-66 -170.5q0 -73 45 -116.5t109 -43.5q71 0 136 54q12 9 26 9t23 -9.5t9 -23.5q0 -15 -12 -27z" />
    <glyph glyph-name="egrave" unicode="&#xe8;" horiz-adv-x="589" 
d="M136 290h333q5 15 5 40q0 57 -33 95t-96 38q-74 0 -130.5 -49.5t-78.5 -123.5zM281 55q80 0 140 48q14 8 26 8q13 0 22 -8.5t9 -22.5q0 -16 -15 -28q-80 -64 -186 -64q-103 0 -166 61t-63 159q0 123 87.5 221.5t213.5 98.5q94 0 147 -56.5t53 -141.5q0 -28 -7 -63
q-8 -35 -42 -35h-374q0 -4 -0.5 -12.5t-0.5 -12.5q1 -69 43.5 -110.5t112.5 -41.5zM333 609l-57 74q-9 13 -9 20q0 11 17 21t35 10q26 0 34 -24l35 -89q0 -1 1.5 -6t1.5 -8q0 -16 -22 -16t-36 18z" />
    <glyph glyph-name="eacute" unicode="&#xe9;" horiz-adv-x="589" 
d="M530 682l-97 -72q-23 -19 -51 -19q-22 0 -22 15q0 7 7 16l85 92q21 21 37 21q18 0 36.5 -10.5t18.5 -20.5q0 -11 -14 -22zM136 290h333q5 15 5 40q0 57 -33 95t-96 38q-74 0 -130.5 -49.5t-78.5 -123.5zM281 55q80 0 140 48q14 8 26 8q13 0 22 -8.5t9 -22.5
q0 -16 -15 -28q-80 -64 -186 -64q-103 0 -166 61t-63 159q0 123 87.5 221.5t213.5 98.5q94 0 147 -56.5t53 -141.5q0 -28 -7 -63q-8 -35 -42 -35h-374q0 -4 -0.5 -12.5t-0.5 -12.5q1 -69 43.5 -110.5t112.5 -41.5z" />
    <glyph glyph-name="ecircumflex" unicode="&#xea;" horiz-adv-x="589" 
d="M455 707l45 -84q7 -12 7 -18q0 -14 -19 -14q-31 0 -47 19l-42 52l-75 -52q-28 -19 -50 -19q-19 0 -19 14q0 8 11 19l90 84q24 22 45 22h17q23 0 37 -23zM136 290h333q5 15 5 40q0 57 -33 95t-96 38q-74 0 -130.5 -49.5t-78.5 -123.5zM281 55q80 0 140 48q14 8 26 8
q13 0 22 -8.5t9 -22.5q0 -16 -15 -28q-80 -64 -186 -64q-103 0 -166 61t-63 159q0 123 87.5 221.5t213.5 98.5q94 0 147 -56.5t53 -141.5q0 -28 -7 -63q-8 -35 -42 -35h-374q0 -4 -0.5 -12.5t-0.5 -12.5q1 -69 43.5 -110.5t112.5 -41.5z" />
    <glyph glyph-name="edieresis" unicode="&#xeb;" horiz-adv-x="589" 
d="M314 697q20 0 32 -13t7 -31l-7 -25q-10 -39 -52 -39q-20 0 -31.5 12.5t-7.5 31.5l7 25q10 39 52 39zM491 697q20 0 32 -13t7 -31l-7 -25q-10 -39 -52 -39q-20 0 -31.5 12.5t-7.5 31.5l7 25q10 39 52 39zM136 290h333q5 15 5 40q0 57 -33 95t-96 38q-74 0 -130.5 -49.5
t-78.5 -123.5zM281 55q80 0 140 48q14 8 26 8q13 0 22 -8.5t9 -22.5q0 -16 -15 -28q-80 -64 -186 -64q-103 0 -166 61t-63 159q0 123 87.5 221.5t213.5 98.5q94 0 147 -56.5t53 -141.5q0 -28 -7 -63q-8 -35 -42 -35h-374q0 -4 -0.5 -12.5t-0.5 -12.5q1 -69 43.5 -110.5
t112.5 -41.5z" />
    <glyph glyph-name="igrave" unicode="&#xec;" horiz-adv-x="264" 
d="M228 474l-118 -441q-11 -38 -43 -38q-19 0 -27.5 13t-3.5 35l118 441q11 38 43 38q19 0 28 -13.5t3 -34.5zM175 609l-57 74q-9 13 -9 20q0 11 17 21t35 10q26 0 34 -24l35 -89q0 -1 1.5 -6t1.5 -8q0 -16 -22 -16t-36 18z" />
    <glyph glyph-name="iacute" unicode="&#xed;" horiz-adv-x="264" 
d="M372 682l-97 -72q-23 -19 -51 -19q-22 0 -22 15q0 7 7 16l85 92q21 21 37 21q18 0 36.5 -10.5t18.5 -20.5q0 -11 -14 -22zM228 474l-118 -441q-11 -38 -43 -38q-19 0 -27.5 13t-3.5 35l118 441q11 38 43 38q19 0 28 -13.5t3 -34.5z" />
    <glyph glyph-name="icircumflex" unicode="&#xee;" horiz-adv-x="264" 
d="M298 707l45 -84q7 -12 7 -18q0 -14 -19 -14q-31 0 -47 19l-42 52l-75 -52q-28 -19 -50 -19q-19 0 -19 14q0 8 11 19l90 84q24 22 45 22h17q23 0 37 -23zM228 474l-118 -441q-11 -38 -43 -38q-19 0 -27.5 13t-3.5 35l118 441q11 38 43 38q19 0 28 -13.5t3 -34.5z" />
    <glyph glyph-name="idieresis" unicode="&#xef;" horiz-adv-x="264" 
d="M158 697q20 0 32 -13t7 -31l-7 -25q-10 -39 -52 -39q-20 0 -31.5 12.5t-7.5 31.5l7 25q10 39 52 39zM335 697q20 0 32 -13t7 -31l-7 -25q-10 -39 -52 -39q-20 0 -31.5 12.5t-7.5 31.5l7 25q10 39 52 39zM228 474l-118 -441q-11 -38 -43 -38q-19 0 -27.5 13t-3.5 35
l118 441q11 38 43 38q19 0 28 -13.5t3 -34.5z" />
    <glyph glyph-name="eth" unicode="&#xf0;" horiz-adv-x="622" 
d="M245 609l128 53l-7 17q-5 10 -5 21q0 14 11.5 24.5t27.5 10.5q26 0 35 -24l8 -20l96 41q6 3 16 3q26 0 26 -27q0 -20 -22 -28l-95 -40l64 -157q46 -114 46 -194q0 -121 -84.5 -210.5t-214.5 -89.5q-100 0 -165 62t-65 157q0 114 82.5 195.5t192.5 81.5q90 0 153 -54
l-78 180l-131 -54q-6 -3 -16 -3q-12 0 -19 7.5t-7 18.5q0 21 23 29zM281 57q88 0 150.5 63t62.5 150q0 66 -45 110t-122 44q-84 0 -144.5 -63t-60.5 -149q0 -71 44.5 -113t114.5 -42z" />
    <glyph glyph-name="ntilde" unicode="&#xf1;" horiz-adv-x="613" 
d="M190 522q17 0 26 -11t7 -27l-13 -51q84 95 180 95q75 0 120 -43.5t45 -116.5q0 -30 -13 -80l-68 -255q-10 -38 -42 -38q-19 0 -28 13.5t-3 34.5l66 250q8 27 8 58q0 51 -31 79.5t-85 28.5q-60 0 -113.5 -47t-73.5 -120l-69 -259q-9 -38 -43 -38q-18 0 -27 13.5t-4 34.5
l118 441q9 38 43 38zM266 591q-11 0 -18.5 6.5t-7.5 16.5q0 11 7 24q46 81 104 81q22 0 36 -7.5t35 -25.5q30 -26 42 -28q3 -1 7 -1q24 0 53 44q11 17 26 17q11 0 19 -6.5t8 -17.5q0 -12 -7 -23q-47 -82 -105 -82q-32 0 -70 33q-32 29 -50 29q-25 0 -52 -43q-11 -17 -27 -17
z" />
    <glyph glyph-name="ograve" unicode="&#xf2;" horiz-adv-x="638" 
d="M284 -12q-105 0 -170 65t-65 167q0 122 90.5 215t213.5 93q106 0 171 -65t65 -166q0 -124 -91.5 -216.5t-213.5 -92.5zM289 57q87 0 154 72.5t67 164.5q0 78 -44.5 122t-117.5 44q-88 0 -154.5 -73.5t-66.5 -164.5q0 -77 44.5 -121t117.5 -44zM355 609l-57 74
q-9 13 -9 20q0 11 17 21t35 10q26 0 34 -24l35 -89q0 -1 1.5 -6t1.5 -8q0 -16 -22 -16t-36 18z" />
    <glyph glyph-name="oacute" unicode="&#xf3;" horiz-adv-x="638" 
d="M552 682l-97 -72q-23 -19 -51 -19q-22 0 -22 15q0 7 7 16l85 92q21 21 37 21q18 0 36.5 -10.5t18.5 -20.5q0 -11 -14 -22zM284 -12q-105 0 -170 65t-65 167q0 122 90.5 215t213.5 93q106 0 171 -65t65 -166q0 -124 -91.5 -216.5t-213.5 -92.5zM289 57q87 0 154 72.5
t67 164.5q0 78 -44.5 122t-117.5 44q-88 0 -154.5 -73.5t-66.5 -164.5q0 -77 44.5 -121t117.5 -44z" />
    <glyph glyph-name="ocircumflex" unicode="&#xf4;" horiz-adv-x="638" 
d="M478 707l45 -84q7 -12 7 -18q0 -14 -19 -14q-31 0 -47 19l-42 52l-75 -52q-28 -19 -50 -19q-19 0 -19 14q0 8 11 19l90 84q24 22 45 22h17q23 0 37 -23zM284 -12q-105 0 -170 65t-65 167q0 122 90.5 215t213.5 93q106 0 171 -65t65 -166q0 -124 -91.5 -216.5
t-213.5 -92.5zM289 57q87 0 154 72.5t67 164.5q0 78 -44.5 122t-117.5 44q-88 0 -154.5 -73.5t-66.5 -164.5q0 -77 44.5 -121t117.5 -44z" />
    <glyph glyph-name="otilde" unicode="&#xf5;" horiz-adv-x="638" 
d="M284 -12q-105 0 -170 65t-65 167q0 122 90.5 215t213.5 93q106 0 171 -65t65 -166q0 -124 -91.5 -216.5t-213.5 -92.5zM289 57q87 0 154 72.5t67 164.5q0 78 -44.5 122t-117.5 44q-88 0 -154.5 -73.5t-66.5 -164.5q0 -77 44.5 -121t117.5 -44zM276 591q-11 0 -18.5 6.5
t-7.5 16.5q0 11 7 24q46 81 104 81q22 0 36 -7.5t35 -25.5q30 -26 42 -28q3 -1 7 -1q24 0 53 44q11 17 26 17q11 0 19 -6.5t8 -17.5q0 -12 -7 -23q-47 -82 -105 -82q-32 0 -70 33q-32 29 -50 29q-25 0 -52 -43q-11 -17 -27 -17z" />
    <glyph glyph-name="odieresis" unicode="&#xf6;" horiz-adv-x="638" 
d="M337 697q20 0 32 -13t7 -31l-7 -25q-10 -39 -52 -39q-20 0 -31.5 12.5t-7.5 31.5l7 25q10 39 52 39zM514 697q20 0 32 -13t7 -31l-7 -25q-10 -39 -52 -39q-20 0 -31.5 12.5t-7.5 31.5l7 25q10 39 52 39zM284 -12q-105 0 -170 65t-65 167q0 122 90.5 215t213.5 93
q106 0 171 -65t65 -166q0 -124 -91.5 -216.5t-213.5 -92.5zM289 57q87 0 154 72.5t67 164.5q0 78 -44.5 122t-117.5 44q-88 0 -154.5 -73.5t-66.5 -164.5q0 -77 44.5 -121t117.5 -44z" />
    <glyph glyph-name="divide" unicode="&#xf7;" horiz-adv-x="625" 
d="M553 317h-429q-14 0 -24.5 10.5t-10.5 24.5t10.5 24.5t24.5 10.5h429q14 0 24 -10.5t10 -24.5t-10 -24.5t-24 -10.5zM401 607q21 0 34 -13.5t9 -33.5l-5 -22q-10 -44 -58 -44q-21 0 -34 13.5t-9 33.5l5 22q10 44 58 44zM295 210q21 0 34 -13.5t9 -33.5l-5 -22
q-10 -44 -58 -44q-21 0 -34 13.5t-9 33.5l5 22q10 44 58 44z" />
    <glyph glyph-name="oslash" unicode="&#xf8;" horiz-adv-x="638" 
d="M289 55q87 0 154.5 72.5t67.5 166.5q0 44 -15 79l-324 -274q42 -44 117 -44zM126 222q0 -40 15 -77l323 273q-43 43 -116 43q-88 0 -155 -73.5t-67 -165.5zM118 51l-57 -48q-17 -13 -30 -13q-11 0 -18.5 7t-7.5 18q0 15 15 27l62 51q-33 54 -33 127q0 122 90.5 215
t213.5 93q101 0 165 -61l58 48q17 13 30 13q11 0 18.5 -7t7.5 -17q0 -13 -15 -28l-62 -51q34 -57 34 -128q0 -124 -91.5 -216.5t-213.5 -92.5q-101 0 -166 63z" />
    <glyph glyph-name="ugrave" unicode="&#xf9;" horiz-adv-x="613" 
d="M422 -5q-16 0 -25 11t-7 27l13 51q-84 -95 -181 -95q-75 0 -119.5 43.5t-44.5 116.5q0 30 13 80l67 255q11 38 43 38q19 0 27.5 -13t3.5 -35l-67 -250q-7 -30 -7 -58q0 -51 30.5 -79.5t84.5 -28.5q61 0 114.5 47.5t72.5 120.5l69 258q11 38 43 38q19 0 28 -13.5t3 -34.5
l-117 -441q-10 -38 -44 -38zM339 609l-57 74q-9 13 -9 20q0 11 17 21t35 10q26 0 34 -24l35 -89q0 -1 1.5 -6t1.5 -8q0 -16 -22 -16t-36 18z" />
    <glyph glyph-name="uacute" unicode="&#xfa;" horiz-adv-x="613" 
d="M535 682l-97 -72q-23 -19 -51 -19q-22 0 -22 15q0 7 7 16l85 92q21 21 37 21q18 0 36.5 -10.5t18.5 -20.5q0 -11 -14 -22zM422 -5q-16 0 -25 11t-7 27l13 51q-84 -95 -181 -95q-75 0 -119.5 43.5t-44.5 116.5q0 30 13 80l67 255q11 38 43 38q19 0 27.5 -13t3.5 -35
l-67 -250q-7 -30 -7 -58q0 -51 30.5 -79.5t84.5 -28.5q61 0 114.5 47.5t72.5 120.5l69 258q11 38 43 38q19 0 28 -13.5t3 -34.5l-117 -441q-10 -38 -44 -38z" />
    <glyph glyph-name="ucircumflex" unicode="&#xfb;" horiz-adv-x="613" 
d="M461 707l45 -84q7 -12 7 -18q0 -14 -19 -14q-31 0 -47 19l-42 52l-75 -52q-28 -19 -50 -19q-19 0 -19 14q0 8 11 19l90 84q24 22 45 22h17q23 0 37 -23zM422 -5q-16 0 -25 11t-7 27l13 51q-84 -95 -181 -95q-75 0 -119.5 43.5t-44.5 116.5q0 30 13 80l67 255q11 38 43 38
q19 0 27.5 -13t3.5 -35l-67 -250q-7 -30 -7 -58q0 -51 30.5 -79.5t84.5 -28.5q61 0 114.5 47.5t72.5 120.5l69 258q11 38 43 38q19 0 28 -13.5t3 -34.5l-117 -441q-10 -38 -44 -38z" />
    <glyph glyph-name="udieresis" unicode="&#xfc;" horiz-adv-x="613" 
d="M320 697q20 0 32 -13t7 -31l-7 -25q-10 -39 -52 -39q-20 0 -31.5 12.5t-7.5 31.5l7 25q10 39 52 39zM497 697q20 0 32 -13t7 -31l-7 -25q-10 -39 -52 -39q-20 0 -31.5 12.5t-7.5 31.5l7 25q10 39 52 39zM422 -5q-16 0 -25 11t-7 27l13 51q-84 -95 -181 -95
q-75 0 -119.5 43.5t-44.5 116.5q0 30 13 80l67 255q11 38 43 38q19 0 27.5 -13t3.5 -35l-67 -250q-7 -30 -7 -58q0 -51 30.5 -79.5t84.5 -28.5q61 0 114.5 47.5t72.5 120.5l69 258q11 38 43 38q19 0 28 -13.5t3 -34.5l-117 -441q-10 -38 -44 -38z" />
    <glyph glyph-name="yacute" unicode="&#xfd;" horiz-adv-x="574" 
d="M-17 -79q35 -16 65 -16q65 0 133 96l-87 460q-3 11 -3 23q0 16 11 27t27 11t26.5 -10t12.5 -27l71 -400l267 409q16 28 41 28q16 0 25 -9t9 -23q0 -13 -9 -28l-322 -479q-54 -79 -103.5 -112.5t-107.5 -33.5q-46 0 -86 20q-23 11 -23 34q0 15 9.5 25t23.5 10q8 0 20 -5z
M502 682l-97 -72q-23 -19 -51 -19q-22 0 -22 15q0 7 7 16l85 92q21 21 37 21q18 0 36.5 -10.5t18.5 -20.5q0 -11 -14 -22z" />
    <glyph glyph-name="thorn" unicode="&#xfe;" 
d="M312 56q91 0 153.5 73t62.5 173q0 72 -40 115t-106 43q-87 0 -158.5 -74.5t-71.5 -168.5q0 -68 45 -114.5t115 -46.5zM-14 -117l218 814q11 38 43 38q19 0 28 -13.5t3 -34.5l-70 -259q88 100 196 100q89 0 147 -60.5t58 -158.5q0 -135 -87 -228t-203 -93q-139 0 -194 128
l-65 -243q-10 -38 -43 -38q-18 0 -27 13.5t-4 34.5z" />
    <glyph glyph-name="ydieresis" unicode="&#xff;" horiz-adv-x="574" 
d="M-17 -79q35 -16 65 -16q65 0 133 96l-87 460q-3 11 -3 23q0 16 11 27t27 11t26.5 -10t12.5 -27l71 -400l267 409q16 28 41 28q16 0 25 -9t9 -23q0 -13 -9 -28l-322 -479q-54 -79 -103.5 -112.5t-107.5 -33.5q-46 0 -86 20q-23 11 -23 34q0 15 9.5 25t23.5 10q8 0 20 -5z
M287 697q20 0 32 -13t7 -31l-7 -25q-10 -39 -52 -39q-20 0 -31.5 12.5t-7.5 31.5l7 25q10 39 52 39zM464 697q20 0 32 -13t7 -31l-7 -25q-10 -39 -52 -39q-20 0 -31.5 12.5t-7.5 31.5l7 25q10 39 52 39z" />
    <glyph glyph-name="Amacron" unicode="&#x100;" horiz-adv-x="747" 
d="M228 257h322l-65 358zM551 670l116 -615q3 -18 3 -22q0 -15 -11 -26.5t-29 -11.5q-33 0 -40 35l-27 155h-385l-118 -163q-21 -27 -41 -27q-14 0 -23.5 9t-9.5 24q0 14 9 25l450 621q25 34 58 34h2q37 0 46 -38zM672 792h-265q-13 0 -22.5 9.5t-9.5 22.5t9.5 22.5
t22.5 9.5h265q13 0 22.5 -9.5t9.5 -22.5t-9.5 -22.5t-22.5 -9.5z" />
    <glyph glyph-name="amacron" unicode="&#x101;" horiz-adv-x="576" 
d="M207 49q67 0 126 43.5t77 110.5l10 36q-80 23 -168 23q-69 0 -112 -34t-43 -87q0 -41 30 -66.5t80 -25.5zM395 -5q-19 0 -26.5 11t-5.5 28l13 47q-80 -92 -193 -92q-69 0 -116.5 38.5t-47.5 104.5q0 86 64 136.5t166 50.5q84 0 184 -28l3 12q7 26 7 48q0 105 -140 105
q-57 0 -119 -18q-7 -3 -16 -3q-13 0 -22 9t-9 23q0 25 26 33q73 24 152 24q97 0 150 -42.5t53 -117.5q0 -33 -11 -71l-69 -260q-10 -38 -43 -38zM507 615h-265q-13 0 -22.5 9.5t-9.5 22.5t9.5 22.5t22.5 9.5h265q13 0 22.5 -9.5t9.5 -22.5t-9.5 -22.5t-22.5 -9.5z" />
    <glyph glyph-name="Abreve" unicode="&#x102;" horiz-adv-x="747" 
d="M228 257h322l-65 358zM551 670l116 -615q3 -18 3 -22q0 -15 -11 -26.5t-29 -11.5q-33 0 -40 35l-27 155h-385l-118 -163q-21 -27 -41 -27q-14 0 -23.5 9t-9.5 24q0 14 9 25l450 621q25 34 58 34h2q37 0 46 -38zM530 770q-52 0 -85.5 26.5t-33.5 72.5q0 18 8.5 28.5
t22.5 10.5q21 0 28 -22q6 -25 21.5 -38.5t49.5 -13.5q55 0 95 54q15 20 32 20q12 0 19.5 -7t7.5 -18q0 -10 -6 -19q-24 -43 -66 -68.5t-93 -25.5z" />
    <glyph glyph-name="abreve" unicode="&#x103;" horiz-adv-x="576" 
d="M207 49q67 0 126 43.5t77 110.5l10 36q-80 23 -168 23q-69 0 -112 -34t-43 -87q0 -41 30 -66.5t80 -25.5zM395 -5q-19 0 -26.5 11t-5.5 28l13 47q-80 -92 -193 -92q-69 0 -116.5 38.5t-47.5 104.5q0 86 64 136.5t166 50.5q84 0 184 -28l3 12q7 26 7 48q0 105 -140 105
q-57 0 -119 -18q-7 -3 -16 -3q-13 0 -22 9t-9 23q0 25 26 33q73 24 152 24q97 0 150 -42.5t53 -117.5q0 -33 -11 -71l-69 -260q-10 -38 -43 -38zM367 593q-52 0 -85.5 26.5t-33.5 72.5q0 18 8.5 28.5t22.5 10.5q21 0 28 -22q6 -25 21.5 -38.5t49.5 -13.5q55 0 95 54
q15 20 32 20q12 0 19.5 -7t7.5 -18q0 -10 -6 -19q-24 -43 -66 -68.5t-93 -25.5z" />
    <glyph glyph-name="Aogonek" unicode="&#x104;" horiz-adv-x="747" 
d="M612 -164q-48 0 -74 18.5t-26 46.5q0 50 87 109q-7 5 -7 13l-29 162h-385l-118 -163q-21 -27 -41 -27q-14 0 -23.5 9t-9.5 24q0 14 9 25l450 621q25 34 58 34h2q37 0 46 -38l116 -615q3 -18 3 -22q0 -18 -16 -30q-73 -55 -73 -87q0 -13 10 -20.5t36 -13.5q20 -4 20 -22
q0 -24 -35 -24zM228 257h322l-65 358z" />
    <glyph glyph-name="aogonek" unicode="&#x105;" horiz-adv-x="576" 
d="M417 1q-70 -52 -70 -85q0 -13 10 -20.5t36 -13.5q20 -4 20 -22q0 -24 -35 -24q-48 0 -74.5 18.5t-26.5 46.5q0 51 90 111v8q-3 3 9 61q-80 -92 -193 -92q-69 0 -116.5 38.5t-47.5 104.5q0 86 64 136.5t166 50.5q84 0 184 -28l3 12q7 26 7 48q0 105 -140 105
q-57 0 -119 -18q-7 -3 -16 -3q-13 0 -22 9t-9 23q0 25 26 33q73 24 152 24q97 0 150 -42.5t53 -117.5q0 -33 -11 -71l-69 -260q-5 -19 -21 -32zM207 49q67 0 126 43.5t77 110.5l10 36q-80 23 -168 23q-69 0 -112 -34t-43 -87q0 -41 30 -66.5t80 -25.5z" />
    <glyph glyph-name="Cacute" unicode="&#x106;" horiz-adv-x="735" 
d="M676 859l-97 -72q-23 -19 -51 -19q-22 0 -22 15q0 7 7 16l85 92q21 21 37 21q18 0 36.5 -10.5t18.5 -20.5q0 -11 -14 -22zM635 84q-106 -97 -252 -97q-127 0 -212.5 79t-85.5 211q0 112 56 212t153.5 161.5t210.5 61.5q158 0 239 -114q14 -18 14 -34q-1 -16 -12 -27.5
t-28 -10.5q-21 0 -30 14q-33 47 -76.5 73t-113.5 26q-134 0 -232 -109t-98 -250q0 -100 61 -159.5t158 -59.5q61 0 106.5 19.5t91.5 59.5q15 11 28 11q16 0 26.5 -11t10.5 -26t-15 -30z" />
    <glyph glyph-name="cacute" unicode="&#x107;" horiz-adv-x="562" 
d="M525 682l-97 -72q-23 -19 -51 -19q-22 0 -22 15q0 7 7 16l85 92q21 21 37 21q18 0 36.5 -10.5t18.5 -20.5q0 -11 -14 -22zM463 59q-84 -71 -186 -71q-95 0 -162 61.5t-67 164.5q0 127 90.5 220.5t213.5 93.5q122 0 186 -91q13 -15 13 -31q0 -14 -10.5 -24.5t-25.5 -10.5
q-19 0 -31 15q-50 74 -137 74q-88 0 -154 -73.5t-66 -170.5q0 -73 45 -116.5t109 -43.5q71 0 136 54q12 9 26 9t23 -9.5t9 -23.5q0 -15 -12 -27z" />
    <glyph glyph-name="Cdotaccent" unicode="&#x10a;" horiz-adv-x="735" 
d="M635 84q-106 -97 -252 -97q-127 0 -212.5 79t-85.5 211q0 112 56 212t153.5 161.5t210.5 61.5q158 0 239 -114q14 -18 14 -34q-1 -16 -12 -27.5t-28 -10.5q-21 0 -30 14q-33 47 -76.5 73t-113.5 26q-134 0 -232 -109t-98 -250q0 -100 61 -159.5t158 -59.5
q61 0 106.5 19.5t91.5 59.5q15 11 28 11q16 0 26.5 -11t10.5 -26t-15 -30zM549 874q20 0 32 -13t7 -31l-7 -25q-10 -39 -52 -39q-20 0 -31.5 12.5t-7.5 31.5l7 25q10 39 52 39z" />
    <glyph glyph-name="cdotaccent" unicode="&#x10b;" horiz-adv-x="562" 
d="M463 59q-84 -71 -186 -71q-95 0 -162 61.5t-67 164.5q0 127 90.5 220.5t213.5 93.5q122 0 186 -91q13 -15 13 -31q0 -14 -10.5 -24.5t-25.5 -10.5q-19 0 -31 15q-50 74 -137 74q-88 0 -154 -73.5t-66 -170.5q0 -73 45 -116.5t109 -43.5q71 0 136 54q12 9 26 9t23 -9.5
t9 -23.5q0 -15 -12 -27zM398 697q20 0 32 -13t7 -31l-7 -25q-10 -39 -52 -39q-20 0 -31.5 12.5t-7.5 31.5l7 25q10 39 52 39z" />
    <glyph glyph-name="Ccaron" unicode="&#x10c;" horiz-adv-x="735" 
d="M486 792l-46 83q-7 16 -7 18q0 14 20 14q31 0 47 -19l42 -52l75 53q26 18 50 18q18 0 18 -13q0 -9 -10 -19l-91 -84q-21 -23 -45 -23h-16q-24 0 -37 24zM635 84q-106 -97 -252 -97q-127 0 -212.5 79t-85.5 211q0 112 56 212t153.5 161.5t210.5 61.5q158 0 239 -114
q14 -18 14 -34q-1 -16 -12 -27.5t-28 -10.5q-21 0 -30 14q-33 47 -76.5 73t-113.5 26q-134 0 -232 -109t-98 -250q0 -100 61 -159.5t158 -59.5q61 0 106.5 19.5t91.5 59.5q15 11 28 11q16 0 26.5 -11t10.5 -26t-15 -30z" />
    <glyph glyph-name="ccaron" unicode="&#x10d;" horiz-adv-x="562" 
d="M335 615l-46 83q-7 16 -7 18q0 14 20 14q31 0 47 -19l42 -52l75 53q26 18 50 18q18 0 18 -13q0 -9 -10 -19l-91 -84q-21 -23 -45 -23h-16q-24 0 -37 24zM463 59q-84 -71 -186 -71q-95 0 -162 61.5t-67 164.5q0 127 90.5 220.5t213.5 93.5q122 0 186 -91q13 -15 13 -31
q0 -14 -10.5 -24.5t-25.5 -10.5q-19 0 -31 15q-50 74 -137 74q-88 0 -154 -73.5t-66 -170.5q0 -73 45 -116.5t109 -43.5q71 0 136 54q12 9 26 9t23 -9.5t9 -23.5q0 -15 -12 -27z" />
    <glyph glyph-name="Dcaron" unicode="&#x10e;" horiz-adv-x="773" 
d="M443 782l-46 83q-7 16 -7 18q0 14 20 14q31 0 47 -19l42 -52l75 53q26 18 50 18q18 0 18 -13q0 -9 -10 -19l-91 -84q-21 -23 -45 -23h-16q-24 0 -37 24zM129 73h148q179 0 289 110q88 88 88 218q0 98 -59 155q-71 71 -213 71h-104zM252 700h135q178 0 273 -93
q76 -76 76 -201q0 -161 -110 -273q-133 -133 -359 -133h-192q-19 0 -29 13t-4 33l165 614q5 18 17 29t28 11z" />
    <glyph glyph-name="dcaron" unicode="&#x10f;" 
d="M728 585l40 117q10 30 42 30h16q18 0 18 -14q0 -9 -10 -25l-66 -113q-11 -19 -27 -19q-15 0 -15 12q0 2 2 12zM277 56q87 0 158.5 75t71.5 169q0 68 -45 114t-115 46q-91 0 -153.5 -73t-62.5 -173q0 -71 40.5 -114.5t105.5 -43.5zM469 -5q-17 0 -26 10.5t-7 27.5l14 55
q-87 -100 -195 -100q-89 0 -147 61t-58 158q0 135 87 228t203 93q141 0 194 -128l79 297q11 38 43 38q19 0 27.5 -13t3.5 -35l-174 -654q-11 -38 -44 -38z" />
    <glyph glyph-name="Dcroat" unicode="&#x110;" horiz-adv-x="800" 
d="M279 700h136q179 0 272 -93q77 -77 77 -201q0 -162 -111 -273q-133 -133 -359 -133h-192q-18 0 -28 13t-5 33l72 270h-35q-15 0 -25.5 10.5t-10.5 25.5t10.5 25.5t25.5 10.5h55l73 272q4 18 16.5 29t28.5 11zM156 73h148q178 0 290 110q87 87 87 218q0 97 -58 155
q-73 71 -214 71h-104l-64 -239h166q14 0 25 -10.5t11 -25.5t-11 -25.5t-25 -10.5h-186z" />
    <glyph glyph-name="dcroat" unicode="&#x111;" 
d="M469 -5q-17 0 -26 10.5t-7 27.5l14 55q-87 -100 -195 -100q-89 0 -147 61t-58 158q0 135 87 228t203 93q141 0 194 -128l56 212h-146q-11 0 -19.5 8.5t-8.5 19.5t8.5 19t19.5 8h161l8 30q11 38 43 38q19 0 27.5 -13t3.5 -35l-6 -20h40q11 0 19.5 -8t8.5 -19t-8.5 -19.5
t-19.5 -8.5h-54l-154 -579q-11 -38 -44 -38zM277 56q87 0 158.5 75t71.5 169q0 68 -45 114t-115 46q-91 0 -153.5 -73t-62.5 -173q0 -71 40.5 -114.5t105.5 -43.5z" />
    <glyph glyph-name="Emacron" unicode="&#x112;" horiz-adv-x="653" 
d="M513 0h-438q-19 0 -29 13t-4 33l165 614q5 18 17 29t28 11h425q15 0 25.5 -10.5t10.5 -25.5t-10.5 -25.5t-25.5 -10.5h-400l-64 -239h335q15 0 25.5 -11t10.5 -25q0 -15 -10.5 -25.5t-25.5 -10.5h-354l-66 -245h385q15 0 25.5 -10.5t10.5 -25.5t-10.5 -25.5t-25.5 -10.5z
M627 782h-265q-13 0 -22.5 9.5t-9.5 22.5t9.5 22.5t22.5 9.5h265q13 0 22.5 -9.5t9.5 -22.5t-9.5 -22.5t-22.5 -9.5z" />
    <glyph glyph-name="emacron" unicode="&#x113;" horiz-adv-x="589" 
d="M136 290h333q5 15 5 40q0 57 -33 95t-96 38q-74 0 -130.5 -49.5t-78.5 -123.5zM281 55q80 0 140 48q14 8 26 8q13 0 22 -8.5t9 -22.5q0 -16 -15 -28q-80 -64 -186 -64q-103 0 -166 61t-63 159q0 123 87.5 221.5t213.5 98.5q94 0 147 -56.5t53 -141.5q0 -28 -7 -63
q-8 -35 -42 -35h-374q0 -4 -0.5 -12.5t-0.5 -12.5q1 -69 43.5 -110.5t112.5 -41.5zM527 615h-265q-13 0 -22.5 9.5t-9.5 22.5t9.5 22.5t22.5 9.5h265q13 0 22.5 -9.5t9.5 -22.5t-9.5 -22.5t-22.5 -9.5z" />
    <glyph glyph-name="Ebreve" unicode="&#x114;" horiz-adv-x="653" 
d="M513 0h-438q-19 0 -29 13t-4 33l165 614q5 18 17 29t28 11h425q15 0 25.5 -10.5t10.5 -25.5t-10.5 -25.5t-25.5 -10.5h-400l-64 -239h335q15 0 25.5 -11t10.5 -25q0 -15 -10.5 -25.5t-25.5 -10.5h-354l-66 -245h385q15 0 25.5 -10.5t10.5 -25.5t-10.5 -25.5t-25.5 -10.5z
M486 760q-52 0 -85.5 26.5t-33.5 72.5q0 18 8.5 28.5t22.5 10.5q21 0 28 -22q6 -25 21.5 -38.5t49.5 -13.5q55 0 95 54q15 20 32 20q12 0 19.5 -7t7.5 -18q0 -10 -6 -19q-24 -43 -66 -68.5t-93 -25.5z" />
    <glyph glyph-name="ebreve" unicode="&#x115;" horiz-adv-x="589" 
d="M136 290h333q5 15 5 40q0 57 -33 95t-96 38q-74 0 -130.5 -49.5t-78.5 -123.5zM281 55q80 0 140 48q14 8 26 8q13 0 22 -8.5t9 -22.5q0 -16 -15 -28q-80 -64 -186 -64q-103 0 -166 61t-63 159q0 123 87.5 221.5t213.5 98.5q94 0 147 -56.5t53 -141.5q0 -28 -7 -63
q-8 -35 -42 -35h-374q0 -4 -0.5 -12.5t-0.5 -12.5q1 -69 43.5 -110.5t112.5 -41.5zM386 593q-52 0 -85.5 26.5t-33.5 72.5q0 18 8.5 28.5t22.5 10.5q21 0 28 -22q6 -25 21.5 -38.5t49.5 -13.5q55 0 95 54q15 20 32 20q12 0 19.5 -7t7.5 -18q0 -10 -6 -19q-24 -43 -66 -68.5
t-93 -25.5z" />
    <glyph glyph-name="Edotaccent" unicode="&#x116;" horiz-adv-x="653" 
d="M513 0h-438q-19 0 -29 13t-4 33l165 614q5 18 17 29t28 11h425q15 0 25.5 -10.5t10.5 -25.5t-10.5 -25.5t-25.5 -10.5h-400l-64 -239h335q15 0 25.5 -11t10.5 -25q0 -15 -10.5 -25.5t-25.5 -10.5h-354l-66 -245h385q15 0 25.5 -10.5t10.5 -25.5t-10.5 -25.5t-25.5 -10.5z
M502 864q20 0 32 -13t7 -31l-7 -25q-10 -39 -52 -39q-20 0 -31.5 12.5t-7.5 31.5l7 25q10 39 52 39z" />
    <glyph glyph-name="edotaccent" unicode="&#x117;" horiz-adv-x="589" 
d="M136 290h333q5 15 5 40q0 57 -33 95t-96 38q-74 0 -130.5 -49.5t-78.5 -123.5zM281 55q80 0 140 48q14 8 26 8q13 0 22 -8.5t9 -22.5q0 -16 -15 -28q-80 -64 -186 -64q-103 0 -166 61t-63 159q0 123 87.5 221.5t213.5 98.5q94 0 147 -56.5t53 -141.5q0 -28 -7 -63
q-8 -35 -42 -35h-374q0 -4 -0.5 -12.5t-0.5 -12.5q1 -69 43.5 -110.5t112.5 -41.5zM403 697q20 0 32 -13t7 -31l-7 -25q-10 -39 -52 -39q-20 0 -31.5 12.5t-7.5 31.5l7 25q10 39 52 39z" />
    <glyph glyph-name="Eogonek" unicode="&#x118;" horiz-adv-x="653" 
d="M528 2q-74 -54 -74 -86q0 -13 10 -20.5t36 -13.5q21 -5 20 -22q0 -24 -35 -24q-48 0 -74 18.5t-26 46.5q0 46 73 99h-383q-19 0 -29 13t-4 33l165 614q5 18 17 29t28 11h425q15 0 25.5 -10.5t10.5 -25.5t-10.5 -25.5t-25.5 -10.5h-400l-64 -239h335q15 0 25.5 -11
t10.5 -25q0 -15 -10.5 -25.5t-25.5 -10.5h-354l-66 -245h385q16 0 26 -10t10 -25q0 -20 -21 -35z" />
    <glyph glyph-name="eogonek" unicode="&#x119;" horiz-adv-x="589" 
d="M396 0q-37 -30 -52 -48t-15 -36q0 -13 10 -20.5t36 -13.5q20 -4 20 -22q0 -24 -35 -24q-48 0 -74.5 18.5t-26.5 46.5q0 44 61 90q-21 -3 -43 -3q-103 0 -166 61t-63 159q0 123 87.5 221.5t213.5 98.5q94 0 147 -56.5t53 -141.5q0 -28 -7 -63q-8 -35 -42 -35h-374
q0 -4 -0.5 -12.5t-0.5 -12.5q1 -69 43.5 -110.5t112.5 -41.5q80 0 140 48q14 8 26 8q13 0 22 -8.5t9 -22.5q0 -16 -15 -28q-5 -4 -29 -22t-38 -30zM136 290h333q5 15 5 40q0 57 -33 95t-96 38q-74 0 -130.5 -49.5t-78.5 -123.5z" />
    <glyph glyph-name="Ecaron" unicode="&#x11a;" horiz-adv-x="653" 
d="M440 782l-46 83q-7 16 -7 18q0 14 20 14q31 0 47 -19l42 -52l75 53q26 18 50 18q18 0 18 -13q0 -9 -10 -19l-91 -84q-21 -23 -45 -23h-16q-24 0 -37 24zM513 0h-438q-19 0 -29 13t-4 33l165 614q5 18 17 29t28 11h425q15 0 25.5 -10.5t10.5 -25.5t-10.5 -25.5
t-25.5 -10.5h-400l-64 -239h335q15 0 25.5 -11t10.5 -25q0 -15 -10.5 -25.5t-25.5 -10.5h-354l-66 -245h385q15 0 25.5 -10.5t10.5 -25.5t-10.5 -25.5t-25.5 -10.5z" />
    <glyph glyph-name="ecaron" unicode="&#x11b;" horiz-adv-x="589" 
d="M340 615l-46 83q-7 16 -7 18q0 14 20 14q31 0 47 -19l42 -52l75 53q26 18 50 18q18 0 18 -13q0 -9 -10 -19l-91 -84q-21 -23 -45 -23h-16q-24 0 -37 24zM136 290h333q5 15 5 40q0 57 -33 95t-96 38q-74 0 -130.5 -49.5t-78.5 -123.5zM281 55q80 0 140 48q14 8 26 8
q13 0 22 -8.5t9 -22.5q0 -16 -15 -28q-80 -64 -186 -64q-103 0 -166 61t-63 159q0 123 87.5 221.5t213.5 98.5q94 0 147 -56.5t53 -141.5q0 -28 -7 -63q-8 -35 -42 -35h-374q0 -4 -0.5 -12.5t-0.5 -12.5q1 -69 43.5 -110.5t112.5 -41.5z" />
    <glyph glyph-name="Gbreve" unicode="&#x11e;" horiz-adv-x="784" 
d="M721 327l-68 -236q-7 -30 -35 -46q-101 -58 -222 -58q-132 0 -221 80.5t-89 217.5q0 108 55.5 206t155.5 159.5t219 61.5q156 0 240 -97q15 -15 15 -33q0 -16 -10.5 -27.5t-27.5 -11.5q-15 0 -28 13q-69 84 -196 84q-94 0 -173 -51t-123 -132t-44 -169q0 -106 64 -167
t168 -61q102 0 181 49l55 194h-175q-15 0 -25.5 10.5t-10.5 24.5q0 15 10.5 25.5t25.5 10.5h225q19 0 29 -13.5t5 -33.5zM544 770q-52 0 -85.5 26.5t-33.5 72.5q0 18 8.5 28.5t22.5 10.5q21 0 28 -22q6 -25 21.5 -38.5t49.5 -13.5q55 0 95 54q15 20 32 20q12 0 19.5 -7
t7.5 -18q0 -10 -6 -19q-24 -43 -66 -68.5t-93 -25.5z" />
    <glyph glyph-name="gbreve" unicode="&#x11f;" 
d="M287 106q87 0 154 64t67 144q0 60 -43.5 103t-115.5 43q-85 0 -149 -62t-64 -153q0 -66 44 -102.5t107 -36.5zM535 404l21 80q10 38 43 38q18 0 27 -13.5t4 -34.5l-106 -400q-30 -109 -84 -163q-73 -73 -200 -73t-228 72q-19 13 -19 33q0 14 9.5 24t24.5 10q13 0 26 -8
q86 -65 186 -65q94 0 145 53q41 40 65 124l14 52q-91 -93 -198 -93q-86 0 -148 53t-62 142q0 125 88.5 209t201.5 84q132 0 190 -124zM422 593q-52 0 -85.5 26.5t-33.5 72.5q0 18 8.5 28.5t22.5 10.5q21 0 28 -22q6 -25 21.5 -38.5t49.5 -13.5q55 0 95 54q15 20 32 20
q12 0 19.5 -7t7.5 -18q0 -10 -6 -19q-24 -43 -66 -68.5t-93 -25.5z" />
    <glyph glyph-name="Gdotaccent" unicode="&#x120;" horiz-adv-x="784" 
d="M721 327l-68 -236q-7 -30 -35 -46q-101 -58 -222 -58q-132 0 -221 80.5t-89 217.5q0 108 55.5 206t155.5 159.5t219 61.5q156 0 240 -97q15 -15 15 -33q0 -16 -10.5 -27.5t-27.5 -11.5q-15 0 -28 13q-69 84 -196 84q-94 0 -173 -51t-123 -132t-44 -169q0 -106 64 -167
t168 -61q102 0 181 49l55 194h-175q-15 0 -25.5 10.5t-10.5 24.5q0 15 10.5 25.5t25.5 10.5h225q19 0 29 -13.5t5 -33.5zM561 874q20 0 32 -13t7 -31l-7 -25q-10 -39 -52 -39q-20 0 -31.5 12.5t-7.5 31.5l7 25q10 39 52 39z" />
    <glyph glyph-name="gdotaccent" unicode="&#x121;" 
d="M287 106q87 0 154 64t67 144q0 60 -43.5 103t-115.5 43q-85 0 -149 -62t-64 -153q0 -66 44 -102.5t107 -36.5zM535 404l21 80q10 38 43 38q18 0 27 -13.5t4 -34.5l-106 -400q-30 -109 -84 -163q-73 -73 -200 -73t-228 72q-19 13 -19 33q0 14 9.5 24t24.5 10q13 0 26 -8
q86 -65 186 -65q94 0 145 53q41 40 65 124l14 52q-91 -93 -198 -93q-86 0 -148 53t-62 142q0 125 88.5 209t201.5 84q132 0 190 -124zM439 697q20 0 32 -13t7 -31l-7 -25q-10 -39 -52 -39q-20 0 -31.5 12.5t-7.5 31.5l7 25q10 39 52 39z" />
    <glyph glyph-name="Gcommaaccent" unicode="&#x122;" horiz-adv-x="784" 
d="M301 -155q-33 7 -33 33q0 21 14 38.5t38 17.5q42 0 42 -43q0 -23 -11.5 -49.5t-29.5 -44.5q-40 -40 -94 -40q-16 0 -16 13q0 14 21 18q58 13 69 57zM721 327l-68 -236q-7 -30 -35 -46q-101 -58 -222 -58q-132 0 -221 80.5t-89 217.5q0 108 55.5 206t155.5 159.5t219 61.5
q156 0 240 -97q15 -15 15 -33q0 -16 -10.5 -27.5t-27.5 -11.5q-15 0 -28 13q-69 84 -196 84q-94 0 -173 -51t-123 -132t-44 -169q0 -106 64 -167t168 -61q102 0 181 49l55 194h-175q-15 0 -25.5 10.5t-10.5 24.5q0 15 10.5 25.5t25.5 10.5h225q19 0 29 -13.5t5 -33.5z" />
    <glyph glyph-name="gcommaaccent" unicode="&#x123;" 
d="M439 677q33 -7 33 -33q0 -21 -14 -38.5t-38 -17.5q-42 0 -42 43q0 23 11.5 49.5t29.5 44.5q40 40 94 40q16 0 16 -13q0 -14 -21 -18q-58 -13 -69 -57zM287 106q87 0 154 64t67 144q0 60 -43.5 103t-115.5 43q-85 0 -149 -62t-64 -153q0 -66 44 -102.5t107 -36.5zM535 404
l21 80q10 38 43 38q18 0 27 -13.5t4 -34.5l-106 -400q-30 -109 -84 -163q-73 -73 -200 -73t-228 72q-19 13 -19 33q0 14 9.5 24t24.5 10q13 0 26 -8q86 -65 186 -65q94 0 145 53q41 40 65 124l14 52q-91 -93 -198 -93q-86 0 -148 53t-62 142q0 125 88.5 209t201.5 84
q132 0 190 -124z" />
    <glyph glyph-name="Hbar" unicode="&#x126;" horiz-adv-x="756" 
d="M764 656l-23 -84h38q13 0 22.5 -9.5t9.5 -21.5q0 -13 -9.5 -22t-22.5 -9h-55l-128 -477q-10 -38 -43 -38q-19 0 -29 13.5t-4 35.5l73 271h-399l-76 -282q-11 -38 -44 -38q-19 0 -29 13.5t-4 35.5l125 466h-37q-13 0 -22.5 9t-9.5 22q0 12 9.5 21.5t22.5 9.5h54l26 95
q9 38 43 38q19 0 29 -13.5t4 -35.5l-23 -84h399l26 95q11 38 44 38q19 0 29 -13.5t4 -35.5zM214 389h399l32 121h-399z" />
    <glyph glyph-name="hbar" unicode="&#x127;" horiz-adv-x="613" 
d="M542 288l-68 -255q-10 -38 -42 -38q-19 0 -28 13.5t-3 34.5l66 250q8 27 8 58q0 51 -31 79.5t-85 28.5q-60 0 -113.5 -47t-73.5 -120l-69 -259q-9 -38 -43 -38q-18 0 -27 13.5t-4 34.5l152 569h-40q-11 0 -19 8.5t-8 19.5t8 19t19 8h55l8 30q11 38 43 38q19 0 27.5 -13
t3.5 -35l-6 -20h147q11 0 19 -8t8 -19t-8 -19.5t-19 -8.5h-161l-48 -179q84 95 180 95q75 0 120 -43.5t45 -116.5q0 -30 -13 -80z" />
    <glyph glyph-name="Imacron" unicode="&#x12a;" horiz-adv-x="291" 
d="M292 656l-167 -623q-11 -38 -44 -38q-19 0 -29 13.5t-4 35.5l168 623q10 38 43 38q19 0 29 -13.5t4 -35.5zM428 782h-265q-13 0 -22.5 9.5t-9.5 22.5t9.5 22.5t22.5 9.5h265q13 0 22.5 -9.5t9.5 -22.5t-9.5 -22.5t-22.5 -9.5z" />
    <glyph glyph-name="imacron" unicode="&#x12b;" horiz-adv-x="264" 
d="M228 474l-118 -441q-11 -38 -43 -38q-19 0 -27.5 13t-3.5 35l118 441q11 38 43 38q19 0 28 -13.5t3 -34.5zM370 615h-265q-13 0 -22.5 9.5t-9.5 22.5t9.5 22.5t22.5 9.5h265q13 0 22.5 -9.5t9.5 -22.5t-9.5 -22.5t-22.5 -9.5z" />
    <glyph glyph-name="Ibreve" unicode="&#x12c;" horiz-adv-x="291" 
d="M292 656l-167 -623q-11 -38 -44 -38q-19 0 -29 13.5t-4 35.5l168 623q10 38 43 38q19 0 29 -13.5t4 -35.5zM287 760q-52 0 -85.5 26.5t-33.5 72.5q0 18 8.5 28.5t22.5 10.5q21 0 28 -22q6 -25 21.5 -38.5t49.5 -13.5q55 0 95 54q15 20 32 20q12 0 19.5 -7t7.5 -18
q0 -10 -6 -19q-24 -43 -66 -68.5t-93 -25.5z" />
    <glyph glyph-name="ibreve" unicode="&#x12d;" horiz-adv-x="264" 
d="M228 474l-118 -441q-11 -38 -43 -38q-19 0 -27.5 13t-3.5 35l118 441q11 38 43 38q19 0 28 -13.5t3 -34.5zM228 593q-52 0 -85.5 26.5t-33.5 72.5q0 18 8.5 28.5t22.5 10.5q21 0 28 -22q6 -25 21.5 -38.5t49.5 -13.5q55 0 95 54q15 20 32 20q12 0 19.5 -7t7.5 -18
q0 -10 -6 -19q-24 -43 -66 -68.5t-93 -25.5z" />
    <glyph glyph-name="Iogonek" unicode="&#x12e;" horiz-adv-x="291" 
d="M63 -164q-48 0 -74 18.5t-26 46.5q0 49 89 110q-8 13 -4 33l168 623q10 38 43 38q19 0 29 -13.5t4 -35.5l-167 -623q-6 -19 -22 -32q-71 -54 -71 -85q0 -13 10 -20.5t36 -13.5q21 -4 21 -22q-2 -24 -36 -24z" />
    <glyph glyph-name="iogonek" unicode="&#x12f;" horiz-adv-x="264" 
d="M286 661q-9 -36 -51 -36q-20 0 -31.5 11t-7.5 28l5 21q10 35 51 35q20 0 31.5 -11t7.5 -28zM228 474l-118 -441q-5 -19 -21 -32q-71 -53 -71 -85q0 -13 10 -20.5t36 -13.5q21 -4 21 -22q-2 -24 -36 -24q-48 0 -74 18.5t-26 46.5q0 51 90 111q-6 8 -4 21q0 7 1 10l118 441
q11 38 43 38q19 0 28 -13.5t3 -34.5z" />
    <glyph glyph-name="Idotaccent" unicode="&#x130;" horiz-adv-x="291" 
d="M292 656l-167 -623q-11 -38 -44 -38q-19 0 -29 13.5t-4 35.5l168 623q10 38 43 38q19 0 29 -13.5t4 -35.5zM305 864q20 0 32 -13t7 -31l-7 -25q-10 -39 -52 -39q-20 0 -31.5 12.5t-7.5 31.5l7 25q10 39 52 39z" />
    <glyph glyph-name="dotlessi" unicode="&#x131;" horiz-adv-x="264" 
d="M228 474l-118 -441q-11 -38 -43 -38q-19 0 -27.5 13t-3.5 35l118 441q11 38 43 38q19 0 28 -13.5t3 -34.5z" />
    <glyph glyph-name="Kcommaaccent" unicode="&#x136;" horiz-adv-x="718" 
d="M267 -149q-33 7 -33 33q0 21 14 38.5t38 17.5q42 0 42 -43q0 -23 -11.5 -49.5t-29.5 -44.5q-40 -40 -94 -40q-16 0 -16 13q0 14 21 18q58 13 69 57zM157 179l-39 -146q-11 -38 -44 -38q-19 0 -29 13.5t-4 35.5l168 623q9 38 43 38q19 0 29 -13.5t4 -35.5l-99 -372
l496 406q17 15 33 15t26 -10.5t10 -25.5q0 -18 -16 -31l-308 -249l172 -329q8 -18 8 -28q0 -15 -12 -26t-27 -11q-29 0 -41 28l-166 321z" />
    <glyph glyph-name="kcommaaccent" unicode="&#x137;" horiz-adv-x="568" 
d="M183 -154q-33 7 -33 33q0 21 14 38.5t38 17.5q42 0 42 -43q0 -23 -11.5 -49.5t-29.5 -44.5q-40 -40 -94 -40q-16 0 -16 13q0 14 21 18q58 13 69 57zM278 687l-122 -457l348 278q16 14 31 14q14 0 23 -9t9 -23q0 -17 -16 -28l-217 -171l118 -232q9 -18 9 -28
q0 -16 -11.5 -26t-27.5 -10q-26 0 -40 28l-113 220l-139 -110l-27 -100q-9 -38 -43 -38q-18 0 -27 13.5t-4 34.5l176 654q9 38 42 38q19 0 28 -13.5t3 -34.5z" />
    <glyph glyph-name="Lacute" unicode="&#x139;" horiz-adv-x="607" 
d="M436 849l-97 -72q-23 -19 -51 -19q-22 0 -22 15q0 7 7 16l85 92q21 21 37 21q18 0 36.5 -10.5t18.5 -20.5q0 -11 -14 -22zM481 0h-406q-19 0 -29 13t-4 33l167 621q9 38 43 38q19 0 29 -13.5t4 -35.5l-156 -583h352q15 0 25.5 -11t10.5 -26t-10.5 -25.5t-25.5 -10.5z" />
    <glyph glyph-name="lacute" unicode="&#x13a;" horiz-adv-x="264" 
d="M424 870l-97 -72q-23 -19 -51 -19q-22 0 -22 15q0 7 7 16l85 92q21 21 37 21q18 0 36.5 -10.5t18.5 -20.5q0 -11 -14 -22zM285 687l-175 -654q-11 -38 -43 -38q-19 0 -27.5 13t-3.5 35l175 654q11 38 43 38q19 0 28 -13.5t3 -34.5z" />
    <glyph glyph-name="Lcommaaccent" unicode="&#x13b;" horiz-adv-x="607" 
d="M212 -154q-33 7 -33 33q0 21 14 38.5t38 17.5q42 0 42 -43q0 -23 -11.5 -49.5t-29.5 -44.5q-40 -40 -94 -40q-16 0 -16 13q0 14 21 18q58 13 69 57zM481 0h-406q-19 0 -29 13t-4 33l167 621q9 38 43 38q19 0 29 -13.5t4 -35.5l-156 -583h352q15 0 25.5 -11t10.5 -26
t-10.5 -25.5t-25.5 -10.5z" />
    <glyph glyph-name="lcommaaccent" unicode="&#x13c;" horiz-adv-x="264" 
d="M26 -154q-33 7 -33 33q0 21 14 38.5t38 17.5q42 0 42 -43q0 -23 -11.5 -49.5t-29.5 -44.5q-40 -40 -94 -40q-16 0 -16 13q0 14 21 18q58 13 69 57zM285 687l-175 -654q-11 -38 -43 -38q-19 0 -27.5 13t-3.5 35l175 654q11 38 43 38q19 0 28 -13.5t3 -34.5z" />
    <glyph glyph-name="Lcaron" unicode="&#x13d;" horiz-adv-x="607" 
d="M335 555l40 117q11 30 42 30h16q18 0 18 -14q0 -9 -10 -25l-66 -113q-11 -19 -27 -19q-15 0 -15 12q0 2 2 12zM481 0h-406q-19 0 -29 13t-4 33l167 621q9 38 43 38q19 0 29 -13.5t4 -35.5l-156 -583h352q15 0 25.5 -11t10.5 -26t-10.5 -25.5t-25.5 -10.5z" />
    <glyph glyph-name="lcaron" unicode="&#x13e;" horiz-adv-x="264" 
d="M313 585l40 117q11 30 42 30h16q18 0 18 -14q0 -9 -10 -25l-66 -113q-11 -19 -27 -19q-15 0 -15 12q0 2 2 12zM285 687l-175 -654q-11 -38 -43 -38q-19 0 -27.5 13t-3.5 35l175 654q11 38 43 38q19 0 28 -13.5t3 -34.5z" />
    <glyph glyph-name="Ldot" unicode="&#x13f;" horiz-adv-x="607" 
d="M504 420q20 0 32 -13t8 -32l-5 -20q-9 -39 -54 -39q-21 0 -33 13t-8 32l5 20q9 39 55 39zM481 0h-406q-19 0 -29 13t-4 33l167 621q9 38 43 38q19 0 29 -13.5t4 -35.5l-156 -583h352q15 0 25.5 -11t10.5 -26t-10.5 -25.5t-25.5 -10.5z" />
    <glyph glyph-name="ldot" unicode="&#x140;" horiz-adv-x="332" 
d="M336 420q19 0 30 -13t7 -31l-5 -19q-10 -39 -48 -39q-19 0 -30.5 13.5t-6.5 31.5l5 19q10 38 48 38zM285 687l-175 -654q-11 -38 -43 -38q-19 0 -27.5 13t-3.5 35l175 654q11 38 43 38q19 0 28 -13.5t3 -34.5z" />
    <glyph glyph-name="Lslash" unicode="&#x141;" horiz-adv-x="652" 
d="M109 356l66 19l79 292q10 38 43 38q18 0 28 -13.5t4 -35.5l-69 -257l176 50q15 3 20 3q14 0 22.5 -8.5t8.5 -22.5q0 -25 -30 -34l-217 -62l-68 -252h354q15 0 25.5 -11t10.5 -26t-10.5 -25.5t-25.5 -10.5h-406q-19 0 -29 13t-4 33l68 255l-25 -7q-8 -3 -19 -3
q-32 0 -32 31q0 25 30 34z" />
    <glyph glyph-name="lslash" unicode="&#x142;" horiz-adv-x="323" 
d="M93 376l67 18l81 303q11 38 43 38q19 0 28 -13.5t3 -34.5l-72 -269l29 8q12 3 18 3q13 0 21.5 -9t8.5 -23q0 -26 -28 -34l-69 -20l-83 -310q-11 -38 -43 -38q-19 0 -27.5 13t-3.5 35l74 277l-27 -7q-12 -3 -18 -3q-13 0 -21.5 9t-8.5 23q0 26 28 34z" />
    <glyph glyph-name="Nacute" unicode="&#x143;" horiz-adv-x="786" 
d="M677 849l-97 -72q-23 -19 -51 -19q-22 0 -22 15q0 7 7 16l85 92q21 21 37 21q18 0 36.5 -10.5t18.5 -20.5q0 -11 -14 -22zM576 132l144 535q10 38 43 38q19 0 28.5 -13.5t2.5 -35.5l-167 -624q-10 -35 -40 -35h-2q-28 0 -43 31l-279 553l-147 -548q-11 -38 -43 -38
q-19 0 -28.5 13.5t-3.5 35.5l167 620q10 39 46 39h4q31 0 49 -35z" />
    <glyph glyph-name="nacute" unicode="&#x144;" horiz-adv-x="613" 
d="M543 682l-97 -72q-23 -19 -51 -19q-22 0 -22 15q0 7 7 16l85 92q21 21 37 21q18 0 36.5 -10.5t18.5 -20.5q0 -11 -14 -22zM190 522q17 0 26 -11t7 -27l-13 -51q84 95 180 95q75 0 120 -43.5t45 -116.5q0 -30 -13 -80l-68 -255q-10 -38 -42 -38q-19 0 -28 13.5t-3 34.5
l66 250q8 27 8 58q0 51 -31 79.5t-85 28.5q-60 0 -113.5 -47t-73.5 -120l-69 -259q-9 -38 -43 -38q-18 0 -27 13.5t-4 34.5l118 441q9 38 43 38z" />
    <glyph glyph-name="Ncommaaccent" unicode="&#x145;" horiz-adv-x="786" 
d="M287 -149q-33 7 -33 33q0 21 14 38.5t38 17.5q42 0 42 -43q0 -23 -11.5 -49.5t-29.5 -44.5q-40 -40 -94 -40q-16 0 -16 13q0 14 21 18q58 13 69 57zM576 132l144 535q10 38 43 38q19 0 28.5 -13.5t2.5 -35.5l-167 -624q-10 -35 -40 -35h-2q-28 0 -43 31l-279 553
l-147 -548q-11 -38 -43 -38q-19 0 -28.5 13.5t-3.5 35.5l167 620q10 39 46 39h4q31 0 49 -35z" />
    <glyph glyph-name="ncommaaccent" unicode="&#x146;" horiz-adv-x="613" 
d="M197 -154q-33 7 -33 33q0 21 14 38.5t38 17.5q42 0 42 -43q0 -23 -11.5 -49.5t-29.5 -44.5q-40 -40 -94 -40q-16 0 -16 13q0 14 21 18q58 13 69 57zM190 522q17 0 26 -11t7 -27l-13 -51q84 95 180 95q75 0 120 -43.5t45 -116.5q0 -30 -13 -80l-68 -255q-10 -38 -42 -38
q-19 0 -28 13.5t-3 34.5l66 250q8 27 8 58q0 51 -31 79.5t-85 28.5q-60 0 -113.5 -47t-73.5 -120l-69 -259q-9 -38 -43 -38q-18 0 -27 13.5t-4 34.5l118 441q9 38 43 38z" />
    <glyph glyph-name="Ncaron" unicode="&#x147;" horiz-adv-x="786" 
d="M488 782l-46 83q-7 16 -7 18q0 14 20 14q31 0 47 -19l42 -52l75 53q26 18 50 18q18 0 18 -13q0 -9 -10 -19l-91 -84q-21 -23 -45 -23h-16q-24 0 -37 24zM576 132l144 535q10 38 43 38q19 0 28.5 -13.5t2.5 -35.5l-167 -624q-10 -35 -40 -35h-2q-28 0 -43 31l-279 553
l-147 -548q-11 -38 -43 -38q-19 0 -28.5 13.5t-3.5 35.5l167 620q10 39 46 39h4q31 0 49 -35z" />
    <glyph glyph-name="ncaron" unicode="&#x148;" horiz-adv-x="613" 
d="M353 615l-46 83q-7 16 -7 18q0 14 20 14q31 0 47 -19l42 -52l75 53q26 18 50 18q18 0 18 -13q0 -9 -10 -19l-91 -84q-21 -23 -45 -23h-16q-24 0 -37 24zM190 522q17 0 26 -11t7 -27l-13 -51q84 95 180 95q75 0 120 -43.5t45 -116.5q0 -30 -13 -80l-68 -255
q-10 -38 -42 -38q-19 0 -28 13.5t-3 34.5l66 250q8 27 8 58q0 51 -31 79.5t-85 28.5q-60 0 -113.5 -47t-73.5 -120l-69 -259q-9 -38 -43 -38q-18 0 -27 13.5t-4 34.5l118 441q9 38 43 38z" />
    <glyph glyph-name="Omacron" unicode="&#x14c;" horiz-adv-x="842" 
d="M693 792h-265q-13 0 -22.5 9.5t-9.5 22.5t9.5 22.5t22.5 9.5h265q13 0 22.5 -9.5t9.5 -22.5t-9.5 -22.5t-22.5 -9.5zM395 -13q-134 0 -220.5 87t-86.5 217q0 108 53 204.5t148 156.5t207 60q134 0 220.5 -87t86.5 -216q0 -108 -53 -205t-148 -157t-207 -60zM400 60
q89 0 163.5 50t115.5 129.5t41 166.5q0 101 -63 167t-166 66q-89 0 -163.5 -50t-115.5 -129.5t-41 -166.5q0 -101 63 -167t166 -66z" />
    <glyph glyph-name="omacron" unicode="&#x14d;" horiz-adv-x="638" 
d="M550 615h-265q-13 0 -22.5 9.5t-9.5 22.5t9.5 22.5t22.5 9.5h265q13 0 22.5 -9.5t9.5 -22.5t-9.5 -22.5t-22.5 -9.5zM284 -12q-105 0 -170 65t-65 167q0 122 90.5 215t213.5 93q106 0 171 -65t65 -166q0 -124 -91.5 -216.5t-213.5 -92.5zM289 57q87 0 154 72.5t67 164.5
q0 78 -44.5 122t-117.5 44q-88 0 -154.5 -73.5t-66.5 -164.5q0 -77 44.5 -121t117.5 -44z" />
    <glyph glyph-name="Obreve" unicode="&#x14e;" horiz-adv-x="842" 
d="M395 -13q-134 0 -220.5 87t-86.5 217q0 108 53 204.5t148 156.5t207 60q134 0 220.5 -87t86.5 -216q0 -108 -53 -205t-148 -157t-207 -60zM400 60q89 0 163.5 50t115.5 129.5t41 166.5q0 101 -63 167t-166 66q-89 0 -163.5 -50t-115.5 -129.5t-41 -166.5q0 -101 63 -167
t166 -66zM552 770q-52 0 -85.5 26.5t-33.5 72.5q0 18 8.5 28.5t22.5 10.5q21 0 28 -22q6 -25 21.5 -38.5t49.5 -13.5q55 0 95 54q15 20 32 20q12 0 19.5 -7t7.5 -18q0 -10 -6 -19q-24 -43 -66 -68.5t-93 -25.5z" />
    <glyph glyph-name="obreve" unicode="&#x14f;" horiz-adv-x="638" 
d="M284 -12q-105 0 -170 65t-65 167q0 122 90.5 215t213.5 93q106 0 171 -65t65 -166q0 -124 -91.5 -216.5t-213.5 -92.5zM289 57q87 0 154 72.5t67 164.5q0 78 -44.5 122t-117.5 44q-88 0 -154.5 -73.5t-66.5 -164.5q0 -77 44.5 -121t117.5 -44zM409 593q-52 0 -85.5 26.5
t-33.5 72.5q0 18 8.5 28.5t22.5 10.5q21 0 28 -22q6 -25 21.5 -38.5t49.5 -13.5q55 0 95 54q15 20 32 20q12 0 19.5 -7t7.5 -18q0 -10 -6 -19q-24 -43 -66 -68.5t-93 -25.5z" />
    <glyph glyph-name="Ohungarumlaut" unicode="&#x150;" horiz-adv-x="842" 
d="M541 912q16 0 27.5 -9.5t11.5 -21.5q0 -11 -15 -23l-91 -71q-23 -19 -45 -19q-18 0 -18 14q0 9 8 17l85 92q21 21 37 21zM705 912q16 0 27 -9.5t11 -21.5t-14 -23l-91 -71q-23 -19 -46 -19q-17 0 -17 14q0 9 8 17l85 92q21 21 37 21zM395 -13q-134 0 -220.5 87t-86.5 217
q0 108 53 204.5t148 156.5t207 60q134 0 220.5 -87t86.5 -216q0 -108 -53 -205t-148 -157t-207 -60zM400 60q89 0 163.5 50t115.5 129.5t41 166.5q0 101 -63 167t-166 66q-89 0 -163.5 -50t-115.5 -129.5t-41 -166.5q0 -101 63 -167t166 -66z" />
    <glyph glyph-name="ohungarumlaut" unicode="&#x151;" horiz-adv-x="638" 
d="M397 735q16 0 27.5 -9.5t11.5 -21.5q0 -11 -15 -23l-91 -71q-23 -19 -45 -19q-18 0 -18 14q0 9 8 17l85 92q21 21 37 21zM561 735q16 0 27 -9.5t11 -21.5t-14 -23l-91 -71q-23 -19 -46 -19q-17 0 -17 14q0 9 8 17l85 92q21 21 37 21zM284 -12q-105 0 -170 65t-65 167
q0 122 90.5 215t213.5 93q106 0 171 -65t65 -166q0 -124 -91.5 -216.5t-213.5 -92.5zM289 57q87 0 154 72.5t67 164.5q0 78 -44.5 122t-117.5 44q-88 0 -154.5 -73.5t-66.5 -164.5q0 -77 44.5 -121t117.5 -44z" />
    <glyph glyph-name="OE" unicode="&#x152;" horiz-adv-x="1132" 
d="M440 73h89l149 554h-133q-178 0 -290 -110q-87 -87 -87 -218q0 -97 58 -155q73 -71 214 -71zM980 0h-545q-180 0 -274 94q-76 76 -76 200q0 160 111 273q133 133 359 133h588q15 0 26 -10.5t11 -25.5t-11 -25.5t-26 -10.5h-386l-64 -239h322q14 0 25 -11t11 -25
q0 -15 -11 -25.5t-25 -10.5h-341l-66 -245h372q15 0 25.5 -10.5t10.5 -25.5t-10.5 -25.5t-25.5 -10.5z" />
    <glyph glyph-name="oe" unicode="&#x153;" horiz-adv-x="1041" 
d="M590 290h333q4 18 4 40q0 57 -33 95t-96 38q-74 0 -130.5 -49.5t-77.5 -123.5zM289 57q87 0 154 70.5t67 162.5q0 79 -44.5 124.5t-117.5 45.5q-89 0 -155 -72.5t-66 -164.5q0 -77 44.5 -121.5t117.5 -44.5zM734 55q79 0 140 48q14 8 27 8t21.5 -9t8.5 -22q0 -16 -15 -28
q-81 -64 -184 -64q-78 0 -133.5 38t-74.5 102q-41 -63 -102.5 -101.5t-139.5 -38.5q-103 0 -168 65.5t-65 166.5q0 122 90.5 215t213.5 93q81 0 135.5 -41t73.5 -106q89 147 240 147q94 0 147 -56.5t53 -141.5q0 -30 -8 -66q-7 -32 -37 -32h-378q0 -4 -0.5 -12.5t-0.5 -12.5
q1 -69 43.5 -110.5t112.5 -41.5z" />
    <glyph glyph-name="Racute" unicode="&#x154;" horiz-adv-x="717" 
d="M608 849l-97 -72q-23 -19 -51 -19q-22 0 -22 15q0 7 7 16l85 92q21 21 37 21q18 0 36.5 -10.5t18.5 -20.5q0 -11 -14 -22zM182 272l-64 -239q-11 -38 -44 -38q-19 0 -29 13.5t-4 35.5l166 616q5 18 17 29t28 11h218q131 0 197 -64q46 -48 46 -121q0 -88 -62 -152
q-64 -64 -192 -83l120 -219q10 -17 10 -29q0 -16 -12 -26.5t-28 -10.5q-28 0 -42 26l-135 251h-190zM201 343h190q135 0 199 64q42 44 42 102q0 47 -29 76q-42 42 -137 42h-188z" />
    <glyph glyph-name="racute" unicode="&#x155;" horiz-adv-x="402" 
d="M439 682l-97 -72q-23 -19 -51 -19q-22 0 -22 15q0 7 7 16l85 92q21 21 37 21q18 0 36.5 -10.5t18.5 -20.5q0 -11 -14 -22zM221 477l-24 -92q41 64 96 101.5t107 37.5q17 0 27 -9.5t10 -26.5q0 -36 -44 -43q-83 -12 -149.5 -74t-94.5 -167l-46 -171q-11 -38 -43 -38
q-19 0 -27.5 13t-3.5 35l118 441q9 38 42 38q19 0 28 -12.5t4 -32.5z" />
    <glyph glyph-name="Rcommaaccent" unicode="&#x156;" horiz-adv-x="717" 
d="M252 -149q-33 7 -33 33q0 21 14 38.5t38 17.5q42 0 42 -43q0 -23 -11.5 -49.5t-29.5 -44.5q-40 -40 -94 -40q-16 0 -16 13q0 14 21 18q58 13 69 57zM182 272l-64 -239q-11 -38 -44 -38q-19 0 -29 13.5t-4 35.5l166 616q5 18 17 29t28 11h218q131 0 197 -64
q46 -48 46 -121q0 -88 -62 -152q-64 -64 -192 -83l120 -219q10 -17 10 -29q0 -16 -12 -26.5t-28 -10.5q-28 0 -42 26l-135 251h-190zM201 343h190q135 0 199 64q42 44 42 102q0 47 -29 76q-42 42 -137 42h-188z" />
    <glyph glyph-name="rcommaaccent" unicode="&#x157;" horiz-adv-x="402" 
d="M26 -154q-33 7 -33 33q0 21 14 38.5t38 17.5q42 0 42 -43q0 -23 -11.5 -49.5t-29.5 -44.5q-40 -40 -94 -40q-16 0 -16 13q0 14 21 18q58 13 69 57zM221 477l-24 -92q41 64 96 101.5t107 37.5q17 0 27 -9.5t10 -26.5q0 -36 -44 -43q-83 -12 -149.5 -74t-94.5 -167
l-46 -171q-11 -38 -43 -38q-19 0 -27.5 13t-3.5 35l118 441q9 38 42 38q19 0 28 -12.5t4 -32.5z" />
    <glyph glyph-name="Rcaron" unicode="&#x158;" horiz-adv-x="717" 
d="M419 782l-46 83q-7 16 -7 18q0 14 20 14q31 0 47 -19l42 -52l75 53q26 18 50 18q18 0 18 -13q0 -9 -10 -19l-91 -84q-21 -23 -45 -23h-16q-24 0 -37 24zM182 272l-64 -239q-11 -38 -44 -38q-19 0 -29 13.5t-4 35.5l166 616q5 18 17 29t28 11h218q131 0 197 -64
q46 -48 46 -121q0 -88 -62 -152q-64 -64 -192 -83l120 -219q10 -17 10 -29q0 -16 -12 -26.5t-28 -10.5q-28 0 -42 26l-135 251h-190zM201 343h190q135 0 199 64q42 44 42 102q0 47 -29 76q-42 42 -137 42h-188z" />
    <glyph glyph-name="rcaron" unicode="&#x159;" horiz-adv-x="402" 
d="M249 615l-46 83q-7 16 -7 18q0 14 20 14q31 0 47 -19l42 -52l75 53q26 18 50 18q18 0 18 -13q0 -9 -10 -19l-91 -84q-21 -23 -45 -23h-16q-24 0 -37 24zM221 477l-24 -92q41 64 96 101.5t107 37.5q17 0 27 -9.5t10 -26.5q0 -36 -44 -43q-83 -12 -149.5 -74t-94.5 -167
l-46 -171q-11 -38 -43 -38q-19 0 -27.5 13t-3.5 35l118 441q9 38 42 38q19 0 28 -12.5t4 -32.5z" />
    <glyph glyph-name="Sacute" unicode="&#x15a;" horiz-adv-x="637" 
d="M592 859l-97 -72q-23 -19 -51 -19q-22 0 -22 15q0 7 7 16l85 92q21 21 37 21q18 0 36.5 -10.5t18.5 -20.5q0 -11 -14 -22zM303 61q76 0 126.5 37t50.5 94q0 40 -31.5 68.5t-112.5 59.5q-103 41 -147.5 81.5t-44.5 105.5q0 87 72.5 145t185.5 58q129 0 221 -80
q18 -14 18 -33q0 -16 -11.5 -27t-27.5 -11q-15 0 -28 10q-73 70 -179 70q-76 0 -122 -36.5t-46 -86.5q0 -41 34 -68t121 -61q94 -36 137.5 -78t43.5 -107q0 -92 -76 -152t-189 -60q-165 0 -262 104q-15 15 -15 33q0 17 10.5 28.5t26.5 11.5q18 0 30 -14q84 -92 215 -92z" />
    <glyph glyph-name="sacute" unicode="&#x15b;" horiz-adv-x="496" 
d="M476 682l-97 -72q-23 -19 -51 -19q-22 0 -22 15q0 7 7 16l85 92q21 21 37 21q18 0 36.5 -10.5t18.5 -20.5q0 -11 -14 -22zM224 53q46 0 80 24t34 62q0 26 -21.5 46.5t-76.5 41.5q-76 30 -111 60.5t-35 81.5q0 68 54 113.5t142 45.5q45 0 91 -16t76 -37q19 -11 19 -32
q0 -14 -10 -24t-24 -10q-10 0 -22 8q-70 47 -137 47q-52 0 -82 -24t-30 -58q0 -26 21.5 -45.5t81.5 -42.5q74 -30 107.5 -62t33.5 -80q0 -71 -57 -117t-141 -46q-113 0 -201 70q-16 13 -16 31q0 14 10 24.5t23 10.5q12 0 27 -11q75 -61 164 -61z" />
    <glyph glyph-name="Scedilla" unicode="&#x15e;" horiz-adv-x="637" 
d="M303 61q76 0 126.5 37t50.5 94q0 40 -31.5 68.5t-112.5 59.5q-103 41 -147.5 81.5t-44.5 105.5q0 87 72.5 145t185.5 58q129 0 221 -80q18 -14 18 -33q0 -16 -11.5 -27t-27.5 -11q-15 0 -28 10q-73 70 -179 70q-76 0 -122 -36.5t-46 -86.5q0 -41 34 -68t121 -61
q94 -36 137.5 -78t43.5 -107q0 -92 -76 -152t-189 -60h-8l-89 -122q-11 -17 -29 -17q-15 0 -26.5 9.5t-11.5 20.5q0 13 11 25l85 89q-118 17 -194 99q-15 15 -15 33q0 17 10.5 28.5t26.5 11.5q18 0 30 -14q84 -92 215 -92z" />
    <glyph glyph-name="scedilla" unicode="&#x15f;" horiz-adv-x="496" 
d="M224 53q46 0 80 24t34 62q0 26 -21.5 46.5t-76.5 41.5q-76 30 -111 60.5t-35 81.5q0 68 54 113.5t142 45.5q45 0 91 -16t76 -37q19 -11 19 -32q0 -14 -10 -24t-24 -10q-10 0 -22 8q-70 47 -137 47q-52 0 -82 -24t-30 -58q0 -26 21.5 -45.5t81.5 -42.5q74 -30 107.5 -62
t33.5 -80q0 -71 -57 -117t-141 -46h-4l-88 -121q-11 -17 -29 -17q-15 0 -26.5 9.5t-11.5 20.5q0 13 11 25l85 89q-78 16 -138 64q-16 13 -16 31q0 14 10 24.5t23 10.5q12 0 27 -11q75 -61 164 -61z" />
    <glyph glyph-name="Scaron" unicode="&#x160;" horiz-adv-x="637" 
d="M402 792l-46 83q-7 16 -7 18q0 14 20 14q31 0 47 -19l42 -52l75 53q26 18 50 18q18 0 18 -13q0 -9 -10 -19l-91 -84q-21 -23 -45 -23h-16q-24 0 -37 24zM303 61q76 0 126.5 37t50.5 94q0 40 -31.5 68.5t-112.5 59.5q-103 41 -147.5 81.5t-44.5 105.5q0 87 72.5 145
t185.5 58q129 0 221 -80q18 -14 18 -33q0 -16 -11.5 -27t-27.5 -11q-15 0 -28 10q-73 70 -179 70q-76 0 -122 -36.5t-46 -86.5q0 -41 34 -68t121 -61q94 -36 137.5 -78t43.5 -107q0 -92 -76 -152t-189 -60q-165 0 -262 104q-15 15 -15 33q0 17 10.5 28.5t26.5 11.5
q18 0 30 -14q84 -92 215 -92z" />
    <glyph glyph-name="scaron" unicode="&#x161;" horiz-adv-x="496" 
d="M287 615l-46 83q-7 16 -7 18q0 14 20 14q31 0 47 -19l42 -52l75 53q26 18 50 18q18 0 18 -13q0 -9 -10 -19l-91 -84q-21 -23 -45 -23h-16q-24 0 -37 24zM224 53q46 0 80 24t34 62q0 26 -21.5 46.5t-76.5 41.5q-76 30 -111 60.5t-35 81.5q0 68 54 113.5t142 45.5
q45 0 91 -16t76 -37q19 -11 19 -32q0 -14 -10 -24t-24 -10q-10 0 -22 8q-70 47 -137 47q-52 0 -82 -24t-30 -58q0 -26 21.5 -45.5t81.5 -42.5q74 -30 107.5 -62t33.5 -80q0 -71 -57 -117t-141 -46q-113 0 -201 70q-16 13 -16 31q0 14 10 24.5t23 10.5q12 0 27 -11
q75 -61 164 -61z" />
    <glyph glyph-name="Tcommaaccent" unicode="&#x162;" horiz-adv-x="616" 
d="M198 -154q-33 7 -33 33q0 21 14 38.5t38 17.5q42 0 42 -43q0 -23 -11.5 -49.5t-29.5 -44.5q-40 -40 -94 -40q-16 0 -16 13q0 14 21 18q58 13 69 57zM443 627l-159 -594q-11 -38 -44 -38q-19 0 -29 13.5t-4 35.5l157 583h-193q-15 0 -26 10.5t-11 25.5t11 26t26 11h485
q15 0 26 -11t11 -26t-11 -25.5t-26 -10.5h-213z" />
    <glyph glyph-name="tcommaaccent" unicode="&#x163;" horiz-adv-x="401" 
d="M123 -154q-33 7 -33 33q0 21 14 38.5t38 17.5q42 0 42 -43q0 -23 -11.5 -49.5t-29.5 -44.5q-40 -40 -94 -40q-16 0 -16 13q0 14 21 18q58 13 69 57zM183 517l33 123q10 38 43 38q18 0 27 -13.5t4 -34.5l-31 -113h124q14 0 23.5 -10t9.5 -24t-9.5 -24t-23.5 -10h-142
l-80 -298q-4 -24 -4 -38q0 -53 71 -53q20 0 33 4q16 4 26.5 -4t10.5 -24q0 -22 -25 -34q-31 -11 -70 -11q-58 0 -92.5 26.5t-34.5 75.5q0 26 7 54l81 302h-35q-13 1 -22.5 10.5t-9.5 23.5t10 24t24 10h52z" />
    <glyph glyph-name="Tcaron" unicode="&#x164;" horiz-adv-x="616" 
d="M399 782l-46 83q-7 16 -7 18q0 14 20 14q31 0 47 -19l42 -52l75 53q26 18 50 18q18 0 18 -13q0 -9 -10 -19l-91 -84q-21 -23 -45 -23h-16q-24 0 -37 24zM443 627l-159 -594q-11 -38 -44 -38q-19 0 -29 13.5t-4 35.5l157 583h-193q-15 0 -26 10.5t-11 25.5t11 26t26 11
h485q15 0 26 -11t11 -26t-11 -25.5t-26 -10.5h-213z" />
    <glyph glyph-name="tcaron" unicode="&#x165;" horiz-adv-x="401" 
d="M364 608l40 117q10 30 42 30h16q18 0 18 -14q0 -9 -10 -25l-66 -113q-11 -19 -27 -19q-15 0 -15 12q0 2 2 12zM183 517l33 123q10 38 43 38q18 0 27 -13.5t4 -34.5l-31 -113h124q14 0 23.5 -10t9.5 -24t-9.5 -24t-23.5 -10h-142l-80 -298q-4 -24 -4 -38q0 -53 71 -53
q20 0 33 4q16 4 26.5 -4t10.5 -24q0 -22 -25 -34q-31 -11 -70 -11q-58 0 -92.5 26.5t-34.5 75.5q0 26 7 54l81 302h-35q-13 1 -22.5 10.5t-9.5 23.5t10 24t24 10h52z" />
    <glyph glyph-name="Umacron" unicode="&#x16a;" horiz-adv-x="758" 
d="M775 656l-100 -373q-36 -133 -110 -207q-87 -87 -218 -87q-122 0 -188.5 61.5t-66.5 162.5q0 55 15 109l92 345q9 38 43 38q19 0 29 -13.5t4 -35.5l-94 -355q-10 -42 -10 -79q0 -72 46.5 -116t136.5 -44q91 0 156 64q61 63 89 171l100 370q9 38 43 38q19 0 29 -13.5
t4 -35.5zM651 782h-265q-13 0 -22.5 9.5t-9.5 22.5t9.5 22.5t22.5 9.5h265q13 0 22.5 -9.5t9.5 -22.5t-9.5 -22.5t-22.5 -9.5z" />
    <glyph glyph-name="umacron" unicode="&#x16b;" horiz-adv-x="613" 
d="M422 -5q-16 0 -25 11t-7 27l13 51q-84 -95 -181 -95q-75 0 -119.5 43.5t-44.5 116.5q0 30 13 80l67 255q11 38 43 38q19 0 27.5 -13t3.5 -35l-67 -250q-7 -30 -7 -58q0 -51 30.5 -79.5t84.5 -28.5q61 0 114.5 47.5t72.5 120.5l69 258q11 38 43 38q19 0 28 -13.5t3 -34.5
l-117 -441q-10 -38 -44 -38zM533 615h-265q-13 0 -22.5 9.5t-9.5 22.5t9.5 22.5t22.5 9.5h265q13 0 22.5 -9.5t9.5 -22.5t-9.5 -22.5t-22.5 -9.5z" />
    <glyph glyph-name="Ubreve" unicode="&#x16c;" horiz-adv-x="758" 
d="M775 656l-100 -373q-36 -133 -110 -207q-87 -87 -218 -87q-122 0 -188.5 61.5t-66.5 162.5q0 55 15 109l92 345q9 38 43 38q19 0 29 -13.5t4 -35.5l-94 -355q-10 -42 -10 -79q0 -72 46.5 -116t136.5 -44q91 0 156 64q61 63 89 171l100 370q9 38 43 38q19 0 29 -13.5
t4 -35.5zM511 760q-52 0 -85.5 26.5t-33.5 72.5q0 18 8.5 28.5t22.5 10.5q21 0 28 -22q6 -25 21.5 -38.5t49.5 -13.5q55 0 95 54q15 20 32 20q12 0 19.5 -7t7.5 -18q0 -10 -6 -19q-24 -43 -66 -68.5t-93 -25.5z" />
    <glyph glyph-name="ubreve" unicode="&#x16d;" horiz-adv-x="613" 
d="M422 -5q-16 0 -25 11t-7 27l13 51q-84 -95 -181 -95q-75 0 -119.5 43.5t-44.5 116.5q0 30 13 80l67 255q11 38 43 38q19 0 27.5 -13t3.5 -35l-67 -250q-7 -30 -7 -58q0 -51 30.5 -79.5t84.5 -28.5q61 0 114.5 47.5t72.5 120.5l69 258q11 38 43 38q19 0 28 -13.5t3 -34.5
l-117 -441q-10 -38 -44 -38zM392 593q-52 0 -85.5 26.5t-33.5 72.5q0 18 8.5 28.5t22.5 10.5q21 0 28 -22q6 -25 21.5 -38.5t49.5 -13.5q55 0 95 54q15 20 32 20q12 0 19.5 -7t7.5 -18q0 -10 -6 -19q-24 -43 -66 -68.5t-93 -25.5z" />
    <glyph glyph-name="Uring" unicode="&#x16e;" horiz-adv-x="758" 
d="M519 752q-44 0 -70.5 25t-26.5 63q0 45 34.5 78t80.5 33q44 0 71 -25t27 -63q0 -45 -34.5 -78t-81.5 -33zM521 791q29 0 49.5 21t20.5 50q0 23 -14 37t-41 14q-29 0 -50 -21.5t-21 -50.5q0 -22 14.5 -36t41.5 -14zM775 656l-100 -373q-36 -133 -110 -207
q-87 -87 -218 -87q-122 0 -188.5 61.5t-66.5 162.5q0 55 15 109l92 345q9 38 43 38q19 0 29 -13.5t4 -35.5l-94 -355q-10 -42 -10 -79q0 -72 46.5 -116t136.5 -44q91 0 156 64q61 63 89 171l100 370q9 38 43 38q19 0 29 -13.5t4 -35.5z" />
    <glyph glyph-name="uring" unicode="&#x16f;" horiz-adv-x="613" 
d="M402 591q-44 0 -70.5 25t-26.5 63q0 45 34.5 78t80.5 33q44 0 71 -25t27 -63q0 -45 -34.5 -78t-81.5 -33zM404 630q29 0 49.5 21t20.5 50q0 23 -14 37t-41 14q-29 0 -50 -21.5t-21 -50.5q0 -22 14.5 -36t41.5 -14zM422 -5q-16 0 -25 11t-7 27l13 51q-84 -95 -181 -95
q-75 0 -119.5 43.5t-44.5 116.5q0 30 13 80l67 255q11 38 43 38q19 0 27.5 -13t3.5 -35l-67 -250q-7 -30 -7 -58q0 -51 30.5 -79.5t84.5 -28.5q61 0 114.5 47.5t72.5 120.5l69 258q11 38 43 38q19 0 28 -13.5t3 -34.5l-117 -441q-10 -38 -44 -38z" />
    <glyph glyph-name="Uhungarumlaut" unicode="&#x170;" horiz-adv-x="758" 
d="M775 656l-100 -373q-36 -133 -110 -207q-87 -87 -218 -87q-122 0 -188.5 61.5t-66.5 162.5q0 55 15 109l92 345q9 38 43 38q19 0 29 -13.5t4 -35.5l-94 -355q-10 -42 -10 -79q0 -72 46.5 -116t136.5 -44q91 0 156 64q61 63 89 171l100 370q9 38 43 38q19 0 29 -13.5
t4 -35.5zM498 902q16 0 27.5 -9.5t11.5 -21.5q0 -11 -15 -23l-91 -71q-23 -19 -45 -19q-18 0 -18 14q0 9 8 17l85 92q21 21 37 21zM662 902q16 0 27 -9.5t11 -21.5t-14 -23l-91 -71q-23 -19 -46 -19q-17 0 -17 14q0 9 8 17l85 92q21 21 37 21z" />
    <glyph glyph-name="uhungarumlaut" unicode="&#x171;" horiz-adv-x="613" 
d="M422 -5q-16 0 -25 11t-7 27l13 51q-84 -95 -181 -95q-75 0 -119.5 43.5t-44.5 116.5q0 30 13 80l67 255q11 38 43 38q19 0 27.5 -13t3.5 -35l-67 -250q-7 -30 -7 -58q0 -51 30.5 -79.5t84.5 -28.5q61 0 114.5 47.5t72.5 120.5l69 258q11 38 43 38q19 0 28 -13.5t3 -34.5
l-117 -441q-10 -38 -44 -38zM380 735q16 0 27.5 -9.5t11.5 -21.5q0 -11 -15 -23l-91 -71q-23 -19 -45 -19q-18 0 -18 14q0 9 8 17l85 92q21 21 37 21zM544 735q16 0 27 -9.5t11 -21.5t-14 -23l-91 -71q-23 -19 -46 -19q-17 0 -17 14q0 9 8 17l85 92q21 21 37 21z" />
    <glyph glyph-name="Uogonek" unicode="&#x172;" horiz-adv-x="758" 
d="M775 656l-100 -373q-36 -133 -110 -207q-87 -87 -218 -87h-3q-56 -43 -56 -73q0 -13 10 -20.5t36 -13.5q21 -4 21 -22q-2 -24 -36 -24q-48 0 -74 18.5t-26 46.5q0 44 64 93q-92 15 -141.5 74t-49.5 145q0 55 15 109l92 345q9 38 43 38q19 0 29 -13.5t4 -35.5l-94 -355
q-10 -42 -10 -79q0 -72 46.5 -116t136.5 -44q91 0 156 64q61 63 89 171l100 370q9 38 43 38q19 0 29 -13.5t4 -35.5z" />
    <glyph glyph-name="uogonek" unicode="&#x173;" horiz-adv-x="613" 
d="M583 474l-117 -441q-5 -19 -21 -32q-70 -52 -70 -85q0 -13 10 -20.5t36 -13.5q20 -4 20 -22q0 -24 -35 -24q-48 0 -74.5 18.5t-26.5 46.5q0 51 90 111q-6 8 -5 21l13 51q-84 -95 -181 -95q-75 0 -119.5 43.5t-44.5 116.5q0 30 13 80l67 255q11 38 43 38q19 0 27.5 -13
t3.5 -35l-67 -250q-7 -30 -7 -58q0 -51 30.5 -79.5t84.5 -28.5q61 0 114.5 47.5t72.5 120.5l69 258q11 38 43 38q19 0 28 -13.5t3 -34.5z" />
    <glyph glyph-name="Wcircumflex" unicode="&#x174;" horiz-adv-x="1083" 
d="M740 874l45 -84q7 -12 7 -18q0 -14 -19 -14q-31 0 -47 19l-42 52l-75 -52q-28 -19 -50 -19q-19 0 -19 14q0 8 11 19l90 84q24 22 45 22h17q23 0 37 -23zM1136 648l-391 -621q-21 -36 -51 -36h-4q-34 0 -36 38l-37 531l-323 -533q-22 -36 -51 -36h-4q-33 0 -36 38l-57 617
q0 2 -0.5 10t-0.5 10q0 16 12 27.5t29 11.5q38 0 41 -37l44 -551l332 559q17 29 44 29h3q33 0 35 -32l35 -556l344 559q18 29 45 29q15 0 25 -9t10 -23q0 -11 -8 -25z" />
    <glyph glyph-name="wcircumflex" unicode="&#x175;" horiz-adv-x="848" 
d="M579 707l45 -84q7 -12 7 -18q0 -14 -19 -14q-31 0 -47 19l-42 52l-75 -52q-28 -19 -50 -19q-19 0 -19 14q0 8 11 19l90 84q24 22 45 22h17q23 0 37 -23zM135 31l-38 432q0 2 -0.5 9.5t-0.5 10.5q0 16 11.5 27.5t28.5 11.5q36 0 38 -37l27 -380l234 387q19 30 45 30h3
q32 0 34 -33l27 -384l239 391q15 26 38 26q32 0 32 -30q0 -13 -8 -25l-276 -443q-21 -32 -48 -32h-2q-35 0 -38 39l-28 373l-232 -380q-19 -32 -48 -32h-2q-34 0 -36 39z" />
    <glyph glyph-name="Ycircumflex" unicode="&#x176;" horiz-adv-x="663" 
d="M367 267l-62 -234q-11 -38 -44 -38q-19 0 -29 13.5t-4 35.5l63 236l-155 358q-7 16 -7 29q0 16 11.5 27t29.5 11q27 0 40 -33l136 -326l321 337q22 22 43 22q15 0 24.5 -9t9.5 -24q0 -18 -16 -34zM527 874l45 -84q7 -12 7 -18q0 -14 -19 -14q-31 0 -47 19l-42 52l-75 -52
q-28 -19 -50 -19q-19 0 -19 14q0 8 11 19l90 84q24 22 45 22h17q23 0 37 -23z" />
    <glyph glyph-name="ycircumflex" unicode="&#x177;" horiz-adv-x="574" 
d="M-17 -79q35 -16 65 -16q65 0 133 96l-87 460q-3 11 -3 23q0 16 11 27t27 11t26.5 -10t12.5 -27l71 -400l267 409q16 28 41 28q16 0 25 -9t9 -23q0 -13 -9 -28l-322 -479q-54 -79 -103.5 -112.5t-107.5 -33.5q-46 0 -86 20q-23 11 -23 34q0 15 9.5 25t23.5 10q8 0 20 -5z
M427 707l45 -84q7 -12 7 -18q0 -14 -19 -14q-31 0 -47 19l-42 52l-75 -52q-28 -19 -50 -19q-19 0 -19 14q0 8 11 19l90 84q24 22 45 22h17q23 0 37 -23z" />
    <glyph glyph-name="Ydieresis" unicode="&#x178;" horiz-adv-x="663" 
d="M367 267l-62 -234q-11 -38 -44 -38q-19 0 -29 13.5t-4 35.5l63 236l-155 358q-7 16 -7 29q0 16 11.5 27t29.5 11q27 0 40 -33l136 -326l321 337q22 22 43 22q15 0 24.5 -9t9.5 -24q0 -18 -16 -34zM386 864q20 0 32 -13t7 -31l-7 -25q-10 -39 -52 -39q-20 0 -31.5 12.5
t-7.5 31.5l7 25q10 39 52 39zM563 864q20 0 32 -13t7 -31l-7 -25q-10 -39 -52 -39q-20 0 -31.5 12.5t-7.5 31.5l7 25q10 39 52 39z" />
    <glyph glyph-name="Zacute" unicode="&#x179;" horiz-adv-x="669" 
d="M598 849l-97 -72q-23 -19 -51 -19q-22 0 -22 15q0 7 7 16l85 92q21 21 37 21q18 0 36.5 -10.5t18.5 -20.5q0 -11 -14 -22zM13 70l579 559h-386q-14 0 -24.5 10.5t-10.5 24.5q0 15 10.5 25.5t24.5 10.5h478q32 0 32 -29v-1q0 -19 -21 -40l-579 -559h404q15 0 25.5 -10.5
t10.5 -24.5q0 -15 -10.5 -25.5t-25.5 -10.5h-496q-32 0 -32 29v1q0 19 21 40z" />
    <glyph glyph-name="zacute" unicode="&#x17a;" horiz-adv-x="549" 
d="M495 682l-97 -72q-23 -19 -51 -19q-22 0 -22 15q0 7 7 16l85 92q21 21 37 21q18 0 36.5 -10.5t18.5 -20.5q0 -11 -14 -22zM152 517h367q34 0 34 -28v-1q0 -19 -17 -33l-428 -390h300q13 0 23 -9.5t10 -22.5t-9.5 -23t-23.5 -10h-383q-34 0 -34 28v1q0 18 17 33l427 390
h-283q-14 0 -23.5 9.5t-9.5 22.5q0 14 9.5 23.5t23.5 9.5z" />
    <glyph glyph-name="Zdotaccent" unicode="&#x17b;" horiz-adv-x="669" 
d="M13 70l579 559h-386q-14 0 -24.5 10.5t-10.5 24.5q0 15 10.5 25.5t24.5 10.5h478q32 0 32 -29v-1q0 -19 -21 -40l-579 -559h404q15 0 25.5 -10.5t10.5 -24.5q0 -15 -10.5 -25.5t-25.5 -10.5h-496q-32 0 -32 29v1q0 19 21 40zM470 864q20 0 32 -13t7 -31l-7 -25
q-10 -39 -52 -39q-20 0 -31.5 12.5t-7.5 31.5l7 25q10 39 52 39z" />
    <glyph glyph-name="zdotaccent" unicode="&#x17c;" horiz-adv-x="549" 
d="M152 517h367q34 0 34 -28v-1q0 -19 -17 -33l-428 -390h300q13 0 23 -9.5t10 -22.5t-9.5 -23t-23.5 -10h-383q-34 0 -34 28v1q0 18 17 33l427 390h-283q-14 0 -23.5 9.5t-9.5 22.5q0 14 9.5 23.5t23.5 9.5zM368 697q20 0 32 -13t7 -31l-7 -25q-10 -39 -52 -39
q-20 0 -31.5 12.5t-7.5 31.5l7 25q10 39 52 39z" />
    <glyph glyph-name="Zcaron" unicode="&#x17d;" horiz-adv-x="669" 
d="M408 782l-46 83q-7 16 -7 18q0 14 20 14q31 0 47 -19l42 -52l75 53q26 18 50 18q18 0 18 -13q0 -9 -10 -19l-91 -84q-21 -23 -45 -23h-16q-24 0 -37 24zM13 70l579 559h-386q-14 0 -24.5 10.5t-10.5 24.5q0 15 10.5 25.5t24.5 10.5h478q32 0 32 -29v-1q0 -19 -21 -40
l-579 -559h404q15 0 25.5 -10.5t10.5 -24.5q0 -15 -10.5 -25.5t-25.5 -10.5h-496q-32 0 -32 29v1q0 19 21 40z" />
    <glyph glyph-name="zcaron" unicode="&#x17e;" horiz-adv-x="549" 
d="M305 615l-46 83q-7 16 -7 18q0 14 20 14q31 0 47 -19l42 -52l75 53q26 18 50 18q18 0 18 -13q0 -9 -10 -19l-91 -84q-21 -23 -45 -23h-16q-24 0 -37 24zM152 517h367q34 0 34 -28v-1q0 -19 -17 -33l-428 -390h300q13 0 23 -9.5t10 -22.5t-9.5 -23t-23.5 -10h-383
q-34 0 -34 28v1q0 18 17 33l427 390h-283q-14 0 -23.5 9.5t-9.5 22.5q0 14 9.5 23.5t23.5 9.5z" />
    <glyph glyph-name="florin" unicode="&#x192;" horiz-adv-x="531" 
d="M43 -11q-50 0 -50 34q0 31 43 33q35 0 59.5 21.5t47.5 73.5l98 222h-60q-13 0 -23 10t-10 23q0 14 10 24t24 10h88l54 121q65 149 188 149q32 0 58 -7q28 -8 28 -32q0 -15 -10 -25t-22 -9q-3 0 -20.5 3.5t-33.5 3.5q-75 0 -121 -104l-44 -100h112q13 0 23 -10t10 -24
t-10 -23.5t-23 -9.5h-141l-107 -243q-62 -141 -168 -141z" />
    <glyph glyph-name="Aringacute" unicode="&#x1fa;" horiz-adv-x="747" 
d="M700 982l-97 -72q-23 -19 -51 -19q-22 0 -22 15q0 7 7 16l85 92q21 21 37 21q18 0 36.5 -10.5t18.5 -20.5q0 -11 -14 -22zM19 -5q-14 0 -23.5 9t-9.5 24q0 14 9 25l458 631q-41 24 -41 71q0 46 33.5 78.5t80.5 32.5q44 0 72 -25t28 -63q0 -35 -21.5 -63.5t-55.5 -39.5
l118 -620q3 -18 3 -22q0 -15 -11 -26.5t-29 -11.5q-33 0 -40 35l-27 155h-385l-118 -163q-21 -27 -41 -27zM228 257h322l-65 358zM513 705q29 0 49 21t20 51q0 22 -15 36t-42 14q-29 0 -49 -21t-20 -51q0 -22 15 -36t42 -14z" />
    <glyph glyph-name="aringacute" unicode="&#x1fb;" horiz-adv-x="576" 
d="M207 49q67 0 126 43.5t77 110.5l10 36q-80 23 -168 23q-69 0 -112 -34t-43 -87q0 -41 30 -66.5t80 -25.5zM395 -5q-19 0 -26.5 11t-5.5 28l13 47q-80 -92 -193 -92q-69 0 -116.5 38.5t-47.5 104.5q0 86 64 136.5t166 50.5q84 0 184 -28l3 12q7 26 7 48q0 105 -140 105
q-57 0 -119 -18q-7 -3 -16 -3q-13 0 -22 9t-9 23q0 25 26 33q73 24 152 24q97 0 150 -42.5t53 -117.5q0 -33 -11 -71l-69 -260q-10 -38 -43 -38zM559 918l-97 -72q-23 -19 -51 -19q-22 0 -22 15q0 7 7 16l85 92q21 21 37 21q18 0 36.5 -10.5t18.5 -20.5q0 -11 -14 -22z
M378 594q-44 0 -70.5 25t-26.5 63q0 45 34.5 78t80.5 33q44 0 71 -25t27 -63q0 -45 -34.5 -78t-81.5 -33zM380 633q29 0 49.5 21t20.5 50q0 23 -14 37t-41 14q-29 0 -50 -21.5t-21 -50.5q0 -22 14.5 -36t41.5 -14z" />
    <glyph glyph-name="AEacute" unicode="&#x1fc;" horiz-adv-x="1065" 
d="M896 849l-97 -72q-23 -19 -51 -19q-22 0 -22 15q0 7 7 16l85 92q21 21 37 21q18 0 36.5 -10.5t18.5 -20.5q0 -11 -14 -22zM268 257h243l100 373h-25zM587 700h490q15 0 25.5 -10.5t10.5 -25.5t-10.5 -25.5t-25.5 -10.5h-387l-64 -239h322q15 0 25.5 -11t10.5 -25
q0 -15 -10.5 -25.5t-25.5 -10.5h-341l-66 -245h373q14 0 25 -10.5t11 -25.5t-11 -25.5t-25 -10.5h-427q-18 0 -28 13t-4 33l38 139h-284l-139 -163q-24 -27 -44 -27q-14 0 -22.5 8.5t-8.5 22.5q0 15 13 31l523 610q29 33 56 33z" />
    <glyph glyph-name="aeacute" unicode="&#x1fd;" horiz-adv-x="958" 
d="M695 682l-97 -72q-23 -19 -51 -19q-22 0 -22 15q0 7 7 16l85 92q21 21 37 21q18 0 36.5 -10.5t18.5 -20.5q0 -11 -14 -22zM255 262q-69 0 -113.5 -33t-44.5 -85q0 -43 30.5 -69t85.5 -26q112 0 216 110q-5 25 -5 48q0 11 2 31q-72 24 -171 24zM919 330q0 -37 -7 -63
q-8 -35 -41 -35h-374q-2 -16 -2 -25q1 -69 43.5 -110.5t112.5 -41.5q80 0 140 48q16 8 27 8q13 0 21.5 -9t8.5 -22q0 -16 -15 -28q-78 -64 -185 -64q-73 0 -125.5 31.5t-77.5 87.5q-113 -118 -251 -118q-78 0 -126.5 38.5t-48.5 107.5q0 85 65.5 134.5t167.5 49.5
q91 0 181 -28l3 12q7 26 7 48q0 105 -140 105q-60 0 -119 -18q-7 -3 -16 -3q-13 0 -22 9t-9 23q0 25 26 33q75 24 152 24q76 0 125 -28.5t64 -80.5q41 52 97 82.5t119 30.5q94 0 146.5 -56.5t52.5 -141.5zM507 290h333q4 18 4 40q0 57 -33 95t-96 38q-74 0 -130 -49.5
t-78 -123.5z" />
    <glyph glyph-name="Oslashacute" unicode="&#x1fe;" horiz-adv-x="842" 
d="M169 293q0 -63 26 -115l468 392q-66 71 -172 71q-88 0 -163.5 -50.5t-117 -130.5t-41.5 -167zM400 58q88 0 163.5 50.5t117 130.5t41.5 167q0 64 -28 117l-467 -392q62 -73 173 -73zM168 82l-90 -76q-21 -16 -35 -16q-12 0 -19 7.5t-7 18.5q0 13 16 29l99 83
q-44 74 -44 163q0 108 53 204.5t148 156.5t207 60q138 0 225 -92l88 74q21 16 34 16q12 0 19.5 -7t7.5 -18q0 -15 -17 -30l-96 -81q46 -75 46 -165q0 -108 -53 -205t-148 -157t-207 -60q-139 0 -227 95zM700 859l-97 -72q-23 -19 -51 -19q-22 0 -22 15q0 7 7 16l85 92
q21 21 37 21q18 0 36.5 -10.5t18.5 -20.5q0 -11 -14 -22z" />
    <glyph glyph-name="oslashacute" unicode="&#x1ff;" horiz-adv-x="638" 
d="M289 55q87 0 154.5 72.5t67.5 166.5q0 44 -15 79l-324 -274q42 -44 117 -44zM126 222q0 -40 15 -77l323 273q-43 43 -116 43q-88 0 -155 -73.5t-67 -165.5zM118 51l-57 -48q-17 -13 -30 -13q-11 0 -18.5 7t-7.5 18q0 15 15 27l62 51q-33 54 -33 127q0 122 90.5 215
t213.5 93q101 0 165 -61l58 48q17 13 30 13q11 0 18.5 -7t7.5 -17q0 -13 -15 -28l-62 -51q34 -57 34 -128q0 -124 -91.5 -216.5t-213.5 -92.5q-101 0 -166 63zM557 682l-97 -72q-23 -19 -51 -19q-22 0 -22 15q0 7 7 16l85 92q21 21 37 21q18 0 36.5 -10.5t18.5 -20.5
q0 -11 -14 -22z" />
    <glyph glyph-name="Scommaaccent" unicode="&#x218;" horiz-adv-x="637" 
d="M203 -155q-33 7 -33 33q0 21 14 38.5t38 17.5q42 0 42 -43q0 -23 -11.5 -49.5t-29.5 -44.5q-40 -40 -94 -40q-16 0 -16 13q0 14 21 18q58 13 69 57zM303 61q76 0 126.5 37t50.5 94q0 40 -31.5 68.5t-112.5 59.5q-103 41 -147.5 81.5t-44.5 105.5q0 87 72.5 145t185.5 58
q129 0 221 -80q18 -14 18 -33q0 -16 -11.5 -27t-27.5 -11q-15 0 -28 10q-73 70 -179 70q-76 0 -122 -36.5t-46 -86.5q0 -41 34 -68t121 -61q94 -36 137.5 -78t43.5 -107q0 -92 -76 -152t-189 -60q-165 0 -262 104q-15 15 -15 33q0 17 10.5 28.5t26.5 11.5q18 0 30 -14
q84 -92 215 -92z" />
    <glyph glyph-name="scommaaccent" unicode="&#x219;" horiz-adv-x="496" 
d="M133 -154q-33 7 -33 33q0 21 14 38.5t38 17.5q42 0 42 -43q0 -23 -11.5 -49.5t-29.5 -44.5q-40 -40 -94 -40q-16 0 -16 13q0 14 21 18q58 13 69 57zM224 53q46 0 80 24t34 62q0 26 -21.5 46.5t-76.5 41.5q-76 30 -111 60.5t-35 81.5q0 68 54 113.5t142 45.5q45 0 91 -16
t76 -37q19 -11 19 -32q0 -14 -10 -24t-24 -10q-10 0 -22 8q-70 47 -137 47q-52 0 -82 -24t-30 -58q0 -26 21.5 -45.5t81.5 -42.5q74 -30 107.5 -62t33.5 -80q0 -71 -57 -117t-141 -46q-113 0 -201 70q-16 13 -16 31q0 14 10 24.5t23 10.5q12 0 27 -11q75 -61 164 -61z" />
    <glyph glyph-name="schwa" unicode="&#x259;" horiz-adv-x="589" 
d="M453 227h-333q-5 -15 -5 -40q0 -57 33 -95t96 -38q74 0 130.5 49.5t78.5 123.5zM308 462q-80 0 -140 -48q-14 -8 -26 -8q-14 0 -22.5 9t-8.5 22q0 16 15 28q80 64 186 64q103 0 166 -61t63 -159q0 -123 -87.5 -221.5t-213.5 -98.5q-94 0 -147 56.5t-53 141.5q0 28 7 63
q8 35 42 35h374q0 4 0.5 12.5t0.5 12.5q-1 69 -43.5 110.5t-112.5 41.5z" />
    <glyph glyph-name="circumflex" unicode="&#x2c6;" horiz-adv-x="500" 
d="M421 707l45 -84q7 -12 7 -18q0 -14 -19 -14q-31 0 -47 19l-42 52l-75 -52q-28 -19 -50 -19q-19 0 -19 14q0 8 11 19l90 84q24 22 45 22h17q23 0 37 -23z" />
    <glyph glyph-name="caron" unicode="&#x2c7;" horiz-adv-x="500" 
d="M295 615l-46 83q-7 16 -7 18q0 14 20 14q31 0 47 -19l42 -52l75 53q26 18 50 18q18 0 18 -13q0 -9 -10 -19l-91 -84q-21 -23 -45 -23h-16q-24 0 -37 24z" />
    <glyph glyph-name="breve" unicode="&#x2d8;" horiz-adv-x="500" 
d="M344 593q-52 0 -85.5 26.5t-33.5 72.5q0 18 8.5 28.5t22.5 10.5q21 0 28 -22q6 -25 21.5 -38.5t49.5 -13.5q55 0 95 54q15 20 32 20q12 0 19.5 -7t7.5 -18q0 -10 -6 -19q-24 -43 -66 -68.5t-93 -25.5z" />
    <glyph glyph-name="dotaccent" unicode="&#x2d9;" horiz-adv-x="500" 
d="M363 697q20 0 32 -13t7 -31l-7 -25q-10 -39 -52 -39q-20 0 -31.5 12.5t-7.5 31.5l7 25q10 39 52 39z" />
    <glyph glyph-name="ring" unicode="&#x2da;" horiz-adv-x="500" 
d="M356 594q-44 0 -70.5 25t-26.5 63q0 45 34.5 78t80.5 33q44 0 71 -25t27 -63q0 -45 -34.5 -78t-81.5 -33zM358 633q29 0 49.5 21t20.5 50q0 23 -14 37t-41 14q-29 0 -50 -21.5t-21 -50.5q0 -22 14.5 -36t41.5 -14z" />
    <glyph glyph-name="ogonek" unicode="&#x2db;" horiz-adv-x="500" 
d="M197 -164q-48 0 -74 18.5t-26 46.5q0 51 96 115l48 -13q-75 -54 -75 -87q0 -13 10 -20.5t36 -13.5q21 -4 21 -22q-2 -24 -36 -24z" />
    <glyph glyph-name="tilde" unicode="&#x2dc;" horiz-adv-x="500" 
d="M212 591q-11 0 -18.5 6.5t-7.5 16.5q0 11 7 24q46 81 104 81q22 0 36 -7.5t35 -25.5q30 -26 42 -28q3 -1 7 -1q24 0 53 44q11 17 26 17q11 0 19 -6.5t8 -17.5q0 -12 -7 -23q-47 -82 -105 -82q-32 0 -70 33q-32 29 -50 29q-25 0 -52 -43q-11 -17 -27 -17z" />
    <glyph glyph-name="hungarumlaut" unicode="&#x2dd;" horiz-adv-x="500" 
d="M320 735q16 0 27.5 -9.5t11.5 -21.5q0 -11 -15 -23l-91 -71q-23 -19 -45 -19q-18 0 -18 14q0 9 8 17l85 92q21 21 37 21zM484 735q16 0 27 -9.5t11 -21.5t-14 -23l-91 -71q-23 -19 -46 -19q-17 0 -17 14q0 9 8 17l85 92q21 21 37 21z" />
    <glyph glyph-name="commaaccent" unicode="&#x326;" horiz-adv-x="500" 
d="M137 -154q-33 7 -33 33q0 21 14 38.5t38 17.5q42 0 42 -43q0 -23 -11.5 -49.5t-29.5 -44.5q-40 -40 -94 -40q-16 0 -16 13q0 14 21 18q58 13 69 57z" />
    <glyph glyph-name="Wgrave" unicode="&#x1e80;" horiz-adv-x="1083" 
d="M1136 648l-391 -621q-21 -36 -51 -36h-4q-34 0 -36 38l-37 531l-323 -533q-22 -36 -51 -36h-4q-33 0 -36 38l-57 617q0 2 -0.5 10t-0.5 10q0 16 12 27.5t29 11.5q38 0 41 -37l44 -551l332 559q17 29 44 29h3q33 0 35 -32l35 -556l344 559q18 29 45 29q15 0 25 -9t10 -23
q0 -11 -8 -25zM618 776l-57 74q-9 13 -9 20q0 11 17 21t35 10q26 0 34 -24l35 -89q0 -1 1.5 -6t1.5 -8q0 -16 -22 -16t-36 18z" />
    <glyph glyph-name="wgrave" unicode="&#x1e81;" horiz-adv-x="848" 
d="M135 31l-38 432q0 2 -0.5 9.5t-0.5 10.5q0 16 11.5 27.5t28.5 11.5q36 0 38 -37l27 -380l234 387q19 30 45 30h3q32 0 34 -33l27 -384l239 391q15 26 38 26q32 0 32 -30q0 -13 -8 -25l-276 -443q-21 -32 -48 -32h-2q-35 0 -38 39l-28 373l-232 -380q-19 -32 -48 -32h-2
q-34 0 -36 39zM456 609l-57 74q-9 13 -9 20q0 11 17 21t35 10q26 0 34 -24l35 -89q0 -1 1.5 -6t1.5 -8q0 -16 -22 -16t-36 18z" />
    <glyph glyph-name="Wacute" unicode="&#x1e82;" horiz-adv-x="1083" 
d="M815 849l-97 -72q-23 -19 -51 -19q-22 0 -22 15q0 7 7 16l85 92q21 21 37 21q18 0 36.5 -10.5t18.5 -20.5q0 -11 -14 -22zM1136 648l-391 -621q-21 -36 -51 -36h-4q-34 0 -36 38l-37 531l-323 -533q-22 -36 -51 -36h-4q-33 0 -36 38l-57 617q0 2 -0.5 10t-0.5 10
q0 16 12 27.5t29 11.5q38 0 41 -37l44 -551l332 559q17 29 44 29h3q33 0 35 -32l35 -556l344 559q18 29 45 29q15 0 25 -9t10 -23q0 -11 -8 -25z" />
    <glyph glyph-name="wacute" unicode="&#x1e83;" horiz-adv-x="848" 
d="M653 682l-97 -72q-23 -19 -51 -19q-22 0 -22 15q0 7 7 16l85 92q21 21 37 21q18 0 36.5 -10.5t18.5 -20.5q0 -11 -14 -22zM135 31l-38 432q0 2 -0.5 9.5t-0.5 10.5q0 16 11.5 27.5t28.5 11.5q36 0 38 -37l27 -380l234 387q19 30 45 30h3q32 0 34 -33l27 -384l239 391
q15 26 38 26q32 0 32 -30q0 -13 -8 -25l-276 -443q-21 -32 -48 -32h-2q-35 0 -38 39l-28 373l-232 -380q-19 -32 -48 -32h-2q-34 0 -36 39z" />
    <glyph glyph-name="Wdieresis" unicode="&#x1e84;" horiz-adv-x="1083" 
d="M599 864q20 0 32 -13t7 -31l-7 -25q-10 -39 -52 -39q-20 0 -31.5 12.5t-7.5 31.5l7 25q10 39 52 39zM776 864q20 0 32 -13t7 -31l-7 -25q-10 -39 -52 -39q-20 0 -31.5 12.5t-7.5 31.5l7 25q10 39 52 39zM1136 648l-391 -621q-21 -36 -51 -36h-4q-34 0 -36 38l-37 531
l-323 -533q-22 -36 -51 -36h-4q-33 0 -36 38l-57 617q0 2 -0.5 10t-0.5 10q0 16 12 27.5t29 11.5q38 0 41 -37l44 -551l332 559q17 29 44 29h3q33 0 35 -32l35 -556l344 559q18 29 45 29q15 0 25 -9t10 -23q0 -11 -8 -25z" />
    <glyph glyph-name="wdieresis" unicode="&#x1e85;" horiz-adv-x="848" 
d="M438 697q20 0 32 -13t7 -31l-7 -25q-10 -39 -52 -39q-20 0 -31.5 12.5t-7.5 31.5l7 25q10 39 52 39zM615 697q20 0 32 -13t7 -31l-7 -25q-10 -39 -52 -39q-20 0 -31.5 12.5t-7.5 31.5l7 25q10 39 52 39zM135 31l-38 432q0 2 -0.5 9.5t-0.5 10.5q0 16 11.5 27.5t28.5 11.5
q36 0 38 -37l27 -380l234 387q19 30 45 30h3q32 0 34 -33l27 -384l239 391q15 26 38 26q32 0 32 -30q0 -13 -8 -25l-276 -443q-21 -32 -48 -32h-2q-35 0 -38 39l-28 373l-232 -380q-19 -32 -48 -32h-2q-34 0 -36 39z" />
    <glyph glyph-name="Ygrave" unicode="&#x1ef2;" horiz-adv-x="663" 
d="M367 267l-62 -234q-11 -38 -44 -38q-19 0 -29 13.5t-4 35.5l63 236l-155 358q-7 16 -7 29q0 16 11.5 27t29.5 11q27 0 40 -33l136 -326l321 337q22 22 43 22q15 0 24.5 -9t9.5 -24q0 -18 -16 -34zM404 776l-57 74q-9 13 -9 20q0 11 17 21t35 10q26 0 34 -24l35 -89
q0 -1 1.5 -6t1.5 -8q0 -16 -22 -16t-36 18z" />
    <glyph glyph-name="ygrave" unicode="&#x1ef3;" horiz-adv-x="574" 
d="M-17 -79q35 -16 65 -16q65 0 133 96l-87 460q-3 11 -3 23q0 16 11 27t27 11t26.5 -10t12.5 -27l71 -400l267 409q16 28 41 28q16 0 25 -9t9 -23q0 -13 -9 -28l-322 -479q-54 -79 -103.5 -112.5t-107.5 -33.5q-46 0 -86 20q-23 11 -23 34q0 15 9.5 25t23.5 10q8 0 20 -5z
M306 609l-57 74q-9 13 -9 20q0 11 17 21t35 10q26 0 34 -24l35 -89q0 -1 1.5 -6t1.5 -8q0 -16 -22 -16t-36 18z" />
    <glyph glyph-name="enspace" unicode="&#x2002;" horiz-adv-x="500" 
 />
    <glyph glyph-name="emspace" unicode="&#x2003;" horiz-adv-x="1000" 
 />
    <glyph glyph-name="threeperemspace" unicode="&#x2004;" horiz-adv-x="333" 
 />
    <glyph glyph-name="fourperemspace" unicode="&#x2005;" horiz-adv-x="250" 
 />
    <glyph glyph-name="thinspace" unicode="&#x2009;" horiz-adv-x="133" 
 />
    <glyph glyph-name="hairspace" unicode="&#x200a;" horiz-adv-x="75" 
 />
    <glyph glyph-name="endash" unicode="&#x2013;" horiz-adv-x="529" 
d="M111 262q-16 0 -27.5 11.5t-11.5 27.5t11.5 27t27.5 11h330q16 0 27 -11t11 -27t-11 -27.5t-27 -11.5h-330z" />
    <glyph glyph-name="emdash" unicode="&#x2014;" horiz-adv-x="899" 
d="M111 262q-16 0 -27.5 11.5t-11.5 27.5t11.5 27t27.5 11h700q16 0 27 -11t11 -27t-11 -27.5t-27 -11.5h-700z" />
    <glyph glyph-name="quoteleft" unicode="&#x2018;" horiz-adv-x="255" 
d="M184 473q-23 0 -34.5 16.5t-4.5 42.5l8 30q15 62 55 100q33 30 80 40q24 4 24 -17q0 -13 -17 -19q-70 -24 -80 -83q14 -3 22.5 -14t4.5 -29l-7 -26q-5 -18 -18.5 -29.5t-32.5 -11.5z" />
    <glyph glyph-name="quoteright" unicode="&#x2019;" horiz-adv-x="255" 
d="M234 705q23 0 34.5 -16.5t4.5 -42.5l-8 -30q-15 -62 -55 -100q-33 -30 -80 -40q-24 -4 -24 17q0 13 17 19q70 24 80 83q-14 3 -22.5 14t-4.5 29l7 26q5 18 18.5 29.5t32.5 11.5z" />
    <glyph glyph-name="quotesinglbase" unicode="&#x201a;" horiz-adv-x="255" 
d="M80 110q23 0 34.5 -16.5t4.5 -42.5l-8 -30q-15 -62 -55 -100q-33 -30 -80 -40q-11 -2 -17.5 3t-6.5 14q0 13 17 19q70 24 80 83q-14 3 -22.5 14t-4.5 29l7 26q5 18 18.5 29.5t32.5 11.5z" />
    <glyph glyph-name="quotedblleft" unicode="&#x201c;" horiz-adv-x="455" 
d="M184 473q-23 0 -34.5 16.5t-4.5 42.5l8 30q15 62 55 100q33 30 80 40q24 4 24 -17q0 -13 -17 -19q-70 -24 -80 -83q14 -3 22.5 -14t4.5 -29l-7 -26q-5 -18 -18.5 -29.5t-32.5 -11.5zM384 473q-23 0 -34.5 16.5t-4.5 42.5l8 30q15 62 55 100q33 30 80 40q24 4 24 -17
q0 -13 -17 -19q-70 -24 -80 -83q14 -3 22.5 -14t4.5 -29l-7 -26q-5 -18 -18.5 -29.5t-32.5 -11.5z" />
    <glyph glyph-name="quotedblright" unicode="&#x201d;" horiz-adv-x="455" 
d="M434 705q23 0 34.5 -16.5t4.5 -42.5l-8 -30q-15 -62 -55 -100q-33 -30 -80 -40q-24 -4 -24 17q0 13 17 19q70 24 80 83q-14 3 -22.5 14t-4.5 29l7 26q5 18 18.5 29.5t32.5 11.5zM234 705q23 0 34.5 -16.5t4.5 -42.5l-8 -30q-15 -62 -55 -100q-33 -30 -80 -40
q-24 -4 -24 17q0 13 17 19q70 24 80 83q-14 3 -22.5 14t-4.5 29l7 26q5 18 18.5 29.5t32.5 11.5z" />
    <glyph glyph-name="quotedblbase" unicode="&#x201e;" horiz-adv-x="455" 
d="M280 110q23 0 34.5 -16.5t4.5 -42.5l-8 -30q-15 -62 -55 -100q-33 -30 -80 -40q-11 -2 -17.5 3t-6.5 14q0 13 17 19q70 24 80 83q-14 3 -22.5 14t-4.5 29l7 26q5 18 18.5 29.5t32.5 11.5zM80 110q23 0 34.5 -16.5t4.5 -42.5l-8 -30q-15 -62 -55 -100q-33 -30 -80 -40
q-11 -2 -17.5 3t-6.5 14q0 13 17 19q70 24 80 83q-14 3 -22.5 14t-4.5 29l7 26q5 18 18.5 29.5t32.5 11.5z" />
    <glyph glyph-name="dagger" unicode="&#x2020;" horiz-adv-x="411" 
d="M330 667l-36 -108l94 6q12 1 20.5 -7t8.5 -19t-8.5 -19t-20.5 -7l-106 7l-63 -260q-6 -27 -30 -27q-13 0 -19.5 9.5t-2.5 23.5l73 254l-94 -6q-11 -1 -19.5 7t-8.5 19t8.5 19t19.5 7l104 -7l25 116q5 30 32 30q15 0 21.5 -11t1.5 -27z" />
    <glyph glyph-name="daggerdbl" unicode="&#x2021;" horiz-adv-x="425" 
d="M251 350l-52 -170l94 6q12 1 20.5 -7t8.5 -19t-8.5 -19t-20.5 -7l-103 7l-25 -116q-6 -30 -32 -30q-15 0 -22 11t-1 27l35 108l-94 -6q-11 -1 -19.5 7t-8.5 19t8.5 19t20.5 7l104 -7l40 170l51 170l-93 -6q-12 -1 -20.5 7t-8.5 19t8.5 19t20.5 7l104 -7l24 116
q6 30 32 30q15 0 21.5 -11t1.5 -27l-35 -108l94 6q11 1 19.5 -7t8.5 -19t-8.5 -19t-20.5 -7l-105 7z" />
    <glyph glyph-name="bullet" unicode="&#x2022;" horiz-adv-x="478" 
d="M236 216q-48 0 -78 30t-30 81q0 64 44 112.5t106 48.5q48 0 78 -30t30 -80q0 -64 -44.5 -113t-105.5 -49z" />
    <glyph glyph-name="ellipsis" unicode="&#x2026;" horiz-adv-x="734" 
d="M115 35q-8 -40 -53 -40q-21 0 -33 12.5t-8 31.5l8 29q10 41 53 41q20 0 32 -13t8 -32zM355 35q-8 -40 -53 -40q-21 0 -33 12.5t-8 31.5l8 29q10 41 53 41q21 0 33 -13t8 -32zM595 35q-8 -40 -53 -40q-21 0 -32.5 12.5t-7.5 31.5l7 29q10 41 53 41q21 0 33 -13t8 -32z" />
    <glyph glyph-name="perthousand" unicode="&#x2030;" horiz-adv-x="1226" 
d="M232 346q-62 0 -101.5 42t-39.5 104q0 85 55.5 150.5t135.5 65.5q63 0 102.5 -42t39.5 -104q0 -85 -56 -150.5t-136 -65.5zM603 -7q-62 0 -101.5 41.5t-39.5 104.5q0 84 56 150t136 66q62 0 101.5 -42t39.5 -104q0 -85 -56 -150.5t-136 -65.5zM237 401q51 0 88 49t37 107
q0 44 -22.5 70t-61.5 26q-51 0 -88 -49t-37 -107q0 -44 22 -70t62 -26zM608 48q51 0 88 49t37 107q0 44 -22.5 70t-61.5 26q-51 0 -88 -49t-37 -108q0 -43 22.5 -69t61.5 -26zM992 -7q-62 0 -101.5 41.5t-39.5 104.5q0 84 56 150t136 66q62 0 101.5 -42t39.5 -104
q0 -85 -56 -150.5t-136 -65.5zM997 48q51 0 88 49t37 107q0 44 -22.5 70t-61.5 26q-51 0 -88 -49t-37 -108q0 -43 22.5 -69t61.5 -26zM777 653l-622 -641q-17 -17 -31 -17q-11 0 -19 7.5t-8 19.5q0 11 13 26l622 640q15 17 30 17q27 0 27 -26q0 -14 -12 -26z" />
    <glyph glyph-name="guilsinglleft" unicode="&#x2039;" horiz-adv-x="328" 
d="M59 272l185 179q20 20 36 20q14 0 22 -8.5t8 -22.5q0 -16 -12 -26l-169 -167l71 -152q6 -13 6 -23q0 -13 -10 -22.5t-24 -9.5q-22 0 -33 22l-82 166q-8 16 -8 23q0 11 10 21z" />
    <glyph glyph-name="guilsinglright" unicode="&#x203a;" horiz-adv-x="328" 
d="M267 242l-185 -180q-20 -20 -35 -20q-14 0 -22.5 8.5t-8.5 22.5q0 15 12 27l169 166l-71 152q-6 13 -6 23q0 14 10 23.5t24 9.5q22 0 33 -23l83 -165q8 -16 8 -23q0 -12 -11 -21z" />
    <glyph glyph-name="fraction" unicode="&#x2044;" horiz-adv-x="542" 
d="M635 705l-638 -784q-19 -24 -37 -24q-12 0 -20 7.5t-8 20.5q0 15 13 30l638 784q19 24 37 24q12 0 20 -7.5t8 -20.5q0 -15 -13 -30z" />
    <glyph glyph-name="Euro" unicode="&#x20ac;" horiz-adv-x="694" 
d="M255 470h236q13 0 22.5 -9t9.5 -22t-9.5 -22t-22.5 -9h-260q-17 -61 -20 -108h235q13 0 22.5 -9.5t9.5 -22.5t-9.5 -22t-22.5 -9h-235q5 -81 50 -129t119 -48q94 0 171 76q12 12 29 12q15 0 25 -9t10 -23q0 -19 -16 -33q-98 -95 -221 -95q-105 0 -174 67.5t-76 181.5h-59
q-13 0 -22 9t-9 22t9 22.5t22 9.5h60q3 57 19 108h-34q-13 0 -22 9t-9 22t9 22t22 9h54q45 109 131 175.5t195 66.5q150 0 213 -127q10 -17 10 -29q0 -16 -11.5 -26.5t-28.5 -10.5q-21 0 -31 19q-24 47 -60.5 74.5t-100.5 27.5q-73 0 -133.5 -46.5t-96.5 -123.5z" />
    <glyph glyph-name="published" unicode="&#x2117;" horiz-adv-x="830" 
d="M438 -12q-151 0 -256 106t-105 255t106 256t257 107t256 -106t105 -255t-106 -256t-257 -107zM438 19q140 0 235 97t95 235t-94.5 234t-233.5 96q-140 0 -235 -97t-95 -235t94.5 -234t233.5 -96zM316 195v320q0 12 8.5 20t19.5 8h118q66 0 105 -32t39 -88v-2
q0 -59 -43.5 -91.5t-108.5 -32.5h-83v-102q0 -11 -8 -19.5t-19 -8.5t-19.5 8.5t-8.5 19.5zM371 347h85q43 0 68.5 19.5t25.5 53.5v2q0 71 -93 71h-86v-146z" />
    <glyph glyph-name="servicemark" unicode="&#x2120;" horiz-adv-x="707" 
d="M745 701h3q24 0 18 -30l-75 -263q-7 -20 -24 -20q-10 0 -15.5 7.5t-1.5 20.5l57 200l-127 -137q-11 -13 -24 -13t-20 14l-53 136l-60 -208q-7 -20 -24 -20q-10 0 -15.5 7.5t-1.5 20.5l74 262q7 23 24 23h2q14 0 23 -19l63 -161l149 165q13 15 28 15zM99 472q8 0 16 -8
q40 -40 93 -40q31 0 51 15t20 38q0 16 -13 27.5t-48 25.5q-45 18 -65 36t-20 47q0 40 33.5 66t83.5 26q62 0 100 -36q9 -9 9 -18q0 -8 -6 -14t-14 -6q-10 0 -18 8q-34 29 -75 29q-30 0 -49 -14.5t-19 -34.5q0 -17 14.5 -28.5t51.5 -25.5q41 -16 60 -34.5t19 -47.5
q0 -42 -34.5 -69t-84.5 -27q-71 0 -119 48q-7 9 -7 16q0 9 6.5 15t14.5 6z" />
    <glyph glyph-name="trademark" unicode="&#x2122;" horiz-adv-x="693" 
d="M269 658l-71 -250q-5 -21 -24 -21q-10 0 -16 8t-2 20l68 243h-76q-8 0 -14.5 6t-6.5 15q0 8 6.5 14.5t14.5 6.5h209q8 0 14.5 -6t6.5 -14q0 -9 -6.5 -15.5t-14.5 -6.5h-88zM731 701h3q24 0 18 -30l-75 -263q-5 -20 -24 -20q-10 0 -15.5 7.5t-1.5 20.5l57 200l-127 -137
q-11 -13 -24 -13t-20 14l-53 136l-60 -208q-7 -20 -24 -20q-10 0 -15.5 7.5t-1.5 20.5l74 262q7 23 24 23h2q14 0 23 -19l63 -161l149 165q13 15 28 15z" />
    <glyph glyph-name="minus" unicode="&#x2212;" horiz-adv-x="625" 
d="M550 315h-424q-16 0 -26.5 10.5t-10.5 26.5q0 15 10.5 26t26.5 11h424q16 0 26.5 -11t10.5 -26q0 -16 -10.5 -26.5t-26.5 -10.5z" />
    <glyph glyph-name="Q.alt" horiz-adv-x="842" 
d="M532 262l85 -105q103 105 103 249q0 101 -63 167t-166 66q-89 0 -163.5 -50t-115.5 -129.5t-41 -166.5q0 -101 63 -167t166 -66q89 0 162 51l-83 95q-16 20 -16 34q0 17 10.5 28t26.5 11q20 0 32 -17zM654 -4l-47 57q-98 -66 -212 -66q-134 0 -220.5 87t-86.5 217
q0 108 53 204.5t148 156.5t207 60q134 0 220.5 -87t86.5 -216q0 -88 -37 -170t-102 -143l45 -49q16 -18 16 -33t-10.5 -25.5t-27.5 -10.5q-20 0 -33 18z" />
    <glyph glyph-name="a.alt" 
d="M277 56q87 0 158.5 75t71.5 169q0 68 -45 114t-115 46q-91 0 -153.5 -73t-62.5 -173q0 -71 40.5 -114.5t105.5 -43.5zM534 400l22 84q10 38 43 38q18 0 27 -13.5t4 -34.5l-117 -441q-11 -38 -44 -38q-17 0 -26 10.5t-7 27.5l14 55q-87 -100 -195 -100q-89 0 -147 61
t-58 158q0 135 87 228t203 93q141 0 194 -128z" />
    <glyph glyph-name="aacute.alt" 
d="M556 682l-97 -72q-23 -19 -51 -19q-22 0 -22 15q0 7 7 16l85 92q21 21 37 21q18 0 36.5 -10.5t18.5 -20.5q0 -11 -14 -22zM277 56q87 0 158.5 75t71.5 169q0 68 -45 114t-115 46q-91 0 -153.5 -73t-62.5 -173q0 -71 40.5 -114.5t105.5 -43.5zM534 400l22 84q10 38 43 38
q18 0 27 -13.5t4 -34.5l-117 -441q-11 -38 -44 -38q-17 0 -26 10.5t-7 27.5l14 55q-87 -100 -195 -100q-89 0 -147 61t-58 158q0 135 87 228t203 93q141 0 194 -128z" />
    <glyph glyph-name="abreve.alt" 
d="M277 56q87 0 158.5 75t71.5 169q0 68 -45 114t-115 46q-91 0 -153.5 -73t-62.5 -173q0 -71 40.5 -114.5t105.5 -43.5zM534 400l22 84q10 38 43 38q18 0 27 -13.5t4 -34.5l-117 -441q-11 -38 -44 -38q-17 0 -26 10.5t-7 27.5l14 55q-87 -100 -195 -100q-89 0 -147 61
t-58 158q0 135 87 228t203 93q141 0 194 -128zM412 593q-52 0 -85.5 26.5t-33.5 72.5q0 18 8.5 28.5t22.5 10.5q21 0 28 -22q6 -25 21.5 -38.5t49.5 -13.5q55 0 95 54q15 20 32 20q12 0 19.5 -7t7.5 -18q0 -10 -6 -19q-24 -43 -66 -68.5t-93 -25.5z" />
    <glyph glyph-name="acircumflex.alt" 
d="M482 707l45 -84q7 -12 7 -18q0 -14 -19 -14q-31 0 -47 19l-42 52l-75 -52q-28 -19 -50 -19q-19 0 -19 14q0 8 11 19l90 84q24 22 45 22h17q23 0 37 -23zM277 56q87 0 158.5 75t71.5 169q0 68 -45 114t-115 46q-91 0 -153.5 -73t-62.5 -173q0 -71 40.5 -114.5t105.5 -43.5
zM534 400l22 84q10 38 43 38q18 0 27 -13.5t4 -34.5l-117 -441q-11 -38 -44 -38q-17 0 -26 10.5t-7 27.5l14 55q-87 -100 -195 -100q-89 0 -147 61t-58 158q0 135 87 228t203 93q141 0 194 -128z" />
    <glyph glyph-name="adieresis.alt" 
d="M341 697q20 0 32 -13t7 -31l-7 -25q-10 -39 -52 -39q-20 0 -31.5 12.5t-7.5 31.5l7 25q10 39 52 39zM518 697q20 0 32 -13t7 -31l-7 -25q-10 -39 -52 -39q-20 0 -31.5 12.5t-7.5 31.5l7 25q10 39 52 39zM277 56q87 0 158.5 75t71.5 169q0 68 -45 114t-115 46
q-91 0 -153.5 -73t-62.5 -173q0 -71 40.5 -114.5t105.5 -43.5zM534 400l22 84q10 38 43 38q18 0 27 -13.5t4 -34.5l-117 -441q-11 -38 -44 -38q-17 0 -26 10.5t-7 27.5l14 55q-87 -100 -195 -100q-89 0 -147 61t-58 158q0 135 87 228t203 93q141 0 194 -128z" />
    <glyph glyph-name="agrave.alt" 
d="M277 56q87 0 158.5 75t71.5 169q0 68 -45 114t-115 46q-91 0 -153.5 -73t-62.5 -173q0 -71 40.5 -114.5t105.5 -43.5zM534 400l22 84q10 38 43 38q18 0 27 -13.5t4 -34.5l-117 -441q-11 -38 -44 -38q-17 0 -26 10.5t-7 27.5l14 55q-87 -100 -195 -100q-89 0 -147 61
t-58 158q0 135 87 228t203 93q141 0 194 -128zM359 609l-57 74q-9 13 -9 20q0 11 17 21t35 10q26 0 34 -24l35 -89q0 -1 1.5 -6t1.5 -8q0 -16 -22 -16t-36 18z" />
    <glyph glyph-name="amacron.alt" 
d="M277 56q87 0 158.5 75t71.5 169q0 68 -45 114t-115 46q-91 0 -153.5 -73t-62.5 -173q0 -71 40.5 -114.5t105.5 -43.5zM534 400l22 84q10 38 43 38q18 0 27 -13.5t4 -34.5l-117 -441q-11 -38 -44 -38q-17 0 -26 10.5t-7 27.5l14 55q-87 -100 -195 -100q-89 0 -147 61
t-58 158q0 135 87 228t203 93q141 0 194 -128zM554 615h-265q-13 0 -22.5 9.5t-9.5 22.5t9.5 22.5t22.5 9.5h265q13 0 22.5 -9.5t9.5 -22.5t-9.5 -22.5t-22.5 -9.5z" />
    <glyph glyph-name="aogonek.alt" 
d="M277 56q87 0 158.5 75t71.5 169q0 68 -45 114t-115 46q-91 0 -153.5 -73t-62.5 -173q0 -71 40.5 -114.5t105.5 -43.5zM534 400l22 84q10 38 43 38q18 0 27 -13.5t4 -34.5l-117 -441q-5 -19 -21 -32q-71 -53 -71 -85q0 -13 10 -20.5t36 -13.5q21 -4 21 -22q-2 -24 -36 -24
q-48 0 -74 18.5t-26 46.5q0 52 89 111q-5 8 -5 21l14 55q-87 -100 -195 -100q-89 0 -147 61t-58 158q0 135 87 228t203 93q141 0 194 -128z" />
    <glyph glyph-name="aring.alt" 
d="M424 594q-44 0 -70.5 25t-26.5 63q0 45 34.5 78t80.5 33q44 0 71 -25t27 -63q0 -45 -34.5 -78t-81.5 -33zM426 633q29 0 49.5 21t20.5 50q0 23 -14 37t-41 14q-29 0 -50 -21.5t-21 -50.5q0 -22 14.5 -36t41.5 -14zM277 56q87 0 158.5 75t71.5 169q0 68 -45 114t-115 46
q-91 0 -153.5 -73t-62.5 -173q0 -71 40.5 -114.5t105.5 -43.5zM534 400l22 84q10 38 43 38q18 0 27 -13.5t4 -34.5l-117 -441q-11 -38 -44 -38q-17 0 -26 10.5t-7 27.5l14 55q-87 -100 -195 -100q-89 0 -147 61t-58 158q0 135 87 228t203 93q141 0 194 -128z" />
    <glyph glyph-name="aring.alt2" horiz-adv-x="576" 
d="M395 -5q-19 0 -26.5 11t-5.5 28l13 47q-80 -92 -193 -92q-69 0 -116.5 38.5t-47.5 104.5q0 86 64 136.5t166 50.5q84 0 184 -28l3 12q7 26 7 48q0 105 -140 105q-57 0 -119 -18q-7 -3 -16 -3q-13 0 -22 9t-9 23q0 25 26 33q57 19 110 23q-16 21 -16 49q0 45 34.5 78
t81.5 33q44 0 70.5 -25t26.5 -63q0 -57 -51 -88q99 -38 99 -143q0 -33 -11 -71l-69 -260q-10 -38 -43 -38zM207 49q67 0 126 43.5t77 110.5l10 36q-80 23 -168 23q-69 0 -112 -34t-43 -87q0 -41 30 -66.5t80 -25.5zM356 522q29 0 50 21.5t21 50.5q0 23 -14.5 37t-40.5 14
q-30 0 -50.5 -21t-20.5 -51q0 -23 14 -37t41 -14z" />
    <glyph glyph-name="aringacute.alt" 
d="M605 918l-97 -72q-23 -19 -51 -19q-22 0 -22 15q0 7 7 16l85 92q21 21 37 21q18 0 36.5 -10.5t18.5 -20.5q0 -11 -14 -22zM424 594q-44 0 -70.5 25t-26.5 63q0 45 34.5 78t80.5 33q44 0 71 -25t27 -63q0 -45 -34.5 -78t-81.5 -33zM426 633q29 0 49.5 21t20.5 50
q0 23 -14 37t-41 14q-29 0 -50 -21.5t-21 -50.5q0 -22 14.5 -36t41.5 -14zM277 56q87 0 158.5 75t71.5 169q0 68 -45 114t-115 46q-91 0 -153.5 -73t-62.5 -173q0 -71 40.5 -114.5t105.5 -43.5zM534 400l22 84q10 38 43 38q18 0 27 -13.5t4 -34.5l-117 -441q-11 -38 -44 -38
q-17 0 -26 10.5t-7 27.5l14 55q-87 -100 -195 -100q-89 0 -147 61t-58 158q0 135 87 228t203 93q141 0 194 -128z" />
    <glyph glyph-name="aringacute.alt2" horiz-adv-x="576" 
d="M395 -5q-19 0 -26.5 11t-5.5 28l13 47q-80 -92 -193 -92q-69 0 -116.5 38.5t-47.5 104.5q0 86 64 136.5t166 50.5q84 0 184 -28l3 12q7 26 7 48q0 105 -140 105q-57 0 -119 -18q-7 -3 -16 -3q-13 0 -22 9t-9 23q0 25 26 33q57 19 110 23q-16 21 -16 49q0 45 34.5 78
t81.5 33q44 0 70.5 -25t26.5 -63q0 -57 -51 -88q99 -38 99 -143q0 -33 -11 -71l-69 -260q-10 -38 -43 -38zM207 49q67 0 126 43.5t77 110.5l10 36q-80 23 -168 23q-69 0 -112 -34t-43 -87q0 -41 30 -66.5t80 -25.5zM356 522q29 0 50 21.5t21 50.5q0 23 -14.5 37t-40.5 14
q-30 0 -50.5 -21t-20.5 -51q0 -23 14 -37t41 -14zM535 807l-97 -72q-23 -19 -51 -19q-22 0 -22 15q0 7 7 16l85 92q21 21 37 21q18 0 36.5 -10.5t18.5 -20.5q0 -11 -14 -22z" />
    <glyph glyph-name="atilde.alt" 
d="M277 56q87 0 158.5 75t71.5 169q0 68 -45 114t-115 46q-91 0 -153.5 -73t-62.5 -173q0 -71 40.5 -114.5t105.5 -43.5zM534 400l22 84q10 38 43 38q18 0 27 -13.5t4 -34.5l-117 -441q-11 -38 -44 -38q-17 0 -26 10.5t-7 27.5l14 55q-87 -100 -195 -100q-89 0 -147 61
t-58 158q0 135 87 228t203 93q141 0 194 -128zM280 591q-11 0 -18.5 6.5t-7.5 16.5q0 11 7 24q46 81 104 81q22 0 36 -7.5t35 -25.5q30 -26 42 -28q3 -1 7 -1q24 0 53 44q11 17 26 17q11 0 19 -6.5t8 -17.5q0 -12 -7 -23q-47 -82 -105 -82q-32 0 -70 33q-32 29 -50 29
q-25 0 -52 -43q-11 -17 -27 -17z" />
    <glyph glyph-name="three.alt" horiz-adv-x="606" 
d="M79 142q68 -82 185 -82q80 0 131 40t51 97q0 61 -51 91.5t-136 30.5h-4q-15 0 -25 9.5t-10 24.5q0 14 10 24t24 10h30q106 0 167.5 37t61.5 102q0 52 -40.5 82.5t-103.5 30.5q-86 0 -159 -53q-15 -12 -30 -12t-24.5 10t-9.5 24q0 17 16 30q93 71 212 73q96 1 159 -47.5
t63 -128.5q0 -73 -51.5 -120t-144.5 -65q56 -18 92 -56.5t36 -96.5q0 -89 -77 -149t-192 -60q-153 0 -237 100q-13 17 -13 31q0 16 11 27t27 11q19 0 32 -15z" />
    <glyph glyph-name="registered.alt" horiz-adv-x="830" 
d="M438 -12q-151 0 -256 106t-105 255t106 256t257 107t256 -106t105 -255t-106 -256t-257 -107zM438 19q140 0 235 97t95 235t-94.5 234t-233.5 96q-140 0 -235 -97t-95 -235t94.5 -234t233.5 -96zM297 197v322q0 11 8 19t19 8h139q71 0 110 -39q29 -27 29 -72v-2
q0 -42 -25.5 -70t-68.5 -38l87 -109q8 -10 8 -20q0 -11 -8 -18.5t-19 -7.5q-14 0 -23 12l-105 133h-96v-118q0 -11 -8.5 -19t-19.5 -8t-19 8t-8 19zM352 364h106q39 0 63.5 17.5t24.5 49.5q0 31 -22.5 48t-62.5 17h-109v-132z" />
    <glyph glyph-name="NUL" horiz-adv-x="0" 
 />
    <glyph glyph-name="hfjslug" horiz-adv-x="694" 
d="M644 -200h-208l-8 14h-163l-8 -14h-207v303q14 0 23 9.5t9 22.5t-9.5 22.5t-22.5 9.5v554h100l30 79h334l29 -79h101v-921zM400 563v-172h15v78h38v14h-38v66h43v14h-58zM184 563v-172h15v79h47v-79h15v172h-15v-79h-47v79h-15zM460 394q10 -4 21 -4q31 0 31 36v137h-16
v-137q0 -22 -16 -22q-8 0 -20 5v-15zM371 465l-13 3q-4 -18 -8 -30h-1l-16 31q23 21 23 42q0 31 -27 31q-12 0 -20 -9t-8 -22t14 -39q-23 -18 -23 -47q0 -16 8 -26.5t21 -10.5q19 0 29 24h1l12 -24l12 6l-17 32q6 14 13 39zM523 323v-46h8v12l8 8l15 -20h10l-20 26l18 20
h-10l-20 -24h-1v24h-8zM488 292l10 -15h9l-12 17q10 4 10 14q0 15 -17 15h-20v-46h8v15h12zM426 276q10 0 17 7t7 17q0 9 -7 16.5t-17 7.5t-17 -7.5t-7 -16.5q0 -10 7 -17t17 -7zM370 301l-13 22h-9l18 -29v-17h8v17l18 29h-9zM193 323v-46h34v7h-26v13h23v7h-23v12h26v7
h-34zM132 323v-46h8v32l25 -32h7v46h-8v-32l-25 32h-7zM241 323l14 -47h8l11 34h1l11 -34h8l14 47h-8l-10 -35h-1l-11 35h-7l-11 -35h-1l-10 35h-8zM327 479q-12 22 -12 32q0 19 14 19q13 0 13 -19q0 -15 -15 -32zM342 423q-8 -21 -20 -21q-16 0 -16 25q0 19 16 35zM487 299
h-11v17h11q10 0 10 -8q0 -9 -10 -9zM426 283q-16 0 -16 17q0 6 4.5 11.5t11.5 5.5t11.5 -5.5t4.5 -11.5q0 -17 -16 -17z" />
    <glyph glyph-name="i.dot" horiz-adv-x="264" 
d="M286 661q-9 -36 -51 -36q-20 0 -31.5 11t-7.5 28l5 21q10 35 51 35q20 0 31.5 -11t7.5 -28zM228 474l-118 -441q-11 -38 -43 -38q-19 0 -27.5 13t-3.5 35l118 441q11 38 43 38q19 0 28 -13.5t3 -34.5z" />
    <glyph glyph-name="caron.alt" horiz-adv-x="500" 
d="M299 585l40 117q11 30 42 30h16q18 0 18 -14q0 -9 -10 -25l-66 -113q-11 -19 -27 -19q-15 0 -15 12q0 2 2 12z" />
    </font>
</defs>
</svg>
